<svg version="1.2" xmlns="http://www.w3.org/2000/svg" viewBox="0 0 2881 261" width="2881" height="261"><style>.a{fill:#d83425}.b{fill:#00a6db}.c{fill:#6c2f94}.d{fill:#fff}.e{fill:#00a63d}.f{fill:#ef9c48}.g{fill:#dd4a70}</style><path fill-rule="evenodd" class="a" d="m704.5 9.1c4.4 0 14.3 0.6 22 1.4 7.8 0.9 17.7 2.7 22.5 4.2 4.7 1.4 11.2 3.9 14.5 5.6 3.3 1.6 7.5 4.2 9.3 5.6 3.3 2.6 3.3 2.6 3.2 20.1l-6.3-5c-3.4-2.8-8.8-6.4-12-8-3.1-1.7-11-4.4-17.5-6.1-8.6-2.3-14.7-3.3-23.2-3.7-6.3-0.2-17.6 0.1-25 0.8-7.4 0.6-18 2.3-23.5 3.6-5.5 1.4-12.5 3.6-21 7.5l7.4 105.2c4.1 57.8 7.6 105.4 7.8 105.7 0.3 0.3 14.1-0.9 61.3-5.5l0.1-10 3.2 6.3c2.7 5.2 3.6 6.2 5.7 6.2 1.4-0.1 11.6-1.3 43-5.5v8.5l33.5 0.5-42.5 5.8c-23.4 3.1-43.3 5.7-44.3 5.7-0.9 0-1.7-0.7-1.7-1.5 0-1-1-1.5-3.3-1.5-1.7 0-16.5 1.4-32.7 3-16.2 1.6-30.9 3-35.5 3l-16-233.7 8-4.1c4.4-2.2 10.5-5.1 13.5-6.5 3-1.3 8.4-2.9 12-3.7 3.6-0.7 11.7-1.8 18-2.5 6.3-0.7 15.1-1.3 19.5-1.4zm1315 0c4.4 0 14.3 0.6 22 1.4 7.8 0.9 17.7 2.7 22.5 4.2 4.7 1.4 11.2 3.9 14.5 5.5 3.3 1.7 7.7 4.3 13.5 8.8v17l-6.3-5.1c-3.4-2.7-8.9-6.3-12.2-7.9-3.3-1.6-11.4-4.4-18-6.1-8.8-2.3-15.1-3.3-23.5-3.7-6.3-0.2-17.6 0.1-25 0.8-7.4 0.6-18 2.3-23.5 3.6-5.5 1.4-12.5 3.6-21 7.5l7.4 105.2c4.1 57.8 7.6 105.4 7.8 105.7 0.3 0.3 14.1-0.9 61.2-5.5l0.6-12 2.7 7.2c2.3 6.1 3.2 7.3 5 7.3 1.3 0 10.9-1.1 21.3-2.5 10.4-1.4 20-2.8 21.2-3 2.1-0.5 2.3-0.1 2.3 8.5l32.5 0.5-43.3 6c-43 6-43.4 6-44.8 4-1.5-2-1.6-2-36.4 1.5-19.2 1.9-35 3.3-35.3 3-0.2-0.3-3.9-53-16.2-233.9l9.5-4.5c5.2-2.4 11.7-5.4 14.5-6.5 2.7-1.1 7.5-2.5 10.5-3.1 3-0.7 10.7-1.8 17-2.5 6.3-0.7 15.1-1.3 19.5-1.4zm-1314.5 28c11.3-0.1 18.3 0.4 26 1.8 6.8 1.2 13.3 3.2 18.5 5.6 4.9 2.2 10.5 5.9 14.4 9.3 3.5 3.1 7.7 7.9 12.1 15.7v48l-2.9 5c-1.5 2.7-5.5 7.4-8.7 10.3-3.3 3-8.4 6.6-16.9 10.7l14.2 36.7c8.7 22.3 14.3 38.2 14.3 40.3 0 2.1-0.5 3.5-1.3 3.5-0.6 0-8.2 0.9-16.7 2-8.5 1.1-16.4 2-17.5 2-1.7 0.1-4.5-5.6-17.5-35.6-11.7-27.1-15.6-35-15.8-32.8-0.2 1.6 0.4 15.4 1.2 30.6 0.9 15.3 1.6 30.2 1.6 38.3l-17.4 1.5c-9.6 0.8-17.7 1.3-17.9 1-0.2-0.3-3.3-42.7-13.2-188l3.5-1.2c1.9-0.6 8.2-1.9 14-2.8 6.4-1.1 16.6-1.8 26-1.9zm1315.5 0c10.6-0.1 18 0.4 25.5 1.8 7.9 1.4 12.9 3 20.2 6.5 7.5 3.5 11.3 6.1 16.1 10.8 4.7 4.6 6.8 7.7 8 11.3 1.4 4.1 1.7 9 1.6 48l-3.2 5.9c-1.8 3.2-5.7 8.2-8.7 11-3 2.8-8.2 6.5-17.5 11.1l14.7 38c8.2 20.9 14.8 39 14.8 40.2 0 1.3-0.6 2.3-1.3 2.3-0.6 0-8.2 0.9-16.7 2-8.5 1.1-16.4 2-17.5 2-1.7 0.1-4.5-5.6-17.5-35.6-13.9-32-15.5-35.3-15.8-31.8-0.2 2.1 0.1 15 0.7 28.6 0.6 13.7 1.1 28.1 1.1 39.3l-16.9 1.5c-9.3 0.8-17.1 1.3-17.4 1-0.2-0.3-3.5-42.7-14.2-188l3.5-1.2c1.9-0.6 8.5-1.9 14.5-2.9 6.5-1 17.2-1.7 26-1.8zm-1245 103.9c0.3 0 0.5 8.7 0.5 38.5l-11.6-29 4.8-3.8c2.6-2 5-4.2 5.3-4.7 0.4-0.6 0.8-1 1-1zm1316-0.2l0.3 9.8c0.1 5.5 0.1 14.5-0.3 30.5l-12-30.8 4-2.6c2.2-1.4 4.9-3.5 6-4.7z"/><path fill-rule="evenodd" class="b" d="m471 1l9.5 118.2 6-0.7c3.3-0.4 6.4-0.9 7-1.1 0.6-0.3 1.3 2.5 1.8 6.3 0.4 3.8 0.6 6.9 0.5 7-0.2 0.1-5.7 1.1-12.3 2.3-6.6 1.1-12.9 2-14 2-1.9 0-2.2-2.3-6.9-58.2-2.7-32.1-5.1-58.5-5.3-58.8-0.2-0.3-15.8 3.1-68.8 15.4l8 91.8c7.7 88.5 8.1 91.8 10 91.8 1.1 0 23.1-2.7 49-6 25.9-3.2 47.1-5.8 47.1-5.7 0.1 0.1 0.4 3.2 0.8 7 0.4 4.2 0.2 6.7-0.4 6.7-0.6 0-24.6 2.9-53.5 6.5-28.9 3.6-53.5 6.5-57 6.5l-19-209.5 46.5-10.6c25.6-5.9 47.5-10.7 51-10.9zm889 8v5c0 5 0 5 3.2 5 1.8 0 18.8-1.6 37.8-3.5 19-1.9 35.8-3.5 40.5-3.5l11.8 96.5-4.4 17.8c-2.7 11.1-4.7 17.1-5.1 16-0.3-1-3.7-27.2-7.4-58.3-3.7-31.1-6.9-56.7-7.1-57-0.3-0.3-14.7 0.8-63.8 5.3l-9 8.6 2.2 20.8c1.2 11.5 2.2 22.3 2.3 27.3h-10.5l-3-66h-9c-5 0-21.2 0.3-63 1.3l6 209.7h9c7 0 14.6-1.1 59.5-10.5v-60.5h17.5l4 31.5c3.8 29.6 4.1 31.5 6 31.5 1.1 0 12.3-1.6 25-3.4 12.7-1.9 23.1-3.3 23.2-3.2 0.1 0-0.6 3.3-3.3 14.1l-26.5 4.2c-14.5 2.3-27.6 4.2-29.2 4.2-2.4 0.1-2.7-0.3-2.7-2.9 0-2.2-0.5-3-1.8-3-0.9 0-15.2 2.7-31.7 6-29.2 5.8-30.4 6-62 6l-7-236.5 33-1.1c18.2-0.6 40.3-1.1 65.5-1.4zm1095.4 9h99.6v20l-2.8 0.6c-1.5 0.3-4.3 1-6.2 1.5-1.9 0.5-3.8 0.9-4.3 0.9-0.4 0-0.7-2-0.7-9h-72.5l-3.5 100.9c-1.9 55.5-3.1 101.3-2.7 101.8 0.5 0.4 14.7 0 31.5-1 16.9-1 31.9-1.7 33.4-1.7 2.8 0 2.8 0.1 2.8 6.5 0 5.9-0.2 6.5-2.3 6.9-1.2 0.3-19.4 1.5-40.4 2.8-21 1.3-38.5 1.9-39 1.5-0.4-0.5 1-52.8 3.2-116.3zm-2009.5 17l4.8 58c4.6 55.8 4.8 58 6.7 58 1.1 0 10.4-1.3 20.5-2.9 10.2-1.6 18.8-2.6 19-2.1 0.3 0.4 1.4 10.6 2.3 22.7 1.2 13.5 1.5 22 0.9 22.3-0.5 0.3-19.2 2.8-41.5 5.5-22.3 2.8-40.7 4.8-40.9 4.5-0.3-0.3-3.8-35.6-15.3-156.5l19.5-4.6c10.8-2.6 20.6-4.7 24-4.9zm843.5 2h44l0.8 13.8c0.4 7.5 1.3 22.6 3.2 53.2h2.5c1.4 0 10-0.5 35.5-2.3l-0.6-12.1c-0.4-6.6-1.2-18.4-1.8-26.1-0.6-7.7-1.3-14.9-1.6-16-0.4-1.9 0.6-2.1 22.5-4 12.6-1.1 23.1-1.8 23.3-1.5 0.2 0.3 4.3 32.2 17.7 141.5l-5.2 21-19.7 2.8c-10.7 1.5-20.2 2.8-21.1 2.8-1.2-0.1-2.2-6-9.5-62.1h-3c-1.6 0-11.4 0.6-40.5 2.5l0.1 62-19.3 3.8c-10.6 2.1-19.9 3.8-20.8 3.8-1.3-0.1-1.8-12.1-4-91.6zm1192 8l40 0.5 1.3 28c1.1 26.2 1 31.7-4.3 145l-21 0.8c-11.5 0.5-21.2 0.6-21.5 0.2-0.2-0.3 0.9-39.8 2.5-87.6z"/><path fill-rule="evenodd" class="c" d="m231 9v5c0 5 0 5 3.3 5 1.7 0 18.7-1.6 37.7-3.5 19-1.9 36-3.5 37.8-3.5 2.9 0 3.2 0.3 3.2 3 0 2.5-0.4 3-5 3l-1.4 58.5-2.9-24.5c-1.7-13.5-3.2-24.7-3.4-25-0.2-0.3-14.7 0.8-63.8 5.3l-9 8.6 2.2 20.8c1.2 11.5 2.2 22.3 2.3 27.3h-10.5l-3-66h-9c-4.9 0-21.2 0.3-63 1.3l6 209.7h9c7 0 14.6-1.1 59.5-10.5v-60.5h17.5l4 31.5c3.2 25.6 4.3 31.5 5.5 31.5 0.8 0 13.1-1.7 27.2-3.7 14.1-2.1 25.9-3.6 26.1-3.3 0.2 0.3 0.1 3.4-0.8 13.4l-30.5 4.8c-16.8 2.6-31.5 4.8-32.8 4.8-1.8 0-2.2-0.5-2.2-3 0-2.2-0.5-3-1.8-3-0.9 0-15.2 2.7-31.7 6-29.2 5.8-30.4 6-62 6l-7-236.5 33-1.1c18.1-0.6 40.3-1.1 65.5-1.4zm1347.5-0.1l3.2 8.3c1.8 4.6 4.2 11.2 5.3 14.8 1 3.6 3.3 12.8 7.9 34.5l-0.9 23.5c-0.5 12.9-1 25.1-1.1 27 0 2-1.5-3-3.5-12-1.8-8.5-6.1-27.2-9.4-41.5-3.4-14.3-7.1-29.3-8.3-33.3-2-6.5-2.5-7.2-4.7-7.3-1.4 0-19.8 1-79.5 4.5l-24.8 101.1c-13.7 55.5-24.7 101.1-24.5 101.3 0.2 0.2 15.8 0 69.3-1.3l12-50.5h19l5.5 28.5c4.3 22.3 5.8 28.5 7 28.5 0.8 0 8.9-1.4 18-3.1 9.1-1.6 17.3-3.2 18.2-3.4 1.6-0.5 1.8 0.3 1.3 13.9l-23.5 4.3c-12.9 2.3-24.2 4.3-25 4.3-1.2 0-2.6-5.7-11.5-51.5l-10 43-48.7 1.5c-26.7 0.8-48.9 1.3-49.3 1-0.3-0.3 12.1-52.3 56-230.6l42.5-2.6c23.4-1.4 46.3-2.6 59.5-2.9zm1032.5 20.1l4.7 7c4.4 6.5 5.1 7.1 8.3 7 1.9 0 19.7-1.4 39.5-3 19.8-1.6 37.7-3 39.8-3 3.2 0 3.7 0.3 3.7 2.3 0 1.2-2.8 5.8-6 10.2-5.3 7-6 7.7-6 5.3 0-2.2-0.5-2.8-2.3-2.8-1.2 0-17.3 1.2-69.3 5.5l1.3 8c0.8 4.4 1.2 8.4 1.1 8.9-0.2 0.4-5.1-6.4-11.1-15.3-10.7-16-10.7-16.1-14.5-16.1-2 0-17.4 3-64.7 13.5l3.9 88.5c2.2 48.7 4.1 88.7 4.3 89 0.3 0.3 16.4-1.1 71.3-6.5v-4.7c0-2.7-0.5-12.3-1.1-21.5-0.6-9.3-0.9-18.1-0.7-19.7 0.3-2.7 1.5-1.4 14.3 15.3 7.7 10.1 14.2 18.6 14.5 19 0.3 0.4 2.3 2 4.5 3.4 2.2 1.5 4.9 2.7 6 2.7 1.1 0 14.3-3.3 56.8-14.5l-1-13 7.8 8c6.7 6.8 7.8 8.5 7.9 15l-35.5 9.8c-19.5 5.3-36.2 9.7-37 9.7-0.8 0-3-0.7-4.7-1.7-1.8-0.9-5.8-3.5-8.8-5.7-3-2.3-6.3-5-7.2-6.1-1.7-1.9-1.7-1.6-1.8 17l-48.9 4.5c-26.9 2.5-49.1 4.3-49.4 4-0.2-0.3-2.4-46.2-9.2-203.5l36-8.1c29.1-6.6 37.7-8.2 53.5-8.4zm-2450.5 8h44l0.8 13.7c0.4 7.6 1.3 22.7 3.2 53.3h2.5c1.4 0 9.9-0.5 35.5-2.3l-0.7-12.1c-0.4-6.7-1.2-18.4-1.8-26.1-0.6-7.7-1.3-14.9-1.5-16-0.4-1.9 0.6-2.1 22.5-4 12.6-1.1 23-1.8 23.3-1.5 0.2 0.3 3.6 26.8 7.6 59 6.3 51.5 7.1 60.4 7 74-0.1 8.5-0.4 18.6-1.4 29.5l-18.5 2.7c-10.2 1.4-19.9 2.7-24.5 2.8l-8-62h-3c-1.7 0-11.4 0.5-40.5 2.5v62l-19.2 3.8c-10.6 2.1-20 3.8-20.8 3.7-1.3 0-1.8-12-4-91.5zm1399.5 1l1 3.3c0.5 1.7 2.3 9.1 3.9 16.2 1.6 7.2 5 21.8 7.5 32.5 2.4 10.7 7.7 34.8 18.7 87.5l-0.8 18.3c-0.8 17.2-0.9 18.3-2.8 18.7-1.1 0.3-7 1.4-13 2.5-6 1.1-11.7 2-12.5 2-1.2 0-2.7-6.2-7-28-5.4-27.7-5.5-28-8-28-1.4 0-10.6 0.5-38.5 2.3l-11 50.2-21.3 0.3c-11.6 0.1-21.2-0.1-21.2-0.5 0-0.5 9.7-40 43.5-175.1l21-0.9c11.5-0.5 25.4-1 40.5-1.3zm1034.8 20.1c1.8-0.1 6.2 5.9 26.5 36 14.6 21.8 24.3 35.4 24.4 34.2 0.2-1-1.2-14.7-6.2-58.9l18.5-1.2c10.2-0.7 20-1.2 25-1.2l0.6 10.3c0.4 6.4 0.2 12.8-0.6 17.2-0.6 3.9-1.1 12-1.1 18 0.1 6.5 1.1 16.7 2.6 25 1.3 7.7 3.3 16.7 4.5 20 1.3 3.6 2.7 11.3 3.6 19.5 0.7 7.4 1.4 15.1 1.4 20.5l-19.2 5.3c-10.6 3-20.2 5.1-21.3 4.8-1.1-0.3-2.7-1.8-3.6-3.3-1-1.5-4.6-6.4-8.1-10.8-3.5-4.4-14.6-18.9-24.6-32.2-10-13.4-18.6-24.5-19.2-24.8-0.6-0.3-1 1.9-1 5.8 0 3.4 0.7 18.1 1.5 32.7 0.8 14.6 1.5 29.7 1.5 40.5l-21.4 2c-11.8 1.1-21.7 1.8-21.9 1.5-0.2-0.3-1.9-34.5-7.2-151.5l21.5-4.7c11.8-2.5 22.5-4.7 23.8-4.7z"/><path fill-rule="evenodd" class="d" d="m458 18l4.8 58.5c4.5 56.3 4.8 58.5 6.7 58.5 1.1 0 7.4-0.9 14-2 6.6-1.1 12.1-1.8 12.2-1.7 0.2 0.1 0.6 3.2 1.8 13.5l-3 0.6c-1.6 0.3-10.3 1.7-19.3 3.1-8.9 1.4-17 2.5-17.9 2.5-1.6 0-2.2-5.3-6.7-57.7-2.7-31.8-5.1-58-5.3-58.3-0.2-0.3-9.9 1.7-42.8 9.4l15 156.6h3c1.6-0.1 20.3-2.3 41.5-4.9 27.2-3.4 38.7-4.5 39.2-3.7 0.4 0.6 0.8 3.7 0.8 6.8 0 5.8 0 5.8-3.3 6.3-1.7 0.3-22.8 3-46.7 6-23.9 3-44.4 5.5-45.5 5.5-1.9 0-2.3-3.3-18-183.5l32.5-7.6c17.9-4.2 33.5-7.7 37-7.9zm88.3 4.1c12-0.1 16.8 0.3 25.9 2.3 6.2 1.3 15.3 4 20.3 6 5 2 11.3 5.1 14 6.8 2.8 1.8 8.3 6.4 12.3 10.3 4.1 3.8 9.7 9.9 17.5 20l1.3 19c0.7 10.5 1.3 20.1 1.3 21.5 0 1.4-0.9-0.5-2-4.3-1-3.7-3.2-10.2-4.9-14.5-1.6-4.2-5.1-11.1-7.8-15.2-2.7-4.1-8.5-10.9-12.8-15.1-6.5-6.3-10-8.7-19.9-13.6-8.2-4.2-14.5-6.6-20-7.7-5-1-12.8-1.6-21-1.6-7.2 0-17.9 0.8-35 3.4l17 187.6h9.5c5.2 0 12.2-0.4 15.5-1 3.3-0.5 11.6-2.7 18.5-4.9 9.8-3.2 14.3-5.3 21-9.7 4.7-3.2 11.5-8.7 15.1-12.3 3.6-3.6 9.3-10.7 12.6-15.6 3.3-4.9 7.4-11.7 9-15 1.7-3.3 3.8-9.6 4.7-14 0.9-4.4 1.6-9.1 1.6-10.5 0-1.4 0.3-2.1 0.7-1.7 0.4 0.5 1.3 9.1 3.2 37.2l-4.9 8c-3 5-8.2 11.2-13.7 16.6-4.8 4.7-12.4 11.5-16.8 15-5.9 4.7-11 7.6-19.5 11.2-6.3 2.7-16.5 6.2-22.5 7.8-9 2.4-13 2.9-22.3 2.9-6.1 0-14.2-0.5-24.7-2.3l-18-208.5 7-2.2c3.9-1.3 10.6-3.1 15-4.1 5.4-1.1 12.9-1.7 22.8-1.8zm1315 0c12-0.1 16.8 0.3 25.9 2.3 6.2 1.3 15.3 4 20.3 6 5 2 11.3 5.1 14 6.8 2.8 1.8 8.3 6.4 12.3 10.3 4.1 3.8 9.6 9.8 17.2 19.5l1 13.3c0.5 7.2 1.2 16.1 2 26.2l-5.2-13c-2.9-7.2-7.2-16-9.5-19.5-2.3-3.6-7.9-10.2-12.5-14.6-7.1-6.9-10.1-9-20.3-14.1-8.2-4.2-14.5-6.6-20-7.7-5-1-12.9-1.6-21-1.6-7.2 0-17.7 0.7-34 3.3l16 187.7h9.5c5.2 0 12.2-0.4 15.5-1 3.3-0.5 11.6-2.7 18.5-4.9 9.7-3.1 14.4-5.3 20.8-9.6 4.5-3 11.6-8.8 15.8-12.7 4.2-4 9.8-10.5 12.4-14.3 2.6-3.8 6.1-9.8 7.9-13.2 1.7-3.5 4.4-10.9 8.8-26.8l2.2 35-4.6 7.5c-2.5 4.1-7.5 10.8-11.2 14.9-3.6 4.1-11.3 11-17.1 15.5-7.7 5.9-13.5 9.3-21.5 12.9-6 2.6-16.3 6.1-22.8 7.8-9.4 2.3-13.9 2.9-22.7 2.9-6 0-14-0.5-24.5-2.3l-18-208.5 7-2.2c3.8-1.3 10.6-3.1 15-4.1 5.4-1.1 12.9-1.7 22.7-1.8zm-1642.7 0.9l3 66h10.5l-0.1-3.3c0-1.7-1-12.5-4.4-44.8l9-8.6 30-2.7c16.5-1.4 30.9-2.6 32-2.6 1.9 0 2.2 1.6 4.8 22.7 1.9 15.6 2.7 27.1 2.6 36.3 0 7.4-0.6 27.9-2.4 77.5l-7.4-60.5c-4.1-33.3-7.6-60.7-7.8-61-0.2-0.3-10.7 0.4-23.3 1.5-21.9 1.9-22.9 2.1-22.5 4 0.2 1.1 0.9 8.3 1.5 16 0.6 7.7 1.4 19.4 2.5 38.2l-16.5 1.1c-9.1 0.7-17.6 1.2-21.5 1.2l-1.2-19.7c-0.7-10.9-1.6-26-2.8-47.3h-44l2.5 91.5c2.2 79.5 2.7 91.5 4 91.5 0.8 0.1 10.2-1.6 40-7.5v-62l18.7-1.3c10.4-0.7 20.2-1.2 24.8-1.2l8 62h2.5c1.4 0 11.2-1.3 41-5.5v14l-26.7 3.8c-14.8 2.1-27.2 3.7-27.8 3.7-0.6 0-2.8-13.9-9-63h-17.5v60.5l-25.2 5.3c-19.7 4.1-27.3 5.2-43.3 5.2l-6-210 18-0.3c9.9-0.1 26.1-0.4 54-0.7zm494.5 0.4c13.8 0.3 16.8 0.6 27.3 3.4 6.4 1.8 14.1 4.4 17 5.9 2.8 1.4 8.2 5 18.7 13.3v23.5l-2.9-5c-1.5-2.8-5.7-7.6-9.2-10.7-3.9-3.4-9.5-7.1-14.4-9.3-5.2-2.4-11.7-4.4-18.5-5.6-7.1-1.3-15.1-1.9-24.7-1.9-9.4 0-18.6 0.7-26.5 2-6.8 1-13.6 2.4-18.3 4l6.4 93.8c3.5 51.5 6.6 93.9 6.8 94.2 0.2 0.3 8.3-0.2 35.3-2.5v-5.3c0-2.8-0.7-17.7-1.6-33-0.8-15.2-1.4-29-1.2-30.6 0.2-2.2 4.1 5.7 15.8 32.8 13 30 15.8 35.7 17.5 35.6 1.1 0 9-0.9 17.5-2 8.5-1.1 16.1-2 16.8-2 0.9 0 1.1 1.9 0.7 13.5l-20 2.7c-11 1.5-21.1 2.7-22.5 2.8-2.1 0-3-1-8.9-12.5l-0.1 10-30.4 3c-16.8 1.6-30.6 2.8-30.9 2.5-0.2-0.3-3.7-47.9-15.2-210.9l5.5-2.5c3-1.4 9.3-3.5 14-4.7 4.7-1.2 13.5-2.7 19.5-3.5 6-0.7 18-1.1 26.5-1zm634.5-0.4l3 66h10.5l-0.1-3.3c0-1.7-1-12.5-4.4-44.8l9-8.6 31.7-2.9c17.4-1.6 31.8-2.7 32.1-2.4 0.2 0.3 3.6 27.3 14.7 119.5l-4.4 17.5c-2.6 10.7-4.5 16.7-4.9 15.5-0.3-1.1-4.2-32.4-8.8-69.5-4.5-37.1-8.4-67.7-8.6-68-0.3-0.3-10.7 0.4-23.3 1.5-21.9 1.9-22.9 2.1-22.5 4 0.2 1.1 0.9 8.3 1.5 16 0.6 7.7 1.4 19.4 2.5 38.2l-16.5 1.1c-9.1 0.7-17.6 1.2-21.5 1.2l-1.2-19.7c-0.7-10.9-1.6-26-2.8-47.3h-44l2.5 91.5c2.2 79.5 2.7 91.5 4 91.5 0.8 0.1 10.2-1.6 40-7.5v-62l18.7-1.3c10.4-0.7 20.1-1.2 24.8-1.2l4 31c3.7 29 4.1 31 6 31 1.1 0 10.3-1.1 20.5-2.6 10.2-1.4 18.6-2.4 18.8-2.2 0.2 0.2-0.2 2.8-0.8 5.8-0.6 3-1.6 6.2-2.1 7-0.6 1.1-7.1 2.4-23.6 4.7-12.6 1.8-23.7 3.3-24.8 3.3-1.9 0-2.2-1.9-10-63h-17.5v60.5l-25.2 5.3c-19.7 4.1-27.3 5.2-43.3 5.2l-6-210 18-0.3c9.9-0.1 26.1-0.4 54-0.7zm222 0l2.2 7.2c1.2 4 4.7 17.9 7.7 30.8 3 12.9 7.4 32 13.6 61.5l-1 25c-0.5 13.7-1 25.7-1.1 26.5 0 0.8-1.4-4.6-3-12-1.6-7.4-5.2-24.3-7.9-37.5-2.8-13.2-7.6-34.6-10.6-47.5-3-12.9-6.1-26.4-7-30-0.8-3.6-1.9-7.2-2.4-8-0.8-1.3-4.4-1.3-61.5 1.3l-21.8 87.1c-12 47.9-21.7 87.4-21.7 87.8 0 0.5 9.6 0.7 42.5 0.3l11-50.2 18-1.1c9.9-0.7 19.1-1.2 20.5-1.2 2.5 0 2.6 0.3 8 28 4.3 21.8 5.8 28 7 28 0.8 0 7.3-1.1 14.5-2.4 7.2-1.4 13.1-2.4 13.3-2.3 0.2 0.1-0.1 3.2-0.5 7-0.6 4.6-1.3 6.9-2.3 7.2-0.8 0.2-8.9 1.8-18 3.4-9.1 1.7-17.2 3.1-18 3.1-1.2 0-2.7-6.2-12.5-57h-19l-12 50.5-34.5 0.8c-19 0.5-34.6 0.7-34.8 0.5-0.2-0.2 10.8-45.8 49.3-202.4l33-2.1c18.2-1.1 36.6-2.1 49-2.3zm175.5 0.4c13.8 0.3 16.8 0.6 27.5 3.5 6.6 1.7 14.7 4.5 18 6 3.3 1.6 7.9 4.8 10.3 7 3.6 3.6 4.2 4.7 4.2 8.3 0 2.4 0.3 6.8 1.3 15.3l-7.9-7.4c-5.8-5.4-10.1-8.4-16.4-11.3-5.9-2.8-11.8-4.6-19-5.9-7-1.3-15.1-1.9-24.2-1.9-7.6 0-18.6 0.7-24.5 1.6-6 0.8-13 2.1-20.8 4.3l6.4 93.8c3.5 51.6 6.6 94 6.8 94.3 0.2 0.3 8.3-0.2 35.3-2.5v-5.3c0-2.8-0.7-17.7-1.6-33-0.8-15.2-1.4-29-1.2-30.6 0.2-2.2 4.1 5.7 15.8 32.8 10.6 24.4 16 35.7 17 35.6 0.8 0 9.7-1 19.8-2.2 10-1.3 18.2-2.6 18.2-3.1 0-0.4-6.9-18.4-30.5-79.2l6-2.9c3.7-1.8 8.6-5.5 12.5-9.5 4.4-4.4 7.4-8.5 9-12.3 1.4-3.2 2.8-5.8 3.3-5.8 0.4 0 1 5.3 1.8 23.5l-4.8 4.8c-2.6 2.6-6.1 5.7-10.8 9l22.3 57.2 1.1 14c0.7 7.7 1 14.1 0.9 14.1-0.2 0.1-12.6 1.8-27.5 3.8-15 2-28.2 3.6-29.3 3.6-1.6 0-2.6-1.6-7.5-14.5l-0.6 12-30.4 3c-16.7 1.6-30.5 2.8-30.8 2.5-0.2-0.3-3.7-47.9-15.2-210.9l5.5-2.5c3-1.4 9.3-3.5 14-4.7 4.7-1.2 13.5-2.7 19.5-3.5 6-0.7 18-1.1 26.5-1zm283 0c13.8 0.3 16.8 0.6 27.5 3.5 6.6 1.7 14.3 4.2 17 5.4 2.8 1.3 8.3 4.9 19.5 13.7l-0.2 25.5-1.5-4.5q-1.6-4.5-8-10.8c-4.8-4.7-8.6-7.3-16-10.8-7.4-3.5-12.4-5.1-20.3-6.5-6.9-1.3-15.2-1.9-24.2-1.9-7.6 0-18.6 0.7-24.5 1.6-6 0.8-13 2.1-20.8 4.3l6.9 93.8c3.8 51.6 7.1 94 7.3 94.3 0.3 0.3 8.1-0.2 34.3-2.5v-7.2c0-4-0.5-18.4-1.1-32-0.6-13.7-0.9-26.6-0.7-28.7 0.3-3.5 1.9-0.2 15.8 31.8 13 30 15.8 35.7 17.5 35.6 1.1 0 9-0.9 17.5-2 8.5-1.1 16.1-2 16.8-2 0.8 0 1.2 2 1.2 6.5 0 5.9-0.2 6.5-2.2 7-1.3 0.2-10.9 1.6-21.3 3-10.4 1.4-20 2.5-21.2 2.5-1.9 0-2.8-1.2-7.8-14.5l-0.6 12-30.4 3c-16.7 1.7-30.5 2.8-30.8 2.5-0.2-0.3-3.7-47.9-15.2-210.9l5.5-2.5c3-1.4 9.3-3.5 14-4.7 4.7-1.2 13.5-2.7 19.5-3.5 6-0.7 18-1.1 26.5-1zm-1238 3.6h3.3c1.7-0.1 29.2 1.4 118.7 6.5v3.8c0 2.7-0.5 3.8-1.7 4.1-1 0.3-6.3 1.4-21.8 4.7l-36.7-2.1c-20.3-1.1-39.3-2-47.8-2v177h96v3.8c0 2 0.3 5.2 1.5 10.2h-111.5zm1315 0h3.3c1.7-0.1 29.2 1.4 61 3.2 49.1 2.8 57.7 3.5 57.7 4.8 0 0.8-1.8 3.3-4.1 5.5-2.3 2.2-5.6 6.3-10.9 14v-8l-42.7-2.3c-23.6-1.2-44.5-2.2-50.3-2.2v177h49c46 0 49 0.1 49 1.8 0 0.9 0.4 4.1 1.5 12.2h-113.5zm193.3 1.6c8.6 0.2 18.9 1 29.7 2.9v13.8c0 9.4-0.4 14.9-1.4 17.5-0.8 2-2 6.2-2.6 9.2-0.6 3-1.1 9.4-1 23l-2.7-0.5c-1.6-0.2-6-0.9-9.8-1.5-3.8-0.7-7.1-1-7.2-0.8-0.2 0.2 4.7 3.7 10.7 7.8 10.7 7.3 11 7.6 12.2 12.5 0.6 2.8 3.2 8.4 5.7 12.6 2.5 4.2 6.2 9.4 8.2 11.5 1.9 2.2 5.2 5 7.2 6.4 2 1.4 3.9 3.6 4.2 5 0.3 1.4 0.4 2.6 0.3 2.7-0.2 0.2-3.5 0-14.3-0.9l-2.5-5.7c-1.4-3.1-4.5-8.7-7-12.6-2.6-3.8-7.7-9.8-11.6-13.3-3.8-3.4-9.6-7.8-12.9-9.7-3.3-1.9-9.2-5.1-13-7.1-3.8-2-8.5-4.9-10.3-6.3-1.8-1.4-4-3.8-4.8-5.3-1.2-2.3-1.2-3.5-0.1-6.8 1-3.2 2-4.3 5.2-5.7 3.6-1.6 5-1.6 15-0.4 6.1 0.7 12.9 1.5 19.5 2.1v-36l-17.7-0.5c-16.3-0.5-18.6-0.3-26.8 1.8-4.9 1.3-12.6 4.2-17 6.5-4.4 2.3-9.2 5.2-10.6 6.4-1.4 1.3-3.4 3.9-4.4 5.8-1 1.9-2.6 6-3.7 9-1.5 4.3-1.9 8.3-1.9 18 0.1 12.3 0.1 12.6 3.5 19 1.9 3.6 5.2 8.1 7.3 10.1 2.1 2 6.1 4.8 8.8 6.2 2.8 1.4 10.2 4.6 16.5 7 6.3 2.4 13.3 5.3 15.5 6.5 2.2 1.1 5.7 3.8 7.8 5.9 2.2 2.3 4.1 5.4 4.7 7.8 0.5 2.2 1 6.3 1 9 0 2.8-0.8 6.8-1.8 9-1.1 2.3-3.3 4.9-5.3 6.1-1.9 1.2-5.9 2.7-8.9 3.4-3.6 0.8-9.9 1-18.5 0.6-7.2-0.3-15-0.8-22-1.8l3 41.9 9 0.7c4.9 0.3 12.2 0.6 16 0.6 3.8 0 9.9-0.5 13.5-1.1 3.6-0.6 11.7-3.2 18-5.8 10-4 12.3-5.4 18.5-11.2 3.8-3.6 8.3-8.6 13-15.2l0.7 4.4c0.3 2.4 0.7 6.9 0.7 9.9 0.1 5.2-0.1 5.7-4.1 9.6-2.4 2.2-6.1 5.4-8.3 7.1-2.2 1.7-8.1 5-13 7.3-6.1 2.8-12.9 4.9-21 6.6q-12 2.4-22 2.4c-5.5 0-12.7-0.5-16-1-3.3-0.6-8.7-1.8-18-4.3l-1.8-30.1c-1-16.6-1.7-31.3-1.7-35.6l8.8 0.5c4.8 0.2 16.4 0.8 25.7 1.2 15 0.6 17.3 0.5 19.8-1 2.1-1.3 2.7-2.5 2.7-5.2 0-2.4-0.9-4.5-2.8-6.7-2.3-2.6-5.6-4.2-15.3-7.7-6.8-2.4-15.3-5.8-18.8-7.5-3.6-1.7-9.2-5.6-12.6-8.6-3.4-3-7.6-8.2-9.5-11.5-1.9-3.3-4.5-9.1-5.7-13-1.3-3.8-2.3-9.2-2.2-12 0-2.7 0.6-9.5 1.3-15 0.8-5.5 1.9-11.6 2.6-13.5 0.8-1.9 2.5-5.1 3.9-7 1.3-1.9 5.2-6.3 8.5-9.8 4.3-4.5 8.4-7.5 14.1-10.4 4.4-2.2 10.7-4.9 14-6 3.3-1.1 9.2-2.4 13-2.8 3.8-0.5 14.1-0.7 22.8-0.4zm118 0c8.6 0.2 18.9 1 29.7 2.9v63.5h-2.2c-1.3 0-6.8-0.7-12.3-1.5-5.5-0.8-10.1-1.4-10.3-1.2-0.1 0.1 4.4 3.3 10 7.1 5.7 3.8 12.7 9.2 20.9 17.1l-0.1 7.5c0 4.1-0.3 9.1-1.3 14.5l-4.7-7c-3-4.6-7.6-9.4-13.1-14-4.6-3.8-10.9-8.5-13.9-10.3-3-1.9-8.2-4.8-11.5-6.4-3.3-1.7-7.5-4.3-9.3-5.7-1.8-1.4-4-3.8-4.8-5.3-1.2-2.3-1.2-3.5-0.1-6.8 1-3.2 2-4.3 5.2-5.7 3.6-1.6 5-1.6 15-0.4 6.1 0.7 12.7 1.5 18.5 2.1v-36l-17.2-0.5c-15.8-0.5-18.1-0.3-26.3 1.8-4.9 1.3-12.6 4.2-17 6.5-4.4 2.3-9.2 5.2-10.6 6.4-1.4 1.3-3.4 3.9-4.4 5.8-1 1.9-2.6 6-3.7 9-1.5 4.3-1.9 8.3-1.9 18 0.1 12.3 0.1 12.6 3.5 19 1.9 3.6 5.2 8.1 7.3 10.1 2.1 2 6.1 4.8 8.8 6.2 2.8 1.4 10.2 4.6 16.5 7 6.3 2.4 13.3 5.3 15.5 6.5 2.2 1.1 5.7 3.8 7.8 5.9 2.2 2.3 4.1 5.4 4.7 7.8 0.5 2.2 1 6.3 1 9 0 2.8-0.8 6.8-1.8 9-1.1 2.3-3.3 4.9-5.3 6.1-1.9 1.2-5.9 2.7-8.9 3.4-3.5 0.8-10.1 1-18.5 0.6-7.2-0.3-15-0.8-22-1.8l3 41.9 9 0.7c4.9 0.3 12.2 0.6 16 0.6 3.8 0 9.9-0.5 13.5-1.1 3.6-0.6 11.4-3.1 17.5-5.5 9-3.6 12.2-5.4 17.4-10.1 3.6-3.2 8.1-7.8 13.6-14.9l-0.3 10.6c-0.2 6-0.9 11.1-1.5 11.9-0.7 0.8-3.9 3.4-7.2 6-3.3 2.5-10.1 6.3-15 8.4-4.9 2.2-14.1 5-20.2 6.3-7.8 1.7-14.5 2.4-21.5 2.4-5.7 0-13.2-0.5-16.8-1-3.6-0.6-9-1.8-17.5-4.2l-1.8-30.1c-1-16.6-1.7-31.5-1.7-36.2l8.7 0.8c4.9 0.4 16.5 1 25.8 1.4 11.9 0.4 17.7 0.2 19.3-0.6 1.8-0.9 2.2-1.9 2.2-5.8 0-3.9-0.5-5.3-2.7-7.5-1.6-1.6-5.5-3.7-8.8-4.7-3.3-1.1-8.9-3.1-12.5-4.4-3.6-1.4-9.2-3.8-12.5-5.3-3.2-1.6-8.7-5.4-12-8.4-3.4-3-7.7-8.2-9.5-11.5-1.9-3.3-4.5-9.1-5.7-13-1.3-3.8-2.3-9.2-2.2-12 0-2.7 0.6-9.5 1.3-15 0.8-5.5 1.9-11.6 2.6-13.5 0.8-1.9 2.5-5.1 3.9-7 1.3-1.9 5.2-6.3 8.5-9.8 4.3-4.5 8.4-7.6 14.1-10.4 4.4-2.3 10.5-5 13.5-6.1 3-1.1 8.9-2.3 13-2.8 4.1-0.4 14.6-0.6 23.3-0.3zm-2094.9 3.4h26.3c22.5 0 26.4 0.2 26.8 1.5 0.3 0.8 0.5 3.8 0.5 11.5h-40.5l-3 86.9c-1.6 47.8-2.8 87.2-2.5 87.6 0.3 0.3 10 0.3 42.5-1l3.1-68c1.8-37.4 3.4-69.1 3.5-70.5 0.2-1.4 2.4 19.6 9.1 95.5l-2.7 56-34.2 2c-18.8 1.1-34.5 1.6-35 1.2-0.4-0.5 0.8-46.3 2.7-101.8zm1289 0h55.5l0.1 4.3c0 2.3 0.3 5.2 1.4 8.7h-44l-3 86.9c-1.6 47.8-2.7 87.3-2.5 87.6 0.3 0.4 10 0.3 42.5-1l3.6-76c2-43.3 3.9-74 4.2-71.5 0.4 2.5 2.3 28.4 4.2 57.5 3.3 51.7 3.4 53.6 1 103l-34.6 2c-19.1 1.1-35.1 1.6-35.5 1.2-0.5-0.5 0.9-46.3 3.1-101.8zm858 0h72.6v4.5c0 3.5-0.4 4.6-1.8 5-0.9 0.2-4.8 1.1-8.5 2-4.9 1.1-12.4 1.5-49.2 1.5l-3 87c-1.7 47.8-2.8 87.2-2.5 87.5 0.2 0.4 9.9 0.3 42.5-1l2.5-54.5c1.5-31.5 2.9-52.6 3.3-50 0.3 2.5 1.5 27.5 2.6 55.5 1.2 28.1 2.3 53.5 3.1 62l-33.4 2c-18.4 1.1-33.9 1.7-34.3 1.2-0.5-0.4 0.7-46.2 2.6-101.7zm-2358.4 2.1c4.7-0.1 11.2 0.3 14.5 0.9 3.3 0.6 6.6 1.4 7.3 1.8 1 0.5 1.5 7.4 2.2 29.2 0.5 15.6 1.2 35 2.1 57.5l-15.6-15.7-8.5-0.8c-4.7-0.5-9.8-0.5-11.4-0.2-1.6 0.4-4.3 2.1-6 4-1.7 1.8-3.6 5.1-4.3 7.5-0.7 2.3-1.3 7.9-1.3 12.4 0 4.5 0.5 9.3 1.2 10.5 0.6 1.2 1.6 2.6 2.2 3 0.6 0.4 3.5 0.7 6.4 0.7 2.9 0.1 8.4-1 12.5-2.4 4-1.3 11-3.3 15.7-4.5 4.7-1.1 8.6-2 8.7-1.8 0.1 0.1 0.5 6.8 1.3 29.3l-1.5-7.3c-1.2-6.1-1.8-7.2-3.5-7.2-1.1 0-7.7 1.8-14.7 4.1-11.4 3.7-13.6 4.1-19.8 3.6-4.6-0.3-8.6-1.3-11.7-2.8-4.1-2.1-5.1-3.2-6.7-7.4-1.1-2.8-2.4-6.6-3.1-8.5-0.8-2.6-0.8-6.6 0.1-15.5 1-10.2 1.7-12.9 4.2-17.5 1.7-3.2 4.9-7 7.6-9.1 3.7-2.9 6.1-3.8 12.1-4.8 6.2-1 9-0.9 15.5 0.3 4.4 0.8 9.4 1.7 14 2.7l1.8-19.8c1-10.9 1.7-21 1.8-22.3 0-2.3-0.7-2.7-7.8-4.4-6.5-1.6-10.1-1.8-22.3-1.3-13.1 0.5-15.5 0.9-24.5 4-5.5 1.9-11.8 4.3-14 5.3-2.2 1-6.3 3.5-9 5.5-2.7 2-7.7 6.7-11 10.4-3.3 3.8-7 9.1-8.4 11.9-1.3 2.8-3.1 8.2-4.2 12.1-1 3.8-2.3 11.5-3 17-1 8-1 12.4 0 22.5 0.8 6.8 2.3 16.3 3.6 21 1.2 4.6 3.4 10.8 4.9 13.7 1.4 2.9 4.3 7.6 6.3 10.5 2 2.9 5.3 7 7.2 9.1 2 2.1 5.9 5 8.6 6.4 2.8 1.4 8.2 3.6 12 5 6.7 2.4 7.8 2.5 23.5 2 13.9-0.4 17.9-0.9 25-3.1 4.7-1.4 10.7-3.4 18-6.6l0.1 15.5-6.3 2.2c-3.5 1.2-10.6 3-15.8 4-6.5 1.2-14.6 1.7-26 1.7-16.5 0-16.5 0-24.5-3.3-4.4-1.9-10.5-4.6-13.5-6.2-3-1.5-7.4-4.7-9.7-7.1-2.3-2.4-6.8-8.4-10-13.3-3.2-5-7.9-14.2-10.5-20.5-3.9-9.7-4.8-13.6-6.2-24.5-0.9-7.2-1.6-16.6-1.6-21 0-5.4 1-12.2 2.9-20.5 1.6-7.1 4.4-15.6 6.3-19.5 1.9-3.9 5.4-10 7.8-13.5 2.7-4.1 7.8-9.4 13.4-14.1 5-4.2 11.1-8.7 13.6-9.9 2.5-1.3 8.3-3.7 13-5.3 5.2-1.8 12.8-3.4 19.5-4.2 6.1-0.7 14.8-1.3 19.5-1.4zm864.5 9.4l11 15.7c6.1 8.7 11.1 15.5 11.3 15 0.2-0.4-0.3-4.3-2.4-16.7l33.6-2.8c18.4-1.5 33.6-2.6 33.8-2.5 0.1 0.1-0.5 1.8-1.5 3.8-0.9 1.9-2.7 6.4-3.9 10-1.6 4.6-2.3 5.7-2.3 3.7-0.1-2.4-0.5-2.7-3.3-2.8-1.8 0-11.6 0.6-40.3 2.4l3.3 28.6c1.8 15.7 3.1 29.4 3 30.4-0.2 1.1-9.9-12.4-24.5-34.2-13.4-19.9-24.8-36.1-25.5-36.1-0.7-0.1-11.4 2.1-46.3 9.4l3.4 75.5c1.9 41.6 3.6 75.8 3.8 76.1 0.3 0.2 10.1-0.4 43.3-3.5v-7c0-3.9-0.7-19-1.5-33.5-0.8-14.6-1.4-29.4-1.5-32.8 0-3.8 0.4-6 1-5.7 0.6 0.2 9.2 11.4 19.2 24.7 10 13.3 21.1 27.9 24.6 32.3 3.5 4.4 7.2 9.2 8.1 10.7 0.9 1.6 2.4 3 3.4 3.3 0.9 0.2 10.2-1.8 20.5-4.5 10.3-2.8 19.1-5 19.5-5 0.4 0 0.7 3 0.7 13.5l-19.7 5.2c-10.9 2.9-20.7 5.2-21.8 5.3-1.1 0-3.7-1.2-5.7-2.5-2.1-1.4-5.3-4.2-7.2-6.3-1.8-2.1-8.2-10.3-14.1-18.2-5.9-8-11.2-15-11.7-15.5-0.6-0.7-0.7 7.6 0.5 48l-35.1 3.5c-19.3 1.9-35.2 3.2-35.4 3-0.3-0.3-2.2-40.4-8.3-177.5l29.5-6.7c16.3-3.7 31.5-6.6 38.5-6.3zm1629.5-0.5l10.8 16.1c5.9 8.8 10.8 15.7 11 15.2 0.2-0.5-0.3-4.4-2.4-16.8l33.6-2.8c18.4-1.5 34.5-2.8 35.8-2.8 1.7 0.1 2.2 0.6 2.2 2.6 0 1.3-0.4 3.2-1 4.2-0.5 1-2.6 6-4.6 11.3-2 5.2-4 11-4.3 13-0.6 2.7-0.9 1.3-2.1-16l-3.2-0.1c-1.8 0-11.6 0.6-40.3 2.4l3.3 28.6c1.8 15.7 3.1 29.4 3 30.4-0.2 1.1-9.9-12.4-24.5-34.2-13.4-19.9-24.8-36.1-25.5-36.1-0.7-0.1-11.4 2.1-46.3 9.4l3.4 75.5c1.9 41.6 3.6 75.8 3.8 76.1 0.3 0.2 10.1-0.4 43.3-3.5v-7c0-3.9-0.7-19-1.5-33.5-0.8-14.6-1.4-29.4-1.5-32.8 0-3.8 0.4-6 1-5.7 0.6 0.2 9.2 11.4 19.2 24.7 10 13.3 21.1 27.9 24.6 32.3 3.5 4.4 7.2 9.2 8.1 10.8 0.9 1.5 2.5 3 3.6 3.3 1.1 0.3 10.7-1.9 40.6-10.1l-0.1-3c0-1.7-0.5-8-1.1-14-0.6-6.1-0.9-11.9-0.7-12.9 0.2-1.1 1.4 0.8 3.3 5 1.6 3.8 5.1 9.8 7.7 13.4 4.5 6 4.9 7 6.1 21.5l-27.4 7.2c-15.1 4-28.3 7.2-29.4 7.2-1.1 0.1-3.8-1.1-6-2.6-2.2-1.5-4.2-3-4.5-3.4-0.3-0.4-6.8-9-14.5-19-12.8-16.7-14-18-14.3-15.4-0.2 1.6 0.1 10.5 0.7 19.7 0.6 9.2 1.1 18.9 1.1 26.3l-35.4 3.5c-19.5 1.9-35.6 3.2-35.8 3-0.3-0.3-2.2-40.4-8.3-177.5l29.5-6.7c16.2-3.6 31.7-6.7 39-6.8zm-1756.1 39.9c0.9 0 11.7 0.8 46.6 3.5l-0.3 7.3c-0.1 5.7-0.5 7.3-1.7 7.3-1.3 0-1.6 4.2-2.7 59.5l-7.7-0.8c-4.2-0.4-11.3-1-24.1-2.2v9l39.5 2 0.6 14-18.8-0.8c-10.3-0.4-22.5-0.7-35.3-0.7v-38.5l8.3 0.7c4.5 0.4 11.9 1.1 24.7 2.3v-37l-32.5-2.8 0.9-11.4c0.7-9.3 1.2-11.3 2.5-11.4zm1313.2 0.1h3.5c1.9 0 11.4 0.7 21.2 1.5 9.7 0.9 17.9 1.8 18.2 1.9 0.3 0.2 0.9 5.9 1.3 12.7 0.4 6.8 0.4 23.3-0.8 61.1l-7.5-0.6c-4.1-0.3-11.2-0.9-24-2.1v9.5l19.3 0.5c10.6 0.4 19.7 0.9 20.3 1.3 0.7 0.4 1.3 3.5 1.9 13.5l-20-0.7c-11-0.3-23.5-0.6-35.5-0.6v-38.5l8.3 0.7c4.5 0.4 11.9 1.1 24.7 2.3v-37l-31.5-2.8zm-69.6 33l0.2 12.2c0.3 11.6 0.2 12.4-2 14.6-1.2 1.3-4 3.5-10.2 7.5l12.6 32.2-0.6 35.8-29-74.8 6-3c3.3-1.6 8.5-5.3 11.5-8.1 3-2.8 6.8-7.6 8.5-10.8zm-1316 2l0.3 11.3c0.2 11.1 0.2 11.3-2.5 14-1.6 1.6-4.2 3.8-8.8 7l11.5 29.2-0.5 36.3-28-72.3 6-2.9c3.3-1.7 8.5-5.3 11.5-8.1 3-2.9 6.6-7.3 8-9.8zm283 0c0.5 0 2.6 3.3 4.8 7.2 2.2 4 5.3 8.6 6.8 10.3 1.6 1.6 3.4 4.8 3.9 7 0.5 2.2 1 4.8 1 5.7 0 1.5-1 1.8-6.5 1.8-6 0-6.5 0.2-6.8 2.2-0.1 1.3-0.8-4.9-1.6-13.7-0.7-8.8-1.5-17-1.8-18.3-0.3-1.2-0.2-2.2 0.2-2.2z"/><path fill-rule="evenodd" class="e" d="m1736.5 9.1c4.4 0 14.3 0.6 22 1.4 7.8 0.9 17.7 2.7 22.5 4.2 4.7 1.4 11.5 4 22 9.3l0.5 8.8c0.3 4.8 0.3 8.8 0 8.9-0.3 0.2-2.2-1.2-4.3-3.1-2-1.9-6.2-4.6-9.2-6-3-1.4-10.9-3.9-17.5-5.7-8.8-2.3-15-3.3-23.5-3.7-6.3-0.2-17.6 0.1-25 0.8-7.4 0.6-18 2.3-23.5 3.6-5.5 1.4-12.5 3.6-21 7.5l7.4 105.2c4.1 57.8 7.6 105.4 7.8 105.7 0.3 0.3 14.1-0.9 61.2-5.5l0.6-12 2.7 7.2c2.2 5.7 3.2 7.3 4.8 7.3 1.1 0 14.3-1.6 29.2-3.6 15-1.9 27.5-3.2 27.8-2.9 0.3 0.4 0.6 3.3 0.7 6.6 0.3 4.9 0 6-1.5 6.3-0.9 0.2-16 2.4-33.5 4.8-31.7 4.3-31.9 4.3-33.3 2.3-1.5-2-1.6-2-36.4 1.5-19.2 1.9-35 3.3-35.3 3-0.2-0.3-3.9-53-16.2-233.9l13.5-6.4c7.6-3.6 16.4-6.9 20-7.7 3.6-0.7 11.7-1.8 18-2.5 6.3-0.7 15.1-1.3 19.5-1.4zm1051.8 0c10.8-0.1 16.4 0.4 26.5 2.4 7 1.3 16.5 3.8 21.2 5.3 4.7 1.6 11.4 4.4 15 6.2 3.6 1.8 11.8 6.5 18.3 10.4 6.5 3.9 11.8 7.3 11.8 7.6 0 0.3-4.1 10.4-9.1 22.5-5 12.1-9 22.1-9 22.3 0 0.1 1.2 0.3 2.7 0.5 2.6 0.2 2.8 0.6 4.5 9.7 1 5.2 2.7 16.3 3.8 24.5 1.3 9.5 2 20.5 2 30 0 8.3-0.6 20.6-1.4 27.5-0.8 6.9-2.2 15.4-3.1 19-0.9 3.6-3.3 10.7-9 25.3l-6 3c-3.3 1.6-10.1 4.5-15 6.4-4.9 1.9-13.9 4.3-20 5.4-6.9 1.2-15.7 1.9-23.7 1.9-12.1 0-13.6-0.2-26.5-4.1-8-2.4-18-6.2-23.8-9.2-5.5-2.8-14.1-8.3-19-12.3-4.9-3.9-11.1-9.4-13.6-12-2.5-2.7-7.2-8.7-10.5-13.4-3.2-4.7-7.6-12.3-9.8-17-2.1-4.7-4.7-11-5.8-14-1.1-3-3-11.8-4.3-19.5-1.5-8.3-2.5-18.5-2.6-25 0-6.2 0.7-15.4 1.6-21 0.9-5.5 3.5-14.9 5.8-21 3.3-8.9 5.6-13 11.7-21.1 6.1-8.1 9.5-11.6 18-18 5.7-4.3 12.9-9.2 16-10.8 3-1.6 8.4-3.8 12-4.9 3.6-1.1 11.2-3 17-4.3 7.7-1.6 14.1-2.2 24.3-2.3zm-2012.3 3.9h3.2c1.8-0.1 35.7 1.6 75.3 3.6 39.6 2.1 72.1 3.8 72.3 3.8 0.2 0.1 0.1 4-0.8 17.6l-5.3 1.1c-2.8 0.6-6 1.3-7 1.5-1.4 0.3-1.7-0.3-1.7-7.1l-57.7-3.3c-31.8-1.8-59.3-3.3-64.3-3.2v206h111v13h-125zm1316 0h2.7c1.6-0.1 35.4 1.6 147.8 7.4l-0.3 2.8c-0.2 2.2-1.1 3.3-4.5 4.9-2.3 1.2-5.7 3.5-7.5 5.3-2.1 2-3.2 2.6-3.2 1.6 0-1.3-8.5-2-57.7-4.8-31.8-1.8-59.3-3.3-64.3-3.2v206h113v8.5l16.5 4.3-142.5 0.2zm-1783.6 5l83.1 0.2-7.5 1.9c-4.1 1-8.2 1.8-9 1.9-1.2 0-1.4 1.1-1 10h-52.5l-3.5 100.9c-1.9 55.5-3.1 101.3-2.7 101.8 0.5 0.4 16.2-0.1 69.2-3.2l1.2-26.5c0.7-14.6 1.4-26.9 1.6-27.5 0.2-0.6 1.4 11.5 5.2 54.5h2.7c2.8 0 2.8 0 2.3 12.5l-47.7 3c-26.2 1.7-48 2.6-48.5 2.2-0.4-0.5 1-52.8 3.2-116.3zm1429 19.1c10.8-0.1 18 0.4 25.5 1.8 7.2 1.3 13.2 3.1 19 5.9 6.4 2.9 10.5 5.8 24.2 18.7l4.3 48-3.7 7.5c-2.5 5.3-5.3 9.1-9.4 13-3.2 3.1-8.6 6.9-17.9 11.5l15.3 39.3c8.4 21.6 15.2 39.6 15.2 40 0 0.4-8.2 1.7-18.2 3-10 1.2-18.9 2.3-19.8 2.3-1 0-6.4-11.3-17-35.7-11.7-27.1-15.5-35-15.8-32.8-0.1 1.6 0.4 15.4 1.3 30.7 0.8 15.2 1.5 30.1 1.6 38.2l-17.5 1.5c-9.6 0.8-17.6 1.3-17.8 1-0.3-0.3-3.3-42.7-13.3-188l3.5-1.1c2-0.7 8.5-2 14.5-2.9 6.5-1.1 17.2-1.8 26-1.9zm-933.5 4.9h5.3c2.9 0 22.6 1 43.7 2.1 21.2 1.2 38.6 2.2 38.7 2.3 0.1 0.1 0.4 9 1.3 39.6h-3.7c-2.1 0-11-0.7-19.8-1.5-8.8-0.8-17.5-1.5-23-1.5l-2 22.8 32.6 2.7v37l-8.3-0.7c-4.5-0.4-12-1.1-24.8-2.3v38.5h8.3c4.5 0 16.7 0.4 45.6 1.5l0.6 6c0.2 3.3 0.7 11.5 1.5 30.5h-96zm1315 0h3.8c2.1 0 23 1 89.2 4.5v3.8c0 2-0.9 6.1-2.1 9-1.2 2.9-2.7 7.9-3.5 11.2-0.7 3.3-1.3 8.2-1.3 10.8-0.1 3.8-0.4 4.7-1.8 4.7-1 0-9.2-0.7-18.3-1.5-9-0.8-18.1-1.5-24-1.5l-0.5 22.7 31.6 2.8v37l-8.3-0.7c-4.5-0.4-12-1.1-24.8-2.3v38l55.5 1.7 0.8 12.2c0.5 6.7 1.1 14.9 2.2 24.6h-98.5zm-1784.5 3h41l1.4 16.3c1.2 15.1 1.1 21-5.4 157.2l-21 0.8c-11.5 0.5-21.2 0.6-21.5 0.2-0.2-0.3 0.9-39.8 2.5-87.6zm558.2 56c0.8 0 1.4 0.4 1.5 0.8 0 0.4 0.8 15.6 3.4 66.7l-39.5-2v-9l8 0.8c4.4 0.4 11.5 1.1 23.7 2.2l0.8-29.7c0.6-24.4 1-29.8 2.1-29.8zm1313.8 3.5l2 6.6c1.1 3.6 4 9.7 6.3 13.7 4.2 7.1 4.3 7.5 4.3 25.2h-6.5l0.5 9.5c0.4 8.1 0.3 9.4-1 9.1-0.8-0.3-10-0.8-39-2.1v-9l7.7 0.8c4.3 0.4 11.5 1 24.3 2.2v-9c0-4.9 0.3-17.5 0.7-28zm-393.8 31.8c0.1 0.1 0.5 4.7 0.9 10.2 0.3 5.5 1.4 19 2.5 30 1 11 1.9 21.8 1.9 24 0 3.3-2-1-21.5-50l4.6-3.6c2.5-2 6-5.2 7.9-7.2 1.9-2 3.5-3.5 3.7-3.4z"/><path fill-rule="evenodd" class="f" d="m548.5 8.2c12.4-0.2 15.4 0.1 26 2.7 6.6 1.6 16.5 4.7 22 6.8 5.5 2.1 13.4 6 17.5 8.6 4.1 2.5 10.5 7.5 20.8 17.2l1.2 23-3.2-4c-1.8-2.2-6.9-7.7-11.3-12.3-4.4-4.6-10.7-10.1-14-12.2-3.3-2.2-10-5.6-15-7.6-5-2-14.1-4.7-20.3-6-8.7-1.9-14.3-2.4-24.9-2.4-8.6 0-16.8 0.6-21.8 1.6-4.4 0.8-11.6 2.7-24 6.7l18 208.4 6.8 1.1c3.7 0.7 11.8 1.2 17.9 1.2 9.3 0 13.3-0.5 22.3-2.9 6-1.6 16.2-5.1 22.5-7.8 9.4-4 13.3-6.3 21.5-13 5.5-4.4 13.4-11.6 17.6-15.9 4.1-4.4 9.3-11 15.4-21.6l0.7 4.9c0.3 2.6 0.6 8 0.7 18.8l-6.7 7.4c-3.7 4.1-11.9 11.6-18.2 16.7-9.9 8-13.3 10.1-24.5 14.9-8.8 3.8-17.2 6.6-26 8.6-10.6 2.4-15.3 2.9-25.5 2.9-6.9 0-18.1-0.7-37.5-3.3l-20.7-229.3 10.3-3.6c5.7-2 14.9-4.8 20.4-6.2 5.5-1.4 11.8-2.7 14-2.9 2.2-0.2 10.3-0.4 18-0.5zm1316-0.1c12.4-0.1 15.4 0.2 26 2.8 6.6 1.7 16.5 4.8 22 7.1 5.5 2.2 13.2 6.1 17 8.5 3.8 2.5 10 7.3 20.3 17l1.2 23-3.2-4c-1.8-2.2-6.9-7.7-11.3-12.3-4.4-4.6-10.7-10.1-14-12.2-3.3-2.2-10-5.6-15-7.6-5-2-14.1-4.7-20.3-6-8.7-1.9-14.3-2.4-24.9-2.4-8.6 0-16.8 0.6-21.8 1.6-4.4 0.8-11.6 2.7-24 6.7l18 208.4 6.7 1.1c3.8 0.7 11.8 1.2 17.8 1.2 8.8 0 13.3-0.6 22.8-2.9 6.4-1.7 16.7-5.2 22.7-7.8 8.3-3.6 13.7-7 21.9-13.3 6.1-4.7 13.9-11.9 17.6-16 3.6-4.1 8.3-10.6 14.5-21.2l0.7 4.9c0.3 2.6 0.6 8 0.7 18.8l-6.7 7.4c-3.7 4.1-11.9 11.6-18.2 16.7-9.9 8-13.3 10.1-24.5 14.9-8.8 3.8-17.2 6.6-26 8.6-10.4 2.4-15.4 2.9-25 2.9-6.6 0-17.6-0.7-37-3.3l-20-229.3 9.5-3.6c5.2-2 13.3-4.7 18-5.9 4.7-1.2 11.2-2.5 14.5-2.9 3.3-0.4 12.3-0.8 20-0.9zm-721.5 6.3c9.3 0.2 18.7 1.2 47 6.1v84.5l5.8 7.3c3.1 3.9 7.5 10.4 9.6 14.2 2.2 3.9 5.2 10.8 6.8 15.5 2.5 7.7 2.8 9.8 2.8 22 0 11.8-0.3 14.4-2.5 21-1.4 4.1-5 11.8-8 17-3.9 6.9-7.5 11.6-13.2 17.1-4.3 4.2-10.1 9.2-12.8 11.2-2.8 1.9-10 5.9-16 8.7-7.6 3.6-14.9 6.1-23.5 8.1-9.8 2.3-14.9 2.9-23.8 2.9-6.1 0-14.5-0.7-18.4-1.5-4-0.8-12.3-2.7-29.3-6.8l-2.8-43.6c-1.5-24-2.8-44.6-2.7-48.1l29.5 1.1-5.5-3.3c-3.1-1.8-7.1-4.4-9-5.8-1.9-1.4-4.7-3.8-6.2-5.5-1.6-1.6-4.9-6.6-7.5-11-2.6-4.4-6-11.8-7.5-16.5-2.4-7.3-2.8-10.2-2.8-20.5 0-10.2 0.4-13.2 2.6-20 1.4-4.4 4.1-11.1 6.1-15 2.3-4.7 6-9.6 11.1-14.8 6.4-6.6 9.4-8.7 18.2-13.1 5.8-2.9 13.7-6.1 17.5-7.1 3.8-1 10.2-2.4 14-3.1 4.1-0.7 12.5-1.1 20.5-1zm1270 0c8 0.2 19.3 1.3 42 5.1v9c0 5-0.7 26.3-1.5 47.5-0.8 21.2-1.4 39-1.4 39.5 0 0.6-2.4-1.3-5.3-4.1-2.9-2.8-9.9-8.2-15.6-12-5.6-3.8-10.1-7-10-7.1 0.2-0.2 4.8 0.4 10.3 1.2 5.5 0.8 11 1.5 14.5 1.5v-64l-8.3-1.2c-4.5-0.7-17.2-1.2-28.2-1.2-18.2 0-20.6 0.2-27 2.3-3.8 1.3-11 4.3-15.8 6.5-7.2 3.4-9.8 5.4-14.5 10.6-3.2 3.6-7 8.1-8.3 10-1.4 1.9-3.1 5.1-3.9 7-0.7 1.9-1.8 8-2.6 13.5-0.7 5.5-1.3 12.3-1.3 15-0.1 2.8 0.9 8.2 2.2 12 1.2 3.9 3.8 9.7 5.7 13 1.8 3.3 6.1 8.5 9.5 11.5 3.3 3 8.8 6.8 12 8.4 3.3 1.5 8.9 3.9 12.5 5.3 3.6 1.3 9.2 3.3 12.5 4.4 3.3 1 7.2 3.1 8.8 4.7 2.2 2.2 2.7 3.6 2.7 7.5 0 3.9-0.4 4.9-2.3 5.8-1.5 0.8-7.3 1-19.2 0.6-9.3-0.4-20.9-1-34.5-2.2v3c0 1.7 0.7 16.6 3.5 63.3l5.5 1.6c3 0.8 8.4 2 12 2.6 3.6 0.5 11 1 16.5 1 6.2 0 14-0.8 20.5-2.1 6.1-1.2 14.9-3.9 21-6.5 7.5-3.1 12.5-6.1 24.4-15.9l-0.8 9c-0.6 7.5-1.1 9.3-2.9 10.9-1.2 1-7.1 4.3-13.2 7.3-8.4 4.2-14 6.2-23.5 8.4-9.9 2.3-14.9 2.9-24.3 2.9-6.4 0-15-0.7-18.9-1.5-4-0.8-12.2-2.7-29.3-6.8l-2.8-43.6c-1.5-24-2.8-44.6-2.7-48.1l30.5 1-6-3.1c-3.3-1.8-7.6-4.4-9.5-5.8-1.9-1.4-4.8-4.1-6.5-6-1.6-1.9-5.1-6.8-7.6-11-3-5.1-5.2-10.5-6.7-16.3-1.6-6.3-2.2-12-2.2-20-0.1-6.2 0.4-13.8 1-16.8 0.6-3 2.1-8 3.2-11 1.2-3 3.8-8 5.9-11 2-3 7-8.7 11.1-12.6 5.5-5.5 9.7-8.4 17.3-12.2 5.5-2.8 12.9-5.8 16.5-6.8 3.6-0.9 9.9-2.3 14-3 4.4-0.8 13-1.2 21-1zm-1864 21.7c10-0.1 17 0.4 22.5 1.5 5.5 1.1 11.8 3.5 20 7.7 9.9 4.9 13.4 7.3 19.9 13.6 4.3 4.2 10.1 11 12.8 15.1 2.7 4.1 6.3 11.1 8 15.5 1.7 4.4 4.1 12.3 5.4 17.5 2 7.5 2.5 12.5 2.7 24 0.1 11.1-0.3 16.5-1.7 23-1 4.7-3.2 11.2-4.9 14.5-1.6 3.3-5.7 10.1-9 15-3.3 5-9 12-12.6 15.6-3.6 3.6-10.4 9.1-15.1 12.3-6.7 4.4-11.2 6.5-21 9.7-6.9 2.2-15.2 4.4-18.5 4.9-3.3 0.6-10.3 1-25 1l-17-187.7 9.5-1.5c5.2-0.8 16-1.6 24-1.7zm1315 0c10-0.1 17 0.4 22.5 1.5 5.5 1.1 11.8 3.5 20 7.7 9.9 4.9 13.4 7.3 19.9 13.6 4.3 4.2 10.1 11 12.8 15.1 2.7 4.1 7.1 13.1 14.7 32.5l2.5 39-2.7 9.8c-1.5 5.3-4.1 12.5-5.8 16-1.8 3.4-5.3 9.4-7.9 13.2-2.6 3.9-8.2 10.3-12.4 14.3-4.2 3.9-11.3 9.7-15.8 12.7-6.4 4.3-11.1 6.5-20.8 9.6-6.9 2.2-15.2 4.4-18.5 4.9-3.3 0.6-10.3 1-25 1l-16-187.7 9-1.5c5-0.9 15.5-1.6 23.5-1.7zm537.5 6c2.8 0 10.7 0.2 30.5 1.4v35.5l-3.7-0.4c-2.1-0.2-8.7-1-14.8-1.7-10-1.2-11.4-1.2-15 0.4-3.2 1.4-4.2 2.5-5.2 5.7-1.1 3.3-1.1 4.5 0.1 6.8 0.8 1.5 3 3.9 4.8 5.3 1.8 1.4 6 4 9.3 5.7 3.3 1.6 8.5 4.5 11.5 6.4 3 1.8 9.3 6.5 13.9 10.3 5.9 4.8 10 9.3 18.3 22l-0.7 25c-0.7 24.9-0.7 25-3.3 28.9-1.5 2.1-5.9 6.9-9.7 10.5-6.2 5.8-8.5 7.2-18.5 11.2-6.3 2.6-14.4 5.2-18 5.8-3.6 0.6-9.7 1.1-13.5 1.1-3.8 0-11.1-0.3-25-1.3l-3-41.9 4.5 0.7c2.5 0.3 10.3 0.8 17.5 1.1 8.4 0.4 15 0.2 18.5-0.6 3-0.7 7-2.2 8.9-3.4 2-1.2 4.2-3.8 5.3-6.1 1-2.2 1.8-6.2 1.8-9 0-2.7-0.5-6.8-1-9-0.6-2.4-2.5-5.5-4.7-7.8-2.1-2.1-5.6-4.8-7.8-5.9-2.2-1.2-9.2-4.1-15.5-6.5-6.3-2.4-13.8-5.6-16.5-7-2.8-1.4-6.7-4.2-8.8-6.2-2.1-2-5.4-6.5-7.3-10.1-3.4-6.4-3.4-6.7-3.5-19 0-9.7 0.4-13.7 1.9-18 1.1-3 2.7-7.1 3.7-9 1-1.9 3-4.5 4.4-5.8 1.4-1.2 6.2-4.1 10.6-6.4 4.4-2.3 11.8-5.2 16.5-6.4 4.7-1.2 10.8-2.2 13.5-2.3z"/><path fill-rule="evenodd" class="g" d="m2295 14.4c9.1 0.2 19 1.3 47 6.1v9.5c0.1 9-0.1 9.6-2.6 12-1.4 1.4-4.3 5-6.4 8-2 3-4 6.2-4.3 7-0.3 0.8-0.6-4.7-0.7-26l-8.3-1.2c-4.5-0.7-17-1.2-27.7-1.2-18.4 0-20 0.2-27.8 2.7-4.5 1.5-11.8 4.4-16.3 6.5-6.4 3-9.2 5.1-13.8 10.3-3.1 3.5-6.9 8-8.2 9.9-1.4 1.9-3.1 5.1-3.9 7-0.7 1.9-1.8 8-2.6 13.5-0.7 5.5-1.3 12.2-1.3 15-0.1 2.7 0.9 8.2 2.2 12 1.2 3.8 3.8 9.7 5.7 13 1.9 3.3 6.1 8.5 9.5 11.5 3.4 3 9 6.9 12.6 8.6 3.5 1.7 12 5.1 18.8 7.5 9.7 3.5 13 5.1 15.3 7.6 1.9 2.3 2.8 4.4 2.8 6.8 0 2.7-0.6 3.9-2.7 5.2-2.5 1.5-4.8 1.6-19.8 1-9.3-0.4-20.9-1-34.5-1.7v2.7c0 1.6 0.7 16.3 3.5 63l6 1.6c3.3 0.9 8.7 2.1 12 2.7 3.3 0.5 10.5 1 16 1q10 0 22-2.4c8.1-1.7 14.9-3.8 21-6.6 4.9-2.3 11.5-6.1 14.5-8.5 3-2.3 6.6-5.5 8-6.9 1.8-1.9 2.7-2.3 3.2-1.4 0.4 0.7 0.8 4.7 0.8 16.3l-6.3 4.2c-3.4 2.3-10.5 6.3-15.7 8.8-6.7 3.4-13.2 5.6-22 7.6-9.9 2.3-14.9 2.9-24.3 2.9-6.4 0-15-0.7-18.9-1.5-4-0.8-12.2-2.7-29.3-6.8l-2.8-43.6c-1.5-24-2.8-44.6-2.7-48.1l30.5 1.1-5.5-3.3c-3.1-1.8-7.1-4.4-9-5.8-1.9-1.4-4.8-4-6.5-5.9-1.7-1.9-5-6.8-7.5-11-2.5-4.2-5.7-11.4-7.3-16.1-2.3-7.2-2.7-10.3-2.8-20 0-6.3 0.5-14 1.1-17 0.6-3 2.1-8 3.2-11 1.2-3 3.8-8 5.9-11 2-3 7-8.7 11.1-12.6 5.5-5.5 9.7-8.4 17.3-12.2 5.5-2.8 12.9-5.8 16.5-6.8 3.6-0.9 9.9-2.3 14-3 4.4-0.8 13.1-1.2 21-1zm-698.6 3.6h88.1l-9.5 4.6c-8.4 4-9.5 4.8-9 9.4h-55.5l-4 100.9c-2.2 55.5-3.6 101.3-3.2 101.8 0.5 0.4 16.5-0.1 70.2-3.2l1-22.5c0.6-12.4 1.4-21.8 1.7-21 0.3 0.8 1.4 13.7 2.5 28.7 1 14.9 1.6 27.4 1.3 27.7-0.3 0.3-20.6 1.7-45.2 3.3-24.5 1.5-45 2.4-45.5 2-0.4-0.5 1-52.8 3.2-116.3zm-1489.5 3.2c7.5-0.1 16.4 0.3 26 1.8v7c0 6.2-0.2 7-1.7 6.5-1-0.2-4.2-0.9-7.3-1.5-3-0.5-8.6-1-12.5-1-3.8 0-12.6 0.7-19.5 1.5-8.2 0.9-15.4 2.3-21 4.3-4.6 1.6-10.5 4-13 5.2-2.4 1.3-8.5 5.8-13.5 9.9-5.7 4.7-10.8 10.1-13.5 14.1-2.4 3.6-5.9 9.7-7.8 13.5-1.9 4-4.6 12.5-6.3 19.5-1.9 8.3-2.9 15.2-2.9 20.5 0 4.4 0.8 13.9 1.6 21 1.4 11 2.4 14.8 6.3 24.5 2.5 6.3 7.2 15.6 10.4 20.5 3.2 5 7.8 11 10.1 13.4 2.3 2.3 6.6 5.5 9.6 7.1 3.1 1.5 9.1 4.3 13.5 6.1 8 3.3 8.2 3.4 24 3.4 11.4 0 19.1-0.5 26.5-1.9 5.8-1 12.9-2.7 15.8-3.7 2.9-1 5.5-1.8 5.8-1.6 0.3 0.1 0.8 3.1 1.7 13.2l-4.9 1.8c-2.7 0.9-9.4 2.6-14.9 3.8-5.5 1.1-16 2.3-23.5 2.6-8.8 0.4-15.7 0.2-20-0.6-3.5-0.6-10.1-2.4-14.5-3.8-4.4-1.5-11.2-4.5-15.1-6.7-3.9-2.3-9.9-6.8-13.4-10.1-3.5-3.3-9.3-10.5-12.9-16-5.1-7.7-7.7-13-11.2-23-3.9-10.8-4.9-15.4-6.2-27.5-0.9-8-1.7-18.5-1.7-23.5 0.1-6 1-13.4 2.9-22.5 1.9-8.7 4.3-16.5 6.8-22 2.1-4.7 6.2-12 9.1-16.2 2.9-4.3 7.4-9.8 10-12.2 2.6-2.4 7.7-6.3 11.2-8.6 3.6-2.3 8.8-5.4 11.5-6.8 2.8-1.3 9.5-4 15-5.9 5.5-2 13.6-4.1 18-4.8 4.4-0.7 14.1-1.3 21.5-1.3zm875 7.8l4.8 7.1c4.4 6.5 5 7 8.2 7 2-0.1 19.7-1.4 39.5-3.1 19.8-1.6 36.9-3 38-3 1.6 0 1 1-3.1 5.2-2.8 2.9-5.3 6.2-5.7 7.3-0.5 1.6-1.8 2.2-6.9 2.7-3.4 0.4-18.9 1.7-62.4 5.3l1.4 8c0.7 4.4 1.2 8.4 1 8.8-0.1 0.4-5.2-6.3-11.3-15-9.6-13.7-11.4-15.8-14-16.1-1.6-0.2-16.9 2.7-65 13.3l4 88.5c2.1 48.7 4.1 88.7 4.3 89 0.2 0.3 16.2-1.1 70.5-6.5l-0.7-24.5c-0.5-15.9-0.4-24.1 0.2-23.5 0.6 0.6 5.8 7.5 11.7 15.5 5.9 8 12.7 16.5 15 19 2.3 2.5 5.9 5.4 11.5 8.5l8.8-2.2c4.8-1.2 14.5-3.7 34.2-8.8l0.1 14-21 5.8c-11.6 3.1-21.7 5.7-22.6 5.7-0.8 0-2.9-0.7-4.7-1.6-1.8-0.9-5.7-3.5-8.8-5.8-3-2.2-6.2-5-7.2-6.1-1.6-1.9-1.7-1.6-1.8 17l-48.9 4.5c-26.9 2.5-49.1 4.3-49.3 4-0.2-0.3-2.6-46.2-10.3-203.5l36.5-8.1c29.2-6.5 38.3-8.2 54-8.4zm1301 13.1c2.5 0 10.8 0.2 32.5 1.2l-0.5 35.7-4.2-0.4c-2.3-0.2-9.2-1-15.3-1.7-9.9-1.2-11.3-1.2-15 0.4-3.2 1.4-4.2 2.5-5.2 5.7-1 3.3-1 4.5 0.2 6.8 0.8 1.5 2.9 3.9 4.7 5.3 1.8 1.5 6.5 4.3 10.3 6.3 3.9 2 9.7 5.2 13 7.1 3.3 1.9 9.1 6.3 13 9.8 3.8 3.4 8.5 8.7 10.6 11.7 2 3 5.1 8.3 6.8 11.8 1.7 3.4 3.1 6.7 3.1 7.2 0 0.6-1.3 1-3 1-2.9 0-3 0.2-3 4.5 0 2.5 0.5 11 2 33.5l-3.3 4.8c-1.9 2.6-6.5 7.6-10.3 11.2-6.1 5.7-8.5 7.1-18.4 11.1-6.3 2.6-14.4 5.2-18 5.8-3.5 0.6-9.6 1.1-13.5 1.1-3.8 0-11-0.3-25-1.2l-3-41.9 4.5 0.6c2.5 0.3 10.4 0.8 17.5 1.2 8.6 0.3 14.9 0.1 18.5-0.7 3.1-0.6 7.1-2.2 9-3.3 1.9-1.3 4.2-3.9 5.2-6.2 1-2.2 1.8-6.2 1.8-9 0-2.7-0.4-6.8-1-9-0.5-2.4-2.4-5.5-4.7-7.8-2.1-2.1-5.6-4.8-7.8-5.9-2.2-1.1-9.1-4-15.5-6.5-6.3-2.4-13.7-5.6-16.5-7-2.7-1.4-6.7-4.2-8.8-6.2-2.1-2-5.3-6.5-7.2-10.1-3.4-6.4-3.5-6.7-3.5-19 0-9.7 0.4-13.7 1.8-18 1.1-3 2.8-7.1 3.8-9 1-1.9 3-4.5 4.4-5.8 1.4-1.2 6.1-4.1 10.5-6.4 4.4-2.3 11.9-5.2 16.5-6.4 4.7-1.2 10.6-2.2 13-2.3zm-659.5 2.9h43l0.7 8.8c0.4 5.4-0.7 38.6-6.7 164.7l-21 0.8c-11.5 0.5-21.2 0.6-21.5 0.2-0.2-0.3 0.9-39.8 2.5-87.6zm-1515.9 3.2c7.5-0.1 13.3 0.4 18.2 1.6 6.7 1.6 7.3 2 7.3 4.2 0 1.4-0.8 11.5-3.5 42.2l-3-0.6c-1.7-0.4-6.6-1.3-11-2.1-6.6-1.2-9.4-1.3-15.5-0.3-6.1 1-8.4 1.9-12.1 4.8-2.7 2-5.9 5.9-7.7 9-2.5 4.7-3.1 7.4-4.1 17.5-0.9 9-0.9 12.9-0.1 15.5 0.6 2 2 5.8 3 8.5 1.7 4.3 2.7 5.4 6.7 7.4 3.1 1.6 7.2 2.6 11.8 2.9 6.2 0.4 8.4 0 19.7-3.6 7-2.3 13.6-4.2 14.5-4.2 1.4 0 2.1 1.7 3.5 8.3 0.9 4.5 1.9 14.4 2.8 35.7l-4.8 2.1c-2.6 1.1-8.5 3.2-13.2 4.6-7.2 2.2-11.1 2.7-25 3.1-15.7 0.5-16.9 0.4-23.5-2-3.9-1.4-9.3-3.6-12-5-2.8-1.4-6.6-4.3-8.6-6.4-2-2.1-5.2-6.2-7.3-9.1-2-2.9-4.8-7.6-6.3-10.5-1.4-2.9-3.6-9.1-4.9-13.8-1.2-4.6-2.8-14.1-3.5-21-1-10-1.1-14.4-0.1-22.5 0.7-5.5 2.1-13.1 3.1-17 1-3.8 2.9-9.2 4.2-12 1.3-2.8 5.1-8.1 8.4-11.9 3.3-3.7 8.2-8.4 10.9-10.4 2.8-2 6.8-4.5 9-5.5 2.3-1 7.9-3.2 12.6-4.9 4.7-1.6 11-3.3 14-3.7 3-0.4 10.4-0.9 16.5-0.9zm858.2 9.9c1.9 0 6.3 5.9 26.5 36 14.7 21.9 24.4 35.4 24.5 34.3 0.2-1-1.2-14.7-6.2-59l18.5-1.2c10.2-0.6 19.9-1.2 25-1.2l-0.7 16.3c-0.6 15.7-0.5 16.5 2 24.2 2.2 6.6 3.1 13 5.1 35 1.4 14.9 2.7 32.4 3.1 39 0.3 6.6 0.8 12.9 1 14 0.4 1.9-1.4 2.5-19 7.3-10.8 2.9-20.3 5-21.3 4.8-0.9-0.3-2.5-1.8-3.4-3.3-0.9-1.5-4.5-6.4-8-10.8-3.6-4.4-14.6-18.9-24.6-32.2-10-13.3-18.7-24.5-19.2-24.8-0.6-0.3-1 1.9-1 5.8 0 3.4 0.7 18.2 1.5 32.7 0.8 14.6 1.4 29.7 1.5 40.5l-21.5 2c-11.7 1.1-21.6 1.8-21.8 1.5-0.2-0.2-1.9-34.4-7.2-151.5l21.5-4.6c11.8-2.6 22.5-4.7 23.7-4.8zm1338.3 33.9c0.8 0 4.4 0.5 8 1.1 3.6 0.6 7.5 1.3 8.7 1.5 1.7 0.3 2.3 1.1 2.3 3.2 0 1.5 0.4 4.2 1 6 0.5 1.8 0.8 3.2 0.5 3.2-0.3 0-4.9-3-10.3-6.6-5.3-3.7-10.2-7.1-10.7-7.5-0.7-0.6-0.5-0.9 0.5-0.9zm-2195.5 14.7c3.3 0.3 7.3 0.7 9 0.9 2 0.3 5.4 2.9 18.5 15.9v12.5l-7.3 1.7c-4 0.9-11.2 2.9-16 4.5-5.1 1.7-10.9 2.8-14 2.8-2.9 0-5.7-0.3-6.3-0.7-0.6-0.4-1.6-1.8-2.3-3-0.6-1.2-1.1-6-1.1-10.5 0-4.5 0.6-10.2 1.2-12.5 0.7-2.3 2.7-5.7 4.5-7.6 1.7-2 4.2-3.7 5.5-3.9 1.2-0.3 5-0.3 8.3-0.1zm-6.2 21.6c0.4 1 1.5 1.8 2.4 1.8 1 0 4.6-1 8.1-2.3l6.2-2.3c-5-5-6.4-5.4-10.7-5.4-5.1-0.1-5.3 0-5.9 3.2-0.4 1.8-0.4 4-0.1 5zm971.9 11.3l3.1 2.5c1.8 1.4 5.1 3.7 7.4 5 2.4 1.3 4.3 2.8 4.3 3.2 0 0.4-2.6 0.7-5.8 0.7-3.1 0-6.2-0.3-6.9-0.7-0.6-0.4-1.4-3-1.6-5.7zm1277.8 6.4c0.8 0 3.2 1.1 9.5 4.9l-4.8 0.1c-2.6 0-4.7-0.4-4.7-1 0-0.5-0.3-1.7-0.7-2.5-0.4-0.9-0.1-1.5 0.7-1.5z"/><path class="d" d="m2768 24.5c-6.3 1.3-14 3.2-17 4.3-3 1.1-7.8 3-10.5 4.3-2.8 1.3-8.9 5.5-13.6 9.4-5 4.2-11.1 10.5-14.9 15.5-4.2 5.5-7.7 11.5-9.9 17-1.8 4.7-4.2 13.4-5.2 19.5-1 6-1.9 14.8-1.9 19.5 0 5 1 13.4 2.4 20.5 1.3 6.6 3.1 14 4 16.5 0.9 2.5 3.3 8.3 5.3 13 2.1 4.7 6.3 12.3 9.4 17 3.1 4.7 8.1 10.8 11.1 13.6 2.9 2.8 8 7.3 11.3 10.1 3.3 2.7 10.1 7.1 15 9.6 6 3 13.1 5.6 21.3 7.6 10.2 2.6 14.1 3.1 23.9 3.1 6.5 0 15.9-0.7 20.8-1.4 4.9-0.8 13.3-3 18.5-5 5.2-2 10.4-4.2 11.5-5 1.1-0.7 3.5-5.1 5.2-9.7 1.9-4.9 4-13.1 5-19.9 1.4-9 1.8-17.2 1.7-37.5-0.1-21-0.5-27.9-2-36l-1.9-10c-11.2-0.4-14.5-0.6-14.5-0.8 0-0.1 4.7-11.9 10.5-26.2 5.8-14.3 10.5-26.3 10.5-26.8 0-0.4-3-2.4-6.8-4.6-3.7-2.1-9.6-5.3-13.2-7.1-3.6-1.8-9.7-4.4-13.5-5.7-3.8-1.3-12.4-3.5-19-4.9-8.5-1.7-14.9-2.4-22-2.3-5.8 0.1-14.8 1.1-21.5 2.4zm-1644.5 4.5c-3.8 0.4-9.7 1.7-13 2.8-3.3 1.1-9.6 3.8-14 6-5.7 2.9-9.8 5.9-14.1 10.4-3.3 3.5-7 7.9-8.1 9.8-1 1.9-2.5 5.1-3.2 7-0.8 1.9-1.9 8-2.7 13.5-0.7 5.5-1.3 12.2-1.3 15-0.1 2.7 0.9 8.2 2.2 12 1.2 3.8 3.8 9.7 5.7 13 1.9 3.3 6.1 8.4 9.5 11.5 3.4 3 8.8 6.9 12.1 8.6 3.2 1.8 11.1 4.9 17.4 7 8.9 2.9 12.3 4.6 15.2 7.3 3.1 3 3.7 4.3 3.8 7.8 0 3.5-0.4 4.5-2.2 5.4-1.6 0.8-7.5 1-19.8 0.5-9.6-0.3-21.4-0.9-26.3-1.1-8.5-0.5-8.7-0.4-8.7 1.7 0 1.3 1 16.1 2.2 33l2.3 30.6c8.5 2.5 13.7 3.6 17 4.2 3.3 0.6 10.8 1 16.8 1 7.5 0 14.1-0.7 22-2.4 6.5-1.4 15.2-4.2 20.7-6.6 5.2-2.3 11.3-5.5 13.5-7.2 2.2-1.7 6.6-5.6 9.8-8.7 3.2-3.1 8-9.2 10.7-13.6 2.7-4.4 6.1-11.4 7.5-15.5 2.1-6.3 2.5-9.3 2.5-18.5 0-8.9-0.4-12.3-2.3-18-1.3-3.8-4.4-10.8-6.8-15.4-2.7-5.2-6.9-11.2-10.9-15.4-3.7-4-11.3-10.2-17.7-14.6-6.2-4.2-11.2-7.7-11-7.9 0.1-0.2 2.5 0.1 5.2 0.7 2.8 0.5 8.3 1.3 12.3 1.8l7.2 0.8v-64c-12-2-22.5-2.7-31-3-8.5-0.2-18.7 0-22.5 0.5zm403.5 38.7l-3.5 0.4c-6.6 46-8.6 59.7-8.5 60.1 0 0.5 6.1 0.8 13.5 0.8h13.5c-0.1-4.3-2-18.1-4.3-33.5-3.3-22.1-4.5-28-5.7-28.1-0.8 0-3.1 0.1-5 0.3zm-821.5 3l-4 0.4 3 40.9c18.3 0 22.1-0.5 28.3-2.4 4.2-1.4 8.7-3.5 9.9-4.8 1.3-1.3 2.7-3.9 3.3-5.8 0.5-1.9 1-5.4 1-7.8 0-2.3-0.6-5.4-1.4-7-0.8-1.5-2.5-3.7-3.8-4.8-1.2-1.2-4.2-3.1-6.6-4.3-2.3-1.1-7.3-2.8-11.2-3.6-3.9-0.8-8.7-1.4-10.8-1.3-2 0.1-5.5 0.3-7.7 0.5zm1032 0l-4 0.4 3 40.9c18.3 0 22.1-0.5 28.3-2.4 4.2-1.4 8.7-3.5 9.9-4.8 1.2-1.3 2.9-4 3.7-6.1 0.9-2 1.6-4.8 1.6-6.2 0-1.4-0.7-4.2-1.6-6.3-0.8-2-2.5-4.8-3.7-6-1.2-1.3-4.3-3.5-7-4.8-2.6-1.3-7.9-3.1-11.7-3.9-3.8-0.8-8.7-1.4-10.8-1.3-2 0.1-5.5 0.3-7.7 0.5zm283 0l-4 0.4 3 40.9c18.3 0 22.1-0.5 28.2-2.4 4.3-1.4 8.8-3.5 10-4.8 1.2-1.3 2.9-4 3.7-6.1 0.9-2 1.6-4.8 1.6-6.2 0-1.4-0.7-4.2-1.6-6.3-0.8-2-2.5-4.8-3.7-6-1.2-1.3-4.3-3.5-7-4.8-2.6-1.3-7.9-3.1-11.7-3.9-3.8-0.8-8.7-1.4-10.8-1.3-2 0.1-5.5 0.3-7.7 0.5zm-1459.5 12c0 1.6 1.8 23.3 4.1 48.3 2.3 25 4.3 45.6 4.5 45.8 0.2 0.1 2.7-1 5.5-2.5 2.8-1.6 6.6-4.4 8.3-6.3 1.8-1.9 4.7-7.1 6.6-11.5l3.5-8c-0.1-33.8-0.3-35.6-2.8-43-1.5-4.4-4.1-10-5.9-12.4-1.8-2.4-5.3-5.8-7.8-7.4-2.5-1.7-6.8-3.7-9.5-4.4-2.8-0.7-5.3-1.3-5.8-1.3-0.4 0-0.7 1.2-0.7 2.8zm1315 0c0 1.5 1.8 23.2 4.1 48.2 2.3 25 4.3 45.7 4.5 46 0.2 0.3 2.3-0.4 4.5-1.5 2.3-1.1 6-4 8.3-6.5 2.5-2.6 5.6-7.8 7.7-12.5l3.4-8c0-36.6-0.2-38.5-2.4-45-1.5-4.2-3.9-8.5-6-10.9-2-2.1-5.6-5.2-8.1-6.9-2.5-1.7-6.8-3.7-9.5-4.4-2.8-0.7-5.3-1.3-5.8-1.3-0.4 0-0.7 1.2-0.7 2.8z"/><path class="a" d="m716.5 91l1 7c6.2 0 9.8-0.6 11.9-1.3 2.1-0.6 4-1.8 4.2-2.5 0.2-0.6-0.3-2.3-1.1-3.7-0.8-1.4-3-3.1-4.8-3.9-1.7-0.7-5.2-1.6-7.7-2l-4.5-0.6zm1315.3 0l0.2 7c7.4-0.1 11.1-0.7 13-1.3 3-1 3.5-1.7 3.5-4.2 0-2.6-0.6-3.3-4.5-5.2-2.5-1.2-6.3-2.4-8.5-2.7l-4-0.6z"/><path fill-rule="evenodd" class="e" d="m2789.3 37.1c11.4-0.1 15.7 0.3 25.4 2.5 7.5 1.6 15.5 4.3 22.1 7.2 5.6 2.6 10.3 4.9 10.2 5.2 0 0.3-3.4 9-7.6 19.5-4.2 10.5-7.7 19.1-7.7 19.2-0.1 0.2-4.7-1.7-10.2-4.2-6.2-2.8-13.2-5-18.5-6-4.7-0.8-10.4-1.5-12.8-1.5-2.3 0-7 0.8-10.5 1.7-3.4 0.9-8.5 3.1-11.2 4.7-2.8 1.7-5.6 3.7-6.3 4.6-0.7 0.8-2.1 3.1-3.1 5-1 2-2.4 8.1-3.1 14-1.2 9.9-1.1 11.1 1 20.5 1.3 5.5 3 11.6 3.9 13.5 0.9 2 3.6 6.3 6 9.5 2.4 3.3 7.1 8.1 10.5 10.6 4.4 3.3 8 5 12.8 6.2 4 1 10.8 1.7 25.8 1.7v-18h-17.5l-3-40 51 0.5 0.8 5c0.5 2.7 0.9 15.6 1 28.5 0 18.5-0.3 25.3-1.7 32-0.9 4.7-2.7 11.8-6.1 23.4l-5.5 2.4c-3 1.3-9.3 3.3-14 4.4-7.3 1.7-10.8 1.9-24.5 1.5-13.9-0.4-16.8-0.8-22.5-3-3.6-1.4-9.2-3.8-12.5-5.4-3.3-1.6-7.8-3.9-10-5.3-2.2-1.3-7.6-5.6-12-9.5-5.2-4.7-9.4-9.6-12.1-14.1-2.3-3.8-5.5-9.6-7.2-12.9-1.7-3.3-3.8-7.8-4.7-10-0.9-2.2-2.5-7.4-3.5-11.5-1-4.1-2.1-12.7-2.5-19-0.5-7.6-0.3-14.2 0.5-19.5 0.7-4.4 2-10.9 3-14.5 0.9-3.6 2.7-8.5 4-11 1.2-2.5 3.7-6.5 5.4-9 1.7-2.5 4.7-5.9 6.6-7.7 1.9-1.7 5.5-4.7 8-6.5 2.5-1.9 6.7-4.6 9.5-6.1 2.7-1.5 7-3.4 9.5-4.3 2.5-0.9 7.9-2.2 12-2.9 4.1-0.7 13.7-1.3 21.2-1.4zm-1040.7 47l4 0.5c2.2 0.3 6 1.6 8.5 2.7 3.8 1.9 4.5 2.6 4.5 5.1 0 2.4-0.6 3.1-3.5 4.2-1.9 0.7-5.6 1.3-13 1.4zm1044 9.5c5.5 0.2 12.2 1 15 1.8 2.7 0.7 5.9 1.8 7 2.4 1.6 0.9-2 1.2-34 1.3l1.7 21.7c0.9 12 1.7 23.8 1.9 30.7l-2.2-2c-1.2-1.1-3.3-3.8-4.8-6-1.5-2.2-3.9-8.2-5.4-13.5-1.5-5.2-2.7-11.3-2.8-13.5-0.1-2.2 0.4-6.6 1.2-9.8 1-4.3 2.3-6.7 4.9-9.1 1.9-1.9 4.4-3.6 5.5-3.9 1.1-0.3 6.5-0.4 12-0.1z"/><path class="f" d="m1119 44.4c-4.7 1.2-12.1 4.1-16.5 6.4-4.4 2.3-9.2 5.2-10.6 6.4-1.4 1.3-3.4 3.9-4.4 5.8-1 1.9-2.4 5.3-3.2 7.5-0.8 2.2-2 6.9-2.6 10.5-1 5-1 8.5-0.1 15 0.6 5.1 2.1 10.7 3.7 14 1.4 3 4.3 7.1 6.4 9.1 2.1 2.1 6 4.8 8.8 6.2 2.7 1.3 10.2 4.4 16.5 6.7 6.3 2.4 13.3 5.2 15.5 6.3 2.2 1 5.3 3.1 6.8 4.6 1.6 1.4 3.7 4.3 4.8 6.4 1.4 2.7 1.9 5.8 1.9 11.7 0 5.1-0.5 9.1-1.5 11-0.8 1.7-3 3.9-4.8 4.9-1.7 1.1-5.9 2.5-9.2 3.1-3.8 0.8-10.8 1-19 0.6-7.2-0.3-14.8-0.8-17-1.1l-4-0.7 3 41.9c14 1 21.3 1.3 25.3 1.3 3.9 0 10.5-0.6 14.4-1.4 4-0.8 11.3-3.2 16.3-5.3 5-2.1 11-5.3 13.5-7 2.5-1.6 7.1-5.9 10.4-9.4 3.2-3.5 7.1-8.9 8.6-11.9 1.5-3 3.5-8 4.5-11 1.5-4.5 1.7-7.4 1.2-15.5-0.6-8.7-1.1-11-4.3-17.5-2-4.1-5.5-10-7.8-13-2.4-3-7.4-8.3-11.2-11.8-3.8-3.5-9-7.4-11.7-8.8-2.6-1.3-4.9-2.8-5.2-3.4-0.3-0.5-3.8-2.6-7.8-4.6-3.9-2.1-8.7-4.9-10.5-6.3-1.8-1.4-4-3.8-4.8-5.3-1.1-2.2-1.2-3.6-0.3-6.5 0.7-2.6 2-4.4 4.2-5.7 2.7-1.5 4.5-1.7 12.2-1.2 5 0.3 10.6 1.1 12.5 1.6 1.9 0.6 5 1 6.7 1h3.3l0.4-35.7c-21.6-1-29.7-1.3-31.9-1.2-2.2 0.1-7.8 1.1-12.5 2.3zm-541.8 66.1c0 2.2 0.6 10.5 1.3 18.5l1.4 14.5c-0.7-23.2-1.3-31.6-1.8-33.5l-0.9-3.5zm1315-1.5c0 1.4 0.6 7.7 1.3 14l1.4 11.5c-0.8-16.3-1.4-22.6-1.8-24.5-0.7-2.7-0.9-2.9-0.9-1z"/></svg>