<svg version="1.2" xmlns="http://www.w3.org/2000/svg" viewBox="0 0 2953 2200" width="2953" height="2060" style="-webkit-filter: drop-shadow( 0px 10px 5px rgba(255, 0, 0, .7));
filter: drop-shadow( 0px 10px 5px rgba(0, 0, 0, .7));"><style>.a{fill:#00a63d}.b{fill:#fff}.c{fill:#00468d}.d{fill:#00a6db}.e{fill:#ef9c48}.f{fill:#6c2f94}.g{fill:#dd4a70}.h{fill:#d83425}.a</style><path fill-rule="evenodd" class="a" d="m663 882.6c14 0.2 30.7 0.8 37 1.3 6.3 0.5 19.6 2.3 29.5 4 9.9 1.7 24.8 4.8 33 7 8.3 2.1 20 5.7 26 8 6 2.3 11 4.3 11.1 4.4 0.1 0.1-0.4 12.2-1 26.9-0.6 14.6-1.3 26.9-1.6 27.2-0.3 0.3-4.1-0.9-8.5-2.8-4.4-1.8-15-5.6-23.5-8.4-8.5-2.8-21-6.2-27.8-7.6-6.7-1.4-21.5-3.7-32.9-5.1-15.7-1.9-25.7-2.5-40.8-2.5-12.7 0-27 0.7-39 2-10.5 1-25.8 3.3-34 4.9-8.3 1.7-21.5 5.1-29.5 7.5-8 2.4-21.7 7.5-30.5 11.3-8.8 3.7-23.4 11.1-32.5 16.3-11.1 6.3-21.1 13.1-30.5 20.5-7.7 6.1-17 14.3-20.6 18.1-3.7 3.8-8.7 9.4-11.1 12.4-2.5 3-7.8 10-11.9 15.5-4.1 5.5-10 14-13.1 19-3.1 5-7.8 13.5-10.6 19-2.8 5.5-6.2 12.7-7.7 16-1.5 3.3-5.5 14.3-9 24.5-3.4 10.2-7.9 26.2-9.9 35.5-2.1 9.3-5.1 26.5-6.7 38-2.8 20.1-2.9 22.5-2.9 58 0.1 31.7 0.4 40.3 2.5 60 1.7 16.7 3.5 28.1 6.5 41.5 2.3 10.2 7.1 27 10.7 37.5 4.6 13.6 9 24.1 15.5 37 5 9.9 11.6 22.3 14.7 27.5 3 5.2 8.6 13.5 12.3 18.5 3.6 5 10.6 13.5 15.5 19 4.9 5.5 13.6 13.9 19.3 18.8 5.8 4.8 15.2 12.2 21 16.3 5.8 4.2 14.4 9.6 19.3 12 4.8 2.4 13.5 6.2 19.4 8.3 6 2.2 17.5 5.8 25.8 8 9.6 2.6 22.7 5.1 36.5 7.1 19.3 2.7 24 3 46.5 3 18.1 0 29.8-0.6 42.5-2 9.6-1.1 23.8-3.1 31.5-4.5 7.7-1.4 20.8-4.3 29-6.5 8.2-2.1 20.4-5.5 27-7.5 6.6-1.9 12.1-3.4 12.3-3.3 0.1 0.2-0.1 8.4-1.3 36.5l16 1.2c8.8 0.6 18.2 1.4 26 2.4l-3.5 1.4c-1.9 0.8-11.4 4.2-21 7.5-9.6 3.3-21.3 7.3-26 8.8-4.7 1.5-13.7 4-20 5.4-6.3 1.4-19.4 3.9-29 5.6-9.6 1.7-26 4.1-36.5 5.5-16.4 2.2-22.8 2.5-47 2.5-27.4 0-28.6-0.1-54.5-4-18.9-2.8-31.1-5.2-42.5-8.3-8.8-2.5-20.7-6.3-26.5-8.7-5.8-2.3-15.9-6.9-22.5-10.2-6.6-3.3-17.4-9.7-24-14.1-6.6-4.5-16.7-11.9-22.5-16.6-5.8-4.6-12.7-10.5-15.3-13-2.7-2.5-9.5-9.8-15.2-16.1-5.6-6.3-13.5-16-17.6-21.5-4.1-5.5-10.2-14.3-13.6-19.5-3.5-5.2-11-19.4-16.9-31.5-6.6-13.8-13.7-30.6-18.9-45-6.8-18.8-9.3-27.2-13.3-46-3.9-17.6-5.7-28.9-7.7-48.5-2.6-24.8-2.7-26.6-2.1-66 0.6-33.4 1.1-44.4 3.2-63 1.9-17 3.7-27.7 7.6-44 3.1-13.2 7.9-29.6 12.3-42.5 4-11.5 9.3-25.5 11.6-31 2.4-5.5 7.1-15 10.4-21 3.4-6 8.3-14.8 11-19.5 2.7-4.7 7.9-12.5 11.4-17.5 3.6-5 10.1-13.3 14.4-18.5 4.4-5.2 11.4-13.1 15.7-17.5 4.2-4.4 11.5-11.4 16.1-15.5 4.6-4.2 12.5-10.5 17.4-14.1 4.9-3.6 17.6-11.6 28-17.9 14.8-8.9 23.2-13.2 38-19.3 10.5-4.3 27.1-10.2 37-13.2 9.9-2.9 25.2-6.8 34-8.6 8.8-1.7 24.3-4 34.5-5 13.9-1.3 24.8-1.6 44-1.3zm-3.3 308.5c6.3-0.1 13.4 1 29.5 4.4 11.7 2.4 23.1 5.1 25.3 5.8 3.6 1.2 7 5.2 64 78.2l1.7-11c0.9-6 2.3-15 4.6-29l-0.5 20c-0.3 11-0.8 20.2-1 20.5-0.3 0.3-6.2 1.5-13.2 2.8-6.9 1.2-24.3 4.5-38.6 7.3-14.3 2.7-33 6.7-41.5 8.9-8.5 2.1-19.5 4.6-24.5 5.4-5.7 1-15.1 1.6-25.5 1.6-14.2 0-16.9-0.3-19.5-1.8-2.2-1.4-3.8-3.9-6-9.3-2.9-7.1-3-7.9-2.8-21.9 0.1-8 0.9-19.9 1.8-26.5 1-7.3 3-16.3 5.2-23 3.3-9.8 4.4-11.8 10.4-19 5.6-6.7 7.6-8.3 12-10 3-1.1 6.5-2.3 7.9-2.6 1.4-0.4 6.2-0.7 10.7-0.8zm3.5 59.9c1.3 0 5.9-1 10.3-2.3l8-2.2c-9.3-1-13.9-1.3-16.3-1.4-4-0.1-4.2 0-4.2 2.9 0 2.4 0.4 3 2.2 3z"/><path class="b" d="m1939 890.7c-3.6 0.1-11.5 1-17.5 1.9-6 0.8-20.5 3.3-32 5.5-11.5 2.2-25.7 5.4-31.5 7.1-5.8 1.6-21.5 6.8-35 11.4-13.5 4.7-31.3 11.5-39.5 15.2l-15 6.7c32.4 492.1 42 635.2 42.2 635.5 0.3 0.3 46.8-4.2 103.4-10l102.9-10.5c-0.1-6.2-3.8-47.9-8.3-96.6l-8.2-88.5c24.1-6.8 35.9-11.1 45-15.2 8.2-3.7 17.9-8.5 21.5-10.7 3.6-2.2 11.9-8.5 18.5-14.1 6.6-5.5 14.7-13 18-16.5 3.3-3.5 9.8-12 14.4-18.9 4.6-6.9 11.2-18.2 14.7-25.3 3.5-7 6.4-13.9 6.4-15.5 0.1-1.5 0.7-3.2 1.5-3.7 0.7-0.6 2.9-6 4.8-12 1.9-6.1 4.5-15.5 5.8-21 2-8.6 2.1-10.4 1-13-0.7-1.7-3.3-8.4-5.8-15-2.5-6.6-6-18.5-7.8-26.5-1.8-8-3.7-18.3-4.3-23-0.6-4.7-1.4-12.3-1.7-17-0.4-5.3 0.2-17 1.5-31 1.1-12.4 3.3-29.7 4.9-38.5l2.8-16c-8-21.7-11.5-30.5-12.9-33.5-1.4-3-6.5-12-11.3-20-4.8-8-12.7-19.5-17.5-25.5-4.9-6.1-13.2-15.3-18.7-20.6-5.9-5.9-14.1-12.5-20.8-16.9-6.1-4-15.3-9.4-20.5-12-5.2-2.6-13.1-5.9-17.5-7.3-4.4-1.5-15.1-4.3-23.8-6.2-15.2-3.4-16.3-3.5-34.5-3.3-10.3 0.1-21.6 0.3-25.2 0.5zm-1110.5 323.6l-14 322.4 51 3.7 158-18.9c1.7-23.3 4.4-63.9 7.1-105.3l4.9-75.2 43 0.5 12 195.5c3.9 0.1 56-3.2 118.3-7.2l113.2-7.3c0-10.8-0.5-22.6-1-33l-1-19c-11.4-17.1-17.9-28.3-21.8-36-3.9-7.7-9.4-19.4-12.2-26-2.9-6.6-6.9-17-9-23-2.1-6.1-3.9-9.9-3.9-8.5 0 1.4 0.8 21.4 1.9 44.5 1.1 23.1 2 45.2 2 49v7c-113 7-146 8.8-146.3 8.5-0.2-0.3-2.8-43.3-5.8-95.5l-5.4-95c-77.5-2.6-105.4-3.4-112-3.4l-12-0.1c-9 141.4-11.8 183.4-12 184.5-0.4 1.9-4.2 2.5-59.2 9.3-32.3 4-60.2 7.3-61.8 7.2h-3c18.5-425.9 24-549.7 24.3-550 0.2-0.3 29.2 1.3 64.4 3.5l64 4c-1.1 75.9-2 122-2.6 151.3l-1.1 53.2h111.5c-0.1-71.7-0.7-109.3-1.3-129.8q-1.2-37.4-0.2-38.2c0.5-0.4 31.6-1.1 69-1.5l68-0.7 6.9 156.7c5-19.4 8.3-30.4 10.6-37 2.2-6.6 6.8-18.8 10.3-27 3.4-8.3 8.6-19.5 11.6-25l5.4-10-4.8-105.5c-20.2 0-63.3 0.5-109 1.2l-83 1.2-29 27.2c1.8 79.8 2.3 111.6 2.4 122.1l0.1 19.3h-24.5c3.4-132.1 4.4-177.7 4.4-186.5l0.1-16c-162.4-10.5-210.6-13.6-212-13.5h-2.5zm721-288.7c-2.2 0.2-10.1 1.1-17.5 2-7.4 0.9-18.9 2.9-25.5 4.6-6.6 1.6-17.6 4.9-24.5 7.3-6.9 2.3-17.2 6.5-23 9.1-5.8 2.7-15.3 7.8-21 11.3-5.8 3.6-15 9.6-20.5 13.5-5.5 3.8-14.2 10.8-19.4 15.5-5.2 4.7-13.1 12.4-17.6 17.1-4.6 4.6-12.3 13.4-17.2 19.5-4.9 6-12.3 16.6-16.4 23.5-4.2 6.8-10.6 18.3-14.2 25.5-3.6 7.1-9.6 20.6-13.3 30-3.6 9.3-7.5 19.7-8.5 23-1.1 3.3-3.9 15-6.4 26-2.4 11-4.9 22.9-5.5 26.5-0.6 3.5-1.7 15.2-2.6 26-0.8 10.7-1.4 28.1-1.4 38.7 0 14.4 0.6 24.2 2.5 39 1.3 10.9 3.1 23.4 3.9 27.8 0.8 4.4 3 14.5 4.9 22.5 2 7.9 5.8 21 8.5 29 2.8 7.9 7.4 19.9 10.3 26.5 3 6.6 8 16.7 11.3 22.5 3.2 5.7 9.3 16.1 13.4 23 4.2 6.8 11 17 15.1 22.5 4.2 5.6 11.4 14.3 16.1 19.5 4.7 5.2 12.7 13.3 17.9 18 5.2 4.6 14 11.9 19.5 16 5.6 4.2 15.7 10.9 22.6 15.1 7.1 4.2 18.5 9.9 26.5 13.1 7.7 3.1 20.1 7.4 27.5 9.6 7.4 2.1 20.2 5.1 28.5 6.6 14 2.5 16.3 2.7 37 2.2 12.1-0.3 29.2-0.9 38-1.5 9.7-0.5 20.7-1.9 28-3.5 6.6-1.4 16.9-4.3 23-6.4 6-2.2 16.2-6.6 22.5-9.7 6.3-3.2 15.8-8.5 21-11.8 5.2-3.3 13.8-9.4 19-13.6 5.2-4.2 12.8-10.8 16.9-14.6 4.1-3.9 11.7-12 16.9-18 5.2-6.1 10.7-12.8 12.1-14.9l2.6-4c-4.3-62.9-5.6-82.3-5.6-83.6 0-1.5-1.5 1.3-3.3 6.5-1.9 4.9-6.4 15-10.1 22.5-3.7 7.4-10.3 18.6-14.7 25-5.6 7.9-12.9 16.4-23.7 27.3-10.1 10.2-18.6 17.9-24.1 21.6-4.7 3.2-13.5 8.3-19.5 11.3-6.6 3.3-17.2 7.4-26.5 10.3-12.4 3.8-19.2 5.2-34 7.1-13.1 1.6-23.6 2.3-36 2.3-13.7 0-20.9-0.5-33-2.4-8.5-1.4-21.8-4.2-29.5-6.4-10-2.8-17.7-5.7-27-10.4-7.5-3.7-18.6-10.5-26.1-15.9-7.2-5.1-18.2-14.1-24.5-19.8-6.4-5.9-15.6-15.8-20.9-22.5-5.2-6.6-13.3-18.1-18-25.5-4.7-7.5-11.8-20.5-15.8-29-3.9-8.6-9.6-22.5-12.6-31-3.2-9.1-6.9-22.6-8.9-32.5-2-9.4-4.7-24.9-6.1-34.5-2-13.5-2.6-21.8-2.7-36 0-10.2 0.5-24.4 1.1-31.5 0.6-7.2 2.5-21.4 4.2-31.5 1.9-11.9 4.9-25 8.3-36.5 3.6-12.2 7.7-23.3 12.6-34.1 4.1-8.8 11.4-22.5 16.3-30.5 5-7.9 11.3-17.6 14-21.4 2.8-3.9 9.1-11.5 14-16.9 5-5.4 12.9-13 17.6-17 4.7-3.9 13.9-10.7 20.5-15 6.6-4.4 18.1-11 25.5-14.7 7.8-3.9 20-8.8 29-11.7 9.2-3 20.6-5.9 28.2-7.2 9.2-1.5 17.3-2 29-2 14.6-0.1 18 0.3 33.3 3.4 9.6 1.9 22.4 5.4 29.5 7.9 6.9 2.4 16.3 6.3 21 8.7 4.7 2.3 12.1 7 16.5 10.3 4.4 3.3 12.3 9.5 17.5 13.7 5.2 4.3 14.2 12.6 20.1 18.6 7 7.2 13.7 15.6 20.1 24.9 5.2 7.7 11.6 17.9 14.1 22.7 2.6 4.8 4.9 8.7 5.1 8.5 0.3-0.1-0.8-19.1-2.3-42.2l-2.8-42c-4.7-6.2-10.1-11.9-15-16.5-4.8-4.7-14-12.5-20.3-17.5-6.3-4.9-16-11.8-21.5-15.4-5.5-3.6-15.6-9.2-22.5-12.5-6.9-3.3-18.6-7.9-26-10.3-7.4-2.5-17.1-5.3-21.5-6.4-4.4-1.1-15.7-2.7-25-3.5-9.4-0.7-18.8-1.3-21-1.2-2.2 0-5.8 0.2-8 0.4zm-926.5 11.4c-9.1 0.9-23.5 3.1-32 4.8-8.5 1.7-22 5.1-30 7.6-8 2.4-21.7 7.5-30.5 11.2-8.8 3.8-23.4 11.1-32.5 16.3-11.1 6.4-21.1 13.1-30.5 20.6-7.7 6.1-17 14.2-20.7 18-3.6 3.8-8.6 9.4-11.1 12.5-2.4 3-7.8 10-11.9 15.5-4.1 5.5-9.9 14-13 19-3.1 4.9-7.9 13.5-10.6 19-2.8 5.5-6.3 12.7-7.7 16-1.5 3.3-5.5 14.3-9 24.5-3.4 10.1-7.9 26.1-10 35.5-2 9.3-5 26.4-6.6 38-2.8 20.1-2.9 22.5-2.9 58 0.1 31.7 0.4 40.2 2.4 60 1.8 16.6 3.6 28.1 6.6 41.5 2.3 10.1 7.1 27 10.7 37.5 4.6 13.6 9 24.1 15.5 37 5 9.9 11.6 22.2 14.6 27.5 3.1 5.2 8.7 13.5 12.3 18.5 3.7 4.9 10.7 13.5 15.6 19 4.9 5.5 13.6 13.9 19.3 18.7 5.8 4.8 15.2 12.2 21 16.4 5.8 4.2 14.4 9.6 19.2 12 4.8 2.4 13.6 6.1 19.5 8.3 5.9 2.1 17.5 5.7 25.8 8 9.6 2.6 22.7 5.1 36.5 7 19.3 2.8 24 3.1 46.5 3.1 18.1 0 29.8-0.6 42.5-2 9.6-1.1 23.8-3.1 31.5-4.5 7.7-1.5 20.7-4.4 29-6.5 8.2-2.2 20.4-5.5 27-7.5 6.6-2.1 12.1-3.8 12.2-3.9 0.2-0.1 2.7-56.4 5.8-125.1 3-68.8 5.5-128 5.5-131.5l-0.1-6.5c-19.7 3.5-37.1 6.8-51.4 9.5-14.3 2.8-33 6.8-41.5 8.9-8.5 2.2-19.6 4.6-24.5 5.5-5.7 1-15.1 1.6-25.5 1.6-14.2 0-16.9-0.3-19.5-1.9-2.2-1.3-3.8-3.8-6-9.2-2.9-7.2-3-7.9-2.8-21.9 0.1-8 0.9-19.9 1.8-26.5 0.9-7.4 3-16.3 5.2-23 3.3-9.9 4.3-11.9 10.4-19 5.9-7 7.5-8.3 13-10.5 4.7-1.8 8.9-2.5 15.9-2.8 8.3-0.3 12.1 0.2 31 4.2 11.8 2.5 23.3 5.1 25.5 5.9 3.6 1.2 6.9 5.1 33 38.4 15.9 20.5 29.4 37.6 30 38.2q1 1 4.7-24.7l3.8-25.7c8.5-201.5 11-261.3 11-262.8 0-2.5-0.8-3-8.3-6.1-4.5-1.8-15.2-5.6-23.7-8.4-8.5-2.8-21-6.2-27.8-7.7-6.7-1.4-21.6-3.7-33-5-16.8-2.1-24.9-2.5-42.7-2.4-13 0.1-28.8 0.8-38.5 1.9z"/><path class="c" d="m2125.5 1361l-8 0.7c-16.3 12.4-24.8 18.5-29.5 21.4-4.7 3-16 8.8-25 12.9l-16.5 7.4c13.5 144.2 17.4 187.7 17.5 189.6v3.5c-224.4 22.9-290.2 29.6-291 29.5-1.3 0-2-7.7-4.8-49.2-1.8-27.1-3.2-50.2-3.2-51.3 0-1.4-3.3 1.3-11.7 9.6-6.5 6.3-15.4 14.3-19.8 17.6-4.4 3.3-12 8.7-17 12-5 3.3-16 9.5-24.5 13.8-8.5 4.3-21.3 10-28.5 12.7-9.1 3.5-18.1 5.9-30 8.3-13.7 2.7-22.3 3.7-44.5 5.1-18.7 1.1-32 1.5-41.5 1-7.7-0.4-22.3-2-32.5-3.6-13.6-2.2-22.6-4.2-34-7.9-8.5-2.7-22.3-7.8-30.5-11.3-8.3-3.5-21.5-10.1-29.5-14.8-8-4.6-20.7-13-28.3-18.7-7.5-5.7-13.9-10.6-14.1-11-0.2-0.5-3.2-3.3-6.6-6.3l-6.2-5.5 1.5 40c-241.7 16-313 20.6-314.6 20.5h-2.7c-0.9-18.6-1.2-20-2.7-20-1-0.1-42.3 4.8-91.8 10.7l-90 10.7-53-4.2c-7.7 3.1-17.2 6.5-26 9.5-8.8 3-19.8 6.7-24.5 8.3-4.7 1.5-13.7 4-20 5.4-6.3 1.4-19.4 3.9-29 5.6-9.6 1.7-26 4.1-36.5 5.5-16.4 2.2-22.8 2.5-47 2.5-27.4 0-28.6-0.1-54.5-4-18.9-2.8-31.1-5.2-42.5-8.3-8.8-2.5-20.7-6.3-26.5-8.7-5.8-2.3-15.9-6.9-22.5-10.2-6.6-3.3-17.4-9.7-24-14.1-6.6-4.5-17.6-12.7-24.5-18.3-6.9-5.5-16.3-14.2-21-19.2l-8.5-9.1-405 239.4 2 282.5c3.9 0.1 667.8-36 1477.9-80.2l1472.8-80.3c-1.2-247.3-1.7-284.3-2.5-285.2-0.7-0.6-80.4-51.7-177.2-113.5-96.8-61.8-177.2-113.2-178.8-114.1l-2.7-1.7c-0.8 7.4-2.4 15.6-4.1 23-1.7 7.4-5.4 19.3-8.1 26.5-2.8 7.2-7.7 18.2-10.8 24.5-3.2 6.3-9.7 17.6-14.5 25-4.8 7.4-11.8 17.3-15.5 22-3.7 4.7-11.9 13.4-18.1 19.4-6.3 6-17 15.4-23.9 21-6.9 5.5-17.9 13.5-24.5 17.7-6.6 4.2-17.1 10.2-23.3 13.3-6.1 3.1-18.3 8.3-27 11.5-8.6 3.2-19.8 7.1-24.7 8.5-4.9 1.4-15.3 3.7-23 5.1-7.7 1.4-18.9 3.2-25 4-6.1 0.9-23.3 1.8-38.5 2.2-19 0.4-30.6 0.2-37.5-0.6-5.5-0.7-17.9-2.8-27.5-4.6-12.6-2.5-23.6-5.5-39.5-10.9-12.1-4.1-34.8-13-50.5-19.8l-28.5-12.3c5.7-141.8 7.4-184.9 7.4-187.3 0.1-2.3-0.2-4.1-0.7-4.1-0.4 0.1-4.3 0.5-8.7 0.9z"/><path class="d" d="m1935.5 843.5c-7.7 0.7-18 1.8-23 2.5-5 0.6-14 2-20 3.1-6 1.1-16.2 3.1-22.5 4.5-6.3 1.5-16.5 4-22.5 5.6-6 1.6-22.9 7.2-37.5 12.4-14.6 5.2-40 15.2-56.5 22.2l-30 12.7c37.1 557.2 48 719.2 48.2 719.5 0.3 0.3 66.1-6.2 146.4-14.5l145.9-15c-0.1-5.4-4-48.9-8.8-100l-8.7-93.1c24-10.8 34.5-16.1 39-18.7 4.4-2.7 13.1-8.7 19.2-13.3 6.2-4.6 15.8-12.8 21.2-18.2l10-9.7c2.4-64.3 3.1-84.1 3.1-85.5q-0.1-2.5-7.3 11.5c-4 7.7-10.6 18.9-14.7 25-4.1 6-10.2 13.9-13.5 17.4-3.3 3.5-11.4 11-18 16.5-6.6 5.6-14.9 11.9-18.5 14.1-3.6 2.2-13.3 7-21.5 10.7-9.1 4.1-20.9 8.4-30 10.9l-15 4.3c12.7 137.2 16.4 178.9 16.4 181.1l0.1 4c-159.5 16.3-206 20.8-206.3 20.5-0.2-0.3-9.8-143.4-21.3-318l-20.9-317.5c23.3-10.4 41-17.2 54.5-21.9 13.5-4.6 29.2-9.8 35-11.4 5.8-1.7 20-4.9 31.5-7.1 11.5-2.2 25.7-4.7 31.5-5.6 6.5-1 20.2-1.8 36-2.2l25.5-0.5c24.8 5.6 35.6 8.4 40 9.9 4.4 1.4 12.3 4.7 17.5 7.3 5.2 2.6 14.4 8 20.5 12 6.7 4.4 14.9 11 20.8 16.9 5.5 5.3 13.8 14.6 18.7 20.6 4.8 6 12.7 17.5 17.5 25.5 4.8 8 9.9 17 11.3 20 1.4 3 4.9 11.8 7.8 19.5l5.1 14c8.3-24.8 12.2-35.4 14-39.5 1.9-4.1 4.8-10.3 6.6-13.6l3.2-6.2c-12.2-20.7-18.1-30.3-21-34.7-3-4.4-9.1-12.7-13.8-18.5-4.6-5.8-14-15.7-20.8-22.1-6.8-6.4-17.3-15.3-23.4-19.8-7.2-5.4-16.7-11-27.5-16.5-9.1-4.6-21.5-10-27.5-11.9-6-2-16.2-4.7-22.5-6.1-6.3-1.3-17.8-2.9-25.5-3.5-7.7-0.6-18.5-1-24-1-5.5 0.1-16.3 0.7-24 1.4zm215.6 371.8c-1.3 5.6-4 15.5-6 21.9l-3.6 11.7c27.1 6.4 36.5 8.7 38.3 9.2 2.9 0.8 3.3 0.7 4.2-1.9 0.9-2.4 0.6-3.2-3-7.7-2.3-2.8-7.3-9.7-11.3-15.5-3.9-5.8-9.2-14.4-11.7-19.2l-4.5-8.8z"/><path fill-rule="evenodd" class="e" d="m1566.5 878.2c7.7-0.1 18.5 0.5 24 1.2 5.5 0.8 18.5 3.6 29 6.4 10.5 2.7 23.5 6.7 29 8.7 5.5 2.1 14.3 5.9 19.5 8.5 5.2 2.6 14.7 7.8 21 11.5 6.3 3.6 15.8 9.7 21 13.5 5.2 3.8 10.9 8.1 15.8 12.5l2.1 32c1.2 17.6 2.1 32.6 2.1 33.2 0 0.7-3.9-2.8-8.8-7.9-4.8-5-14.5-13.8-21.7-19.6-7.2-5.7-18.2-13.8-24.5-18-6.3-4.2-17.1-10.3-24-13.6-6.9-3.2-18.6-7.9-26-10.3-7.4-2.4-17.1-5.3-21.5-6.4-4.4-1.1-15.9-2.6-25.5-3.5-10.4-0.9-21.1-1.2-26.5-0.8-5 0.3-15.1 1.4-22.5 2.4-7.4 1-18.2 3-24 4.5-5.8 1.5-16.1 4.6-23 7-6.9 2.4-17.2 6.5-23 9.2-5.8 2.6-15.2 7.7-21 11.3-5.8 3.5-15 9.6-20.5 13.4-5.5 3.9-14.2 10.8-19.4 15.5-5.1 4.8-13.1 12.4-17.6 17.1-4.6 4.7-12.3 13.4-17.2 19.5-4.8 6-12.3 16.6-16.4 23.5-4.2 6.9-10.6 18.3-14.2 25.5-3.6 7.2-9.6 20.7-13.2 30-3.7 9.3-7.6 19.7-8.6 23-1.1 3.3-3.9 15-6.3 26-2.5 11-5 22.9-5.6 26.5-0.6 3.6-1.7 15.3-2.5 26-0.9 10.7-1.5 28.2-1.5 38.7 0 14.5 0.6 24.3 2.5 39 1.3 10.9 3.1 23.4 3.9 27.8 0.8 4.4 3 14.5 4.9 22.5 2 8 5.8 21 8.5 29 2.8 8 7.4 19.9 10.4 26.5 2.9 6.6 8 16.7 11.2 22.5 3.3 5.8 9.3 16.1 13.5 23 4.1 6.9 10.9 17 15.1 22.6 4.1 5.5 11.3 14.3 16 19.5 4.7 5.2 12.7 13.2 17.9 17.9 5.2 4.7 14 11.9 19.5 16.1 5.6 4.1 15.7 10.9 22.6 15 7.1 4.2 18.6 9.9 26.5 13.1 7.7 3.1 20.1 7.4 27.5 9.6 7.4 2.2 20.2 5.2 28.5 6.6 14.1 2.6 16.4 2.7 37 2.2 12.1-0.2 29.2-0.9 38-1.4 9.7-0.6 20.7-2 28-3.5 6.6-1.4 17-4.3 23-6.5 6-2.2 16.2-6.5 22.5-9.7 6.3-3.2 15.8-8.5 21-11.7 5.2-3.3 13.8-9.5 19-13.6 5.2-4.2 12.8-10.8 16.9-14.7 4.1-3.8 11.3-11.5 16.1-17 4.8-5.5 10.1-12 11.9-14.5 1.7-2.5 3.2-4.3 3.3-4 0 0.3 1.1 14.4 4.5 62.5l-10.1 10.3c-5.6 5.7-14.4 13.6-19.6 17.6-5.2 4-13.5 10-18.5 13.3-5 3.3-16 9.5-24.5 13.8-8.5 4.3-21.3 10-28.5 12.7-9.1 3.5-18.1 5.9-30 8.3-13.7 2.7-22.3 3.7-44.5 5.1-18.7 1.1-32 1.5-41.5 1-7.7-0.4-22.3-2-32.5-3.6-13.6-2.2-22.6-4.2-34-7.9-8.5-2.7-22.3-7.8-30.5-11.3-8.3-3.5-21.5-10.1-29.5-14.8-8-4.6-19.9-12.4-26.5-17.4-6.6-4.9-16.7-13.3-22.5-18.5-5.8-5.3-15.6-15.4-21.7-22.6-6.2-7.2-14.8-17.7-19.1-23.5-4.3-5.8-11.9-16.6-16.9-24-5-7.4-12.2-19.8-16.1-27.5-3.9-7.7-9.4-19.4-12.2-26-2.9-6.6-8.8-22.6-13.2-35.5-4.3-12.9-8.8-27.8-9.9-33-1.1-5.2-3.3-18.1-5-28.5-2.1-13.3-3.6-27.6-4.7-47.5-1.4-23.9-1.5-31.6-0.5-47.5 0.6-10.5 2-26.2 3.2-35 1.1-8.8 3.2-22.1 4.6-29.5 1.5-7.4 3.7-17.8 5-23 1.4-5.2 4.7-16 7.4-24 2.7-8 7.5-20.8 10.8-28.5 3.2-7.7 8.9-19.8 12.7-27 3.8-7.2 11-19.5 16-27.5 5-8 13.5-20.1 19-27 5.4-6.9 14.2-17.2 19.5-23 5.3-5.8 14.1-14.6 19.6-19.6 5.5-5.1 15.6-13.2 22.5-18.1 6.9-4.9 17.9-12.2 24.5-16.3 6.6-4.1 17.8-10.2 25-13.6 7.1-3.3 19.3-8.1 27-10.7 7.7-2.5 20.3-6.2 28-8.1 8.9-2.2 19.9-4 30-5 8.8-0.9 18-1.8 20.5-1.9 2.5-0.2 10.8-0.4 18.5-0.5zm-9.5 95.9c16.2-0.1 18.7 0.1 34.5 3.3 9.6 2 22.4 5.4 29.5 7.9 6.9 2.5 16.3 6.4 21 8.7 4.7 2.4 12.1 7 16.5 10.3 4.4 3.4 12.3 9.6 17.5 13.8 5.2 4.2 14.3 12.6 20.1 18.5 6.6 6.8 13.9 15.8 19.4 23.9 4.9 7.2 11.5 17.7 20.6 34l18.6 279-3.2 9c-1.8 4.9-6.3 15.1-10 22.5-3.7 7.4-10.3 18.7-14.7 25-5.6 7.9-12.9 16.4-23.7 27.3-10.1 10.3-18.6 17.9-24.1 21.6-4.7 3.2-13.5 8.3-19.5 11.4-6.6 3.3-17.2 7.4-26.5 10.2-12.4 3.8-19.2 5.2-34 7.1-13.1 1.7-23.6 2.3-36 2.4-13.7 0-20.9-0.6-33-2.5-8.5-1.3-21.8-4.2-29.5-6.3-10-2.8-17.7-5.8-27-10.4-7.5-3.8-18.6-10.5-26.1-15.9-7.1-5.2-18.2-14.1-24.5-19.9-6.3-5.9-15.6-15.8-20.9-22.5-5.2-6.6-13.3-18-18-25.5-4.7-7.4-11.8-20.5-15.7-29-4-8.5-9.7-22.5-12.7-31-3.1-9.1-6.9-22.5-8.9-32.5-2-9.3-4.7-24.9-6.1-34.5-2-13.4-2.6-21.8-2.7-36 0-10.2 0.5-24.3 1.1-31.5 0.6-7.2 2.5-21.3 4.2-31.5 1.9-11.9 4.9-24.9 8.3-36.5 3.6-12.1 7.7-23.2 12.7-34 4-8.8 11.3-22.6 16.3-30.5 4.9-8 11.2-17.7 13.9-21.5 2.8-3.8 9.1-11.4 14.1-16.8 4.9-5.5 12.8-13.1 17.5-17 4.7-4 13.9-10.7 20.5-15.1 6.6-4.4 18.2-11 25.7-14.8 7.6-3.7 20.2-8.9 28-11.5 7.9-2.5 19.9-5.6 26.8-6.9 9.5-1.6 16.8-2.2 30-2.3zm-1.3 261.9c0.7 8 1.9 17.9 2.7 22l1.4 7.5c0.2-27.4-0.3-36.1-1.3-42-0.9-5-2-10.3-2.4-12-0.7-2.6-0.9-2.1-1.2 3.5-0.2 3.6 0.1 13 0.8 21z"/><path class="f" d="m2334 874c-6.9 0.4-14.1 1.2-16 1.9-1.9 0.6-7.1 1.6-11.5 2.2-4.4 0.6-10.9 2-14.5 3.1-3.6 1.1-12.1 4.1-19 6.7-6.9 2.5-19.9 8.6-29 13.6-9.1 5-21 12.4-26.5 16.5-5.4 4.1-13.9 11.3-18.8 16-4.9 4.7-11.7 12.1-15.1 16.5-3.4 4.4-8.4 11.1-11.2 15-2.8 3.9-7.4 11.5-10.1 17-2.8 5.5-6.4 13.1-8.1 17-1.6 3.9-5.2 14-8 22.5-3.7 11.3-5.9 20.5-8.1 34-1.6 10.2-3.7 27.3-4.6 38-1.3 15.5-1.4 22.1-0.6 32 0.6 6.9 1.5 15 2 18 0.6 3 2.3 11.3 3.9 18.5 1.7 7.2 5 18.4 7.5 25 2.4 6.6 6.8 16.7 9.7 22.5 2.9 5.8 8.8 15.7 13.1 22 4.2 6.3 10.7 15.1 14.2 19.5 3.6 4.4 6.4 8.1 6.4 8.3-0.1 0.2-11.3-2.3-24.9-5.5-13.6-3.2-24.9-5.6-25.1-5.3-0.2 0.3-3 68.5-6.3 151.5l-5.9 151c44.2 19.1 66.9 28 79 32.1 15.9 5.4 26.9 8.4 39.5 10.9 9.6 1.8 22 3.9 27.5 4.6 6.9 0.8 18.5 1 37.5 0.6 15.2-0.4 32.4-1.3 38.5-2.2 6.1-0.8 17.3-2.6 25-4 7.7-1.4 18.1-3.7 23-5.1 4.9-1.4 16.1-5.3 24.8-8.5 8.6-3.2 20.8-8.4 26.9-11.5 6.2-3.1 16.7-9.1 23.3-13.3 6.6-4.2 17.6-12.2 24.5-17.7 6.9-5.6 17.6-15 23.9-21 6.2-6 14.4-14.7 18.1-19.4 3.7-4.7 10.7-14.6 15.5-22 4.8-7.4 11.2-18.3 14.1-24.3 3-5.9 7.7-16.3 10.4-23.2 2.8-6.9 6.4-18 8.1-24.8 1.7-6.7 3.9-19 5-27.2 1.1-8.3 2.2-24.7 2.6-36.5 0.5-19.2 0.3-23-1.6-35.5-1.3-7.7-4.5-22.8-7.1-33.5-3.7-14.7-6.7-23.7-12-36.5-3.9-9.3-11.1-24.4-16-33.5-4.9-9.1-10.6-18.9-12.7-21.9l-3.8-5.5c19.7-195.4 25.4-253.7 25.5-255.6v-3.5c-56.2-17.5-81.3-24.6-92-27.1-10.7-2.4-24.2-5.1-30-5.9-5.8-0.8-13-1.9-16-2.5-3-0.6-10.9-1.7-17.5-2.6-7.1-0.9-22.9-1.6-38.5-1.9-14.6-0.1-32.1 0-39 0.5z"/><path fill-rule="evenodd" class="g" d="m770.5 1580.6l94 7.8c140.3-16.6 181.8-21.5 182.8-21.4 1.5 0 1.8 1.4 2.2 10l0.5 10c4.3 0.1 75.6-4.5 161.4-10.2l155.9-10.3c-1.4-38.9-1.5-40.1-3.6-42-1.2-1.1-6.7-7.2-12.3-13.5-5.5-6.3-14.9-18-20.9-26l-10.8-14.5c1 10.8 1.6 22.6 1.9 33l0.7 19c-175.8 11.3-227.9 14.6-229.3 14.5h-2.5l-12-195.5-43-0.5c-7.6 116.6-10.3 157.3-10.9 165.5l-1.1 15-158 18.9-51-3.7c21.6-499.3 28-644.4 28.3-644.7 0.2-0.3 48.5 2.7 107.3 6.5l106.9 7c-0.1 24.8-1.1 70.4-2.3 117.3l-2.2 85.2h24.5c-0.2-29.8-0.7-61.6-1.3-89.9l-1.2-51.5 29-27.2c128.7-1.9 171.8-2.4 179-2.4h13c3.5 77.9 4.6 101.6 4.6 103 0 2.5 0 2.5 1.6-0.5 0.8-1.6 5.7-9.5 10.7-17.5 5-8 13.5-20.1 19-27l9.9-12.5c-1-10.1-2-31.3-3-53.8l-1.8-40.7c-23.3 0-69.6 0.9-118 2-48.4 1.1-94.6 2-102.8 2h-14.7v-31.5c-227.5-14.4-294.6-18.6-296-18.5h-2.5zm89-87.6c4.6 0.1 32.4-3.2 64.7-7.2 55-6.8 58.9-7.4 59.2-9.3 0.3-1.1 3.1-43.1 6.2-93.3l5.9-91.2c18.6 0.1 46.5 0.9 74 1.8l50 1.7c8.3 147.3 11 190.2 11.2 190.5 0.2 0.3 33.2-1.5 73.3-4l73-4.5c0-9.3-1-32.7-2.1-58l-2-46c-6.8-20.9-9.5-30.6-10.4-35-0.9-4.4-3-16.5-4.7-27-2.1-13.3-3.5-27.6-4.7-47.5-1.4-23.9-1.5-31.6-0.5-47.5 0.6-10.4 2.1-26.4 3.3-35.5 1.2-9.1 3.2-21.6 4.4-27.9l2.2-11.4-7-156.9c-105.4 1.1-136.5 1.8-137 2.2q-1 0.8 0.1 38.2c0.7 20.5 1.2 58.1 1.3 83.6l0.1 46.2h-111.5c1.7-82.5 2.5-128.5 2.9-155.5l0.8-49c-95.1-5.9-124.1-7.6-125.8-7.5h-3z"/><path class="h" d="m2538.1 63.6c-5.1 23.1-9.5 42-9.7 42.1-0.2 0.2-8.4-13.7-18.1-30.7-9.8-17.1-18.2-31.1-18.8-31.1-0.6 0-71.2 13.4-157 29.8l-156 29.8c136.9 244.1 186.7 333.4 199 356 12.2 22.6 25.6 47.6 29.6 55.7l7.4 14.8-33 206.5c215.4 46.1 278.7 59.5 279.5 59.5 1.1 0 2.4-4.1 5.3-16.7 2.1-9.3 9-38.4 15.3-64.8 6.3-26.4 30.1-121.8 53-212 22.8-90.2 47.6-187.9 55.1-217 7.4-29.1 15.5-59.8 17.9-68 2.4-8.3 12.9-40.7 23.2-72.2 10.3-31.5 18.5-57.4 18.2-57.6-0.3-0.3-66.9-15-148-32.7-81.1-17.7-148.8-32.4-150.5-32.7l-3-0.5z"/><path fill-rule="evenodd" class="a" d="m1073.4 21h2.6c1.4 0 81.5 8.8 178 19.5 96.5 10.8 175.6 19.7 175.8 19.8 0.1 0.1 0.9 10.8 1.7 23.7 0.9 12.9 1.4 23.6 1.3 23.6-0.2 0.1-70.7-7.6-156.8-17.2-86.1-9.5-157.8-17.3-162.5-17.4l-26 634.5 182.5 8.8c100.4 4.8 183.8 8.8 188.5 8.7l1.3-20.7c0.8-11.5 1.9-32.6 2.5-47 0.7-14.3 1.4-26.3 1.7-26.6 0.3-0.3 2.4 31.7 4.8 71.1 2.3 39.4 4.1 71.8 4 72-0.2 0.1-97.1-4.6-430.3-21.3zm373.7 319.5c0.9 14.9 1.7 29.6 1.8 32.8 0.1 5.6 0 5.7-5.4 5.7l-8 93.8 19.5 1.2 0.4 6.3c0.3 3.4 1 14.3 1.5 24.2 0.6 9.9 0.9 18.1 0.8 18.1-0.1 0-36-3.6-159.2-16.1l0.2-7.7c0.2-6.6 0.5-7.8 2-7.8 1 0 20.7 2.7 43.8 6 23.1 3.3 42.6 6 43.5 6 1.2 0 2.6-13.9 9-89 6.8-81.2 7.6-89 9.2-89 1 0 8.7 1.1 17.3 2.5 8.5 1.4 16.4 2.5 17.5 2.5 1.7 0 2-0.8 2.5-5.7 0.3-3.2 0.9-6.9 1.2-8.3 0.4-1.4 1.5 9.7 2.4 24.5zm-787.6 647.7c14-0.1 24.9 0.4 36.5 1.8 9 1 20.7 2.6 26 3.5 5.2 0.9 13.5 2.7 18.5 4.1 4.9 1.4 13.6 4 19.2 5.9 5.6 2 10.3 4.1 10.3 4.8 0 0.7-5 34.6-22.5 149.4l-18-6c-9.9-3.2-23.2-7-29.5-8.3-6.4-1.4-17.4-3.2-24.5-3.9-7.2-0.8-16.1-1.4-19.8-1.5-3.8 0-11 1.1-16.5 2.4-5.4 1.3-13.3 4.1-17.7 6.3-4.4 2.1-11.4 6.3-15.5 9.3-4.1 3-8.9 7.1-10.5 8.9-1.7 1.9-4.1 5-5.5 7-1.3 2-4.9 8.6-7.9 14.6-3.4 6.9-6.7 15.7-8.8 23.5-1.9 6.9-4.7 20.5-6.4 30.3-2 12-2.9 21.2-2.9 28.5-0.1 5.9 0.8 16.8 1.9 24.2 1.1 7.4 3 17.1 4.3 21.5 1.2 4.4 4 10.9 6.1 14.5 2.2 3.6 6 8.7 8.5 11.3 2.6 2.7 7.6 6.7 11.1 9 3.6 2.3 9.6 5.3 13.5 6.6 6.2 2 9.5 2.4 27.1 2.8 19.8 0.5 20.1 0.5 39.5-3.1 10.7-2 25.5-5.2 33-7 7.4-1.9 18.9-4.4 25.6-5.7 6.7-1.3 12.4-2.2 12.6-1.9 0.3 0.3 4.8 33.1 10.1 73 5.3 39.9 9.7 73.2 9.7 74 0 1.1-6.7 3.4-25.3 8.7-15.9 4.6-33.9 8.9-48.7 11.7-18.1 3.4-28.1 4.7-43 5.6-12.4 0.8-27.2 1-40.5 0.6-15.1-0.5-23.9-1.3-31-2.7-5.5-1.2-14.1-3.2-19-4.6-5-1.3-13.3-3.8-18.5-5.5-5.3-1.8-13.6-5.5-18.5-8.3-5-2.8-12-7.1-15.5-9.5-3.6-2.4-10.6-7.4-15.5-11.1-5-3.7-11.3-9.1-14.1-12-2.8-3-7.8-8.8-11.1-12.9-3.2-4.1-8.2-11.1-11.1-15.5-2.9-4.4-6.8-11.4-8.8-15.5-2-4.1-6.1-12.9-9.2-19.5-4-8.9-7-17.7-11.4-34.5-5.6-21.1-6.1-24.3-9.4-53.5-2.5-22.3-3.5-35.6-3.5-47.5 0-9.1 0.9-28 2-42 1.1-14 2.5-29.3 3.1-34 0.6-4.7 2.2-13.9 3.6-20.5 1.4-6.6 4.3-16.9 6.4-23 2.1-6 5.2-14.8 6.9-19.5 1.7-4.7 5.2-12.5 7.8-17.5 2.5-4.9 6.9-12.6 9.7-17 2.8-4.4 10.2-14.1 16.6-21.5 7.5-8.9 15.9-17.3 24.4-24.5 7.1-6 15.9-13 19.5-15.5 3.6-2.5 9.7-6.3 13.6-8.5 3.8-2.3 13.9-6.8 22.5-10.2 8.7-3.5 22.4-7.9 31.5-10.2 8.8-2.2 21.6-5 28.5-6.2 6.8-1.2 16.5-2.5 21.5-2.9 4.9-0.4 18-0.7 29-0.8z"/><path fill-rule="evenodd" class="b" d="m1021 58.1c1.2-0.1 6.1 18.9 43.7 173.4l-3.3 75.5c-1.8 41.5-3.5 75.6-3.6 75.7-0.2 0.1-15.1-60.1-33.3-133.8-18.1-73.7-33.5-133.9-34-133.9-0.5 0-30.3 7.5-66 16.7-35.8 9.2-65.2 17-65.5 17.5-0.3 0.4 1.9 11.9 4.8 25.5 2.9 13.6 9 42.1 13.6 63.3 4.7 21.2 10.1 46.8 12.1 57 1.9 10.2 3.4 18.6 3.3 18.6-0.2 0.1-24.7 5.7-54.5 12.5-29.8 6.8-54.4 12.2-54.6 11.9-0.2-0.3-4.8-25.7-10.2-56.5-5.3-30.8-12.1-69.5-15.2-86-3-16.5-6.3-36.1-7.4-43.5-1-7.4-2.1-13.7-2.5-14-0.3-0.3-29.2 4.4-127.9 21.5l41.5 271.7c39.3 257.2 41.6 271.8 43.5 271.8 1.1 0 27.3-9.3 114.6-41.5l-0.1-3.5c-0.1-1.9-5.4-43.8-23.5-182.5l60.7-13c33.4-7.1 60.9-12.8 61.1-12.5 0.3 0.3 11.2 41.7 24.2 92 13 50.3 23.9 91.7 24.1 92 0.3 0.3 18.8-5.2 41.2-12.2 22.4-7 40.7-12.6 40.7-12.5 0 0.1-0.4 11.1-1 24.4-0.5 13.4-1.4 24.6-2 25.1-0.5 0.6-25.2 8.6-54.7 17.8-29.6 9.3-53.9 16.7-54.2 16.4-0.2-0.3-11.1-42.6-24.1-94-13-51.4-23.9-93.7-24.1-94-0.3-0.3-10 1.5-42.9 8.4l5.2 40c2.9 22.1 7.9 61.5 11.2 87.6 3.4 26.1 6.1 48.6 6.1 50 0 2.4-2.9 3.6-152.5 58.7l-23.7 3.4c-13 1.9-23.9 3.2-24.1 2.9-0.2-0.3-22-143.4-96.2-635.5l105.7-18.5c58.1-10.2 105.9-18.3 106.1-18 0.2 0.3 8 44.8 17.2 99 9.2 54.2 16.8 98.6 16.9 98.8 0 0.2 5.4-0.9 11.9-2.5 8.6-2 11.7-3.2 11.7-4.3 0-0.8-6.5-31.6-28.5-135.4l22.9-34.1 92-23.7c50.7-13 92.8-23.7 93.6-23.7zm92.4 14.9h3.1c1.6 0.1 73.3 7.8 159.1 17.3 85.9 9.5 156.5 17.4 156.8 17.7 0.3 0.3 3.4 46 6.7 101.5 5.5 90 6 102.1 5 110.8-1 8.7-1.3 9.7-3.1 9.7-1.1 0-9-1.1-17.5-2.5-8.5-1.4-16.3-2.5-17.2-2.5-1.6 0-2.5 7.7-9.3 89-6.3 75.1-7.7 89-9 89-0.8 0-20.4-2.7-43.5-6-23.1-3.3-42.8-6-43.7-6-1.5 0-1.8 1.1-2.3 15.6l79 7.8c43.5 4.4 79.3 8.2 79.8 8.5 0.4 0.3 2.1 22.7 3.8 49.6 2.8 45.4 2.9 50.7 2 72-0.6 12.7-1.9 35.9-4.6 80.5l-3 0.1c-1.7 0-85.1-4-368-17.6zm978.6 5v3.8c0 2-1 17.2-2.1 33.7-1.1 16.5-1.9 31-1.7 32.2 0.2 1.6 5.7-6.5 19-28.2 17.2-28 19-30.5 21.5-30.5 1.5 0 7.9 0.7 14.3 1.5 6.3 0.7 13.3 2 15.5 2.8 2.2 0.8 10.3 2.7 18.2 4.3 7.8 1.6 13.6 3.2 13 3.6-0.7 0.4-3.5 1-11.2 2.1l13.1 23.6c7.3 13 13.1 23.7 13 23.9-0.1 0.1-12.1-2.2-26.6-5.3-14.6-3-27.6-5.7-28.8-6-2-0.4-7.4 7.9-58 90-32.4 52.5-55.9 89.7-56.1 88.7-0.2-0.9 2.3-43.8 5.5-95.4 3.2-51.5 5.5-94 5-94.5-0.4-0.4-33.5 0.8-146.1 6.1l-20 535.2 71 7.2c39 4 71.6 7.3 72.5 7.3 1.3-0.1 1.6-12.8 4.5-204.5l57.2 87.2c52.8 80.4 57.5 87.2 60 87.2 1.5 0.1 35.6-2.5 75.8-5.6 40.1-3.2 73.1-5.9 73.2-6 0.1-0.2-35.4-52.7-158.2-232.9l55.2-91c30.4-50 55.8-91 56.3-91 0.6 0 6.3 9.5 24.7 42l-83.2 138 93.7 137.8c51.6 75.7 93.6 137.9 93.5 138.1-0.1 0.1-56.5 4.9-125.2 10.5-68.8 5.6-126.1 10.2-127.3 10.2-1.8-0.1-6.9-7.3-54.7-81.5l-1 56.7c-0.9 49.3-1.2 56.7-2.5 56.8-0.9 0-53.1-5.3-230.5-23.5l24-623.1 107.5-5.6c59.1-3.1 111.6-5.7 126-5.9zm-277 12l-0.6 10.8c-0.3 5.9-2.1 53.8-4 106.5-1.9 52.6-3.4 97.1-3.4 101.7h-17v14.3c0 7.8 0.7 41.4 1.5 74.7 0.8 33.3 1.4 66.9 1.5 89h-90v15.5l38.2-0.7c21-0.5 42.9-1.1 58.9-2.3l-0.6 11.5c-0.3 6.3-0.8 17.1-1.7 36.5l-42.2 1.3c-23.2 0.7-53.2 1.6-91.1 2.5l-3.8-53.9c-2.1-29.6-3.8-54.9-3.7-58.4h92l-0.6-53.7c-0.4-29.6-0.9-54.1-1.3-54.4-0.4-0.3-22.1-1.7-96.1-5.4v-66.5l136.5 1.3 2.5-60.6c1.3-33.3 2.1-60.9 1.6-61.4-0.4-0.4-61.4 0.1-270.1 3.1l32 535.6h3c1.6 0 55.6-4 120-9 64.3-4.9 117.1-8.8 117.2-8.7 0.2 0.1-0.2 11-0.7 24.2-0.5 13.2-1.1 24.1-1.3 24.1-0.1 0-62.6 4.7-138.9 10.5-76.3 5.7-138.9 10.2-139.1 9.9-0.2-0.3-8.9-142.9-38.2-633.5l145.5-2.1c80-1.1 156.4-2.1 194-2.4zm-1394.5 11.6c15.5 0.3 29.6 1.2 43.5 2.8 12.6 1.5 26.9 4 37.5 6.5 9.3 2.2 18.8 4.6 21 5.4 2.6 0.9 4.2 2.2 4.7 3.8 0.4 1.3 8.2 51.2 33.7 219.4l-9.5 61c-5.2 33.6-9.6 61.7-9.7 62.5-0.1 0.8-14.2-16.7-31.3-39-30.1-39.3-31.1-40.5-35.9-42.3-2.8-1-14.9-3.9-27-6.3-19.3-3.9-23.3-4.5-32-4.1-7.7 0.2-11.5 0.9-16.4 2.8-5.5 2.1-7.2 3.5-13.5 10.9-6.1 7.2-7.9 10.2-11.3 19-3.9 10-4.3 11.6-6 30.5-1 11-1.8 24.1-1.7 29 0 7.4 0.6 10.4 2.9 16.8 2.7 7 3.3 7.8 7 9.4 2.8 1.2 7.8 1.8 17.5 2.1 11.8 0.4 15.7 0 31.5-2.7 9.9-1.7 30.1-5.8 45-9.1 14.8-3.2 39-8.1 53.6-10.7 14.7-2.6 26.9-4.6 27.1-4.3 0.3 0.3 8 57.4 17.1 127 9.2 69.6 16.7 127.2 16.7 128 0 1-6.4 4.2-19.8 9.7-10.8 4.4-30.1 11.5-42.7 15.6-12.7 4.2-28.2 8.7-34.5 10.1-6.4 1.4-18.1 3.7-26 5.1-8 1.4-23.1 3.5-33.5 4.5-13.7 1.5-26.2 2-44.5 2-24.9 0-26.2-0.1-50.5-3.9-15.2-2.4-30.6-5.6-39-8-7.7-2.1-18.5-5.6-24-7.7-5.5-2.2-14.1-6.1-19-8.8-5-2.6-13.8-7.8-19.5-11.4-5.8-3.7-15.7-11-22-16.3-6.4-5.3-13.6-11.9-16.1-14.5-2.5-2.7-7.5-8.5-11.1-12.9-3.5-4.4-9.1-11.6-12.4-16-3.3-4.4-8.3-11.6-11.2-16-2.9-4.4-9.5-17-14.8-28-6.1-12.8-12.2-27.6-16.9-41-4.5-12.9-9.3-29.2-12.4-42.5-4-17-5.4-25.2-6.6-39.5-1.2-13-1.6-29.7-1.6-60.5 0-39.5 0.2-43.9 2.6-63 1.5-11.7 4.5-29.1 7.1-40.5 2.5-11 7.5-29 11.1-40 4.8-14.9 8.7-24.3 15-37 5-9.9 13.1-23.9 19.6-33.5 6-9.1 14.1-20.1 18-24.5 3.8-4.4 10-11.1 13.7-15 3.7-3.8 10-9.9 14.1-13.6 4-3.6 10.9-9.2 15.3-12.5 4.4-3.2 15.6-10.4 25-15.9 12.1-7.1 22-12 34.1-16.9 9.3-3.7 24.6-8.9 34-11.6 9.3-2.6 23.5-6 31.5-7.5 7.9-1.5 22.3-3.8 32-5 15.2-2.1 20.4-2.3 40.5-1.9zm1944 818.6c13.7-0.2 20.8 0.4 50 4.3 22.9 3 39.6 5.7 51.5 8.5 9.6 2.2 25.9 6.6 36.2 9.8 16.2 4.9 18.8 6 18.8 7.7 0 1.1-4.6 46.6-10.2 101-5.6 54.5-10.3 99.2-10.5 99.5-0.3 0.3-11.1-2.4-24.1-5.9-13.1-3.5-24.4-6.6-25.2-6.9-0.9-0.2 6.6 7.8 16.6 17.9 9.9 10.1 23 24.5 28.9 31.9 8.3 10.2 13.7 18.4 22.3 33.5 6.3 11 12.5 22.2 13.8 24.8 1.3 2.6 4 9.6 6 15.5 2 5.9 4 11.5 4.5 12.5 0.5 0.9 1.8 6.1 2.9 11.5 1.1 5.3 2.9 15.3 4 22.2 1.1 7.3 1.9 17.5 1.9 24.5 0 6.6-0.9 20.1-1.9 30-1.1 10.1-3 22-4.4 27-1.4 5-4.3 13.7-6.4 19.5-2.2 5.8-5.6 13.9-7.4 18-1.9 4.1-5.9 11.1-8.8 15.5-3 4.4-9.1 13-13.6 19-4.5 6.1-11.7 14.4-16 18.5-4.4 4.2-13.3 12.1-19.9 17.6-6.6 5.5-16.8 12.9-22.5 16.5-5.8 3.7-14.8 8.8-20 11.4-5.3 2.6-15.8 7-23.5 9.7-7.7 2.7-20.6 6.7-28.5 8.8-8.3 2.2-21.6 4.9-31 6.1-15 2-19.4 2.2-78.5 1.1l-22-4.9c-16.8-3.8-25.3-6.3-35.5-10.5-7.5-3-19.4-7.9-39.5-16.2l3.9-106c2.1-58.4 4.1-106.3 4.3-106.6 0.2-0.3 9.9 1.5 21.5 3.8 11.7 2.4 28.2 6.1 36.8 8.3 8.5 2.1 22.4 5.5 31 7.5 8.5 1.9 22.3 4.7 30.7 6 8.5 1.3 19.6 2.4 25 2.4 5.4 0 11.9-0.3 14.6-0.7 3.4-0.5 5.2-1.4 5.9-2.8 0.6-1.1 1.2-5.4 1.5-9.5 0.4-6.8 0.2-8-2.4-13-2.3-4.3-4.7-6.8-11.4-11.8-4.6-3.5-14.1-9.3-20.9-12.9-6.9-3.6-20.4-10.7-30-15.7-9.7-5-22.5-12.2-28.5-16.1-6.1-3.8-14.6-9.8-19-13.4-4.4-3.5-11.1-9.4-14.9-13-3.8-3.6-9.9-11.1-13.6-16.6-3.7-5.5-9-14.5-11.8-20-2.8-5.5-6.8-14.3-8.8-19.5-2-5.2-4.4-12.2-5.4-15.5-1-3.3-2.3-8.9-2.9-12.5-0.6-3.6-1.6-11.7-2.2-18-0.9-9.8-0.7-14.4 1-31 1.1-10.7 2.9-25.1 4-32 1.1-6.9 3.7-17.9 5.8-24.5 2.2-6.9 6.3-16.7 9.7-23 3.2-6 9.4-16.4 13.8-23 4.4-6.6 10.8-14.8 14.1-18.4 3.4-3.5 11.6-10.4 18.3-15.5 7.2-5.3 16.8-11.4 23.5-14.8 6.3-3.1 15.9-7.2 21.4-9.1 5.5-1.9 14.5-4.7 20-6.3 5.6-1.5 16.7-3.5 25.5-4.4 8.5-0.9 22.7-1.8 31.5-1.8zm-822.3 167.9c6.8-0.1 12.2 0.6 18 2 4.6 1.2 13.5 4.8 20.3 8.1 6.9 3.5 14.5 8.2 17.9 11.2 3.3 2.8 8.4 8.5 11.5 12.6 3.1 4.1 7.9 11.8 10.8 17 2.8 5.2 6.9 14 9.1 19.5 2.1 5.5 5.3 15.2 7 21.5 1.7 6.3 4.3 18.7 5.9 27.5 2.6 15 2.8 17.9 2.7 43.5 0 24.3-0.3 28.9-2.3 39-1.2 6.3-3.6 16.2-5.3 22-1.7 5.9-5.6 15.5-9 22-3.2 6.3-8.1 14.3-10.9 17.8-2.7 3.4-7.5 8.3-10.7 10.8-3.2 2.6-9.6 6.4-14.2 8.6-5.5 2.6-12.3 4.8-19 6.1-9.6 1.9-11.3 2-19.5 0.8-5-0.7-13.1-2.7-18-4.4-5-1.7-11.3-4.5-14-6.2-2.8-1.8-9.1-7.9-14.1-13.6-6.9-7.8-10.5-13.1-14.7-21.4-3.1-6-7.3-14.8-9.3-19.5-2-4.7-5-13.2-6.6-19-1.6-5.8-4-17-5.3-25-1.6-9.7-2.6-21.1-3-34.5-0.5-12.5-0.3-25.4 0.5-34.5 0.6-8 2.4-20.6 4-28 1.6-7.4 4.4-18 6.3-23.5 1.8-5.5 5.2-13.7 7.5-18.2 2.3-4.6 6.7-11.5 9.9-15.5 3.2-4 8.9-10 12.8-13.4 3.8-3.3 9.2-7.2 12-8.6 2.7-1.4 6.1-3 7.5-3.6 1.3-0.6 6.8-1.1 12.2-1.1zm13.5 147.9c0.6 8 1.8 17.9 2.6 22l1.4 7.5c0.2-27.4-0.3-36-1.3-42-0.8-4.9-1.9-10.3-2.4-12-0.7-2.5-0.9-2-1.2 3.5-0.2 3.6 0.2 13 0.9 21zm1248 445.1c11.2-0.1 13.1 0.2 22 3 5.4 1.8 12.2 4.4 15.3 5.9 3 1.5 7.2 4.7 9.2 7.1 2.1 2.4 4.3 6 4.8 7.9 0.5 1.9 0.9 5.2 0.9 7.3 0.1 3-0.8 4.6-8.4 12.9l-6-0.4c-4.9-0.3-8.2-1.4-28.5-11.8h-10.3c-7.3 0-11.6 0.5-15 1.8-2.7 1-6.8 3.8-9.8 6.7-2.8 2.8-6.1 6.8-7.3 9-1.2 2.2-2.9 5.6-3.6 7.5-0.7 1.9-1.8 8-2.4 13.5-1 8.3-0.9 11.6 0.4 19 1.2 6.6 2.6 10.9 5.4 16 2.7 4.9 5.7 8.6 10 12.1 4.5 3.8 7.5 5.4 11.6 6.4 3.2 0.8 8.1 1.1 12 0.7 3.5-0.3 8-1 10-1.6 1.9-0.6 5.7-3 8.5-5.4 2.7-2.4 6.2-6.1 7.6-8.3 1.7-2.4 2.9-5.9 3.9-14.4h-13c-10.7 0-13.5-0.3-15.8-1.7-1.5-1-3.7-2.9-4.9-4.3-1.5-1.7-2.4-4.4-2.9-8.5-0.5-4.8-0.2-6.6 1.2-9.2 1-1.8 3-3.7 4.4-4.4 1.3-0.6 4.5-1.7 7-2.4 2.7-0.9 12.7-1.7 25.5-2.1 19.7-0.6 21.2-0.5 25 1.3 2.9 1.5 4.5 3.2 5.9 6.4 1.4 3.3 2 7.5 2.4 16.4 0.3 10.1 0 13.3-1.8 20-1.2 4.4-3.5 10.7-5 14-1.7 3.6-5.8 9.2-10.3 14-4.1 4.4-9.9 9.6-12.8 11.5-3 1.9-8.8 4.8-12.9 6.4-6.8 2.6-9 3-22.5 3.4-11.9 0.4-16.5 0.2-22-1.2-3.9-0.9-10.2-3.3-14.1-5.4-3.9-2-9.5-5.7-12.5-8.1-3-2.5-7.5-7-10-10-2.5-3.1-6.2-8.7-8.2-12.6-2-3.8-4.8-10.1-6.1-14-1.3-3.8-2.7-9.5-3.1-12.5-0.4-3-0.7-9.8-0.6-15 0-5.2 0.8-13.1 1.6-17.5 0.9-4.4 3-11.4 4.7-15.5 1.7-4.1 5.3-10.6 7.9-14.5 2.5-3.8 6.6-8.8 9-11.1 2.4-2.3 7.5-5.7 11.4-7.7 3.8-2 9.4-4.6 12.5-5.8 3-1.2 8.2-2.7 11.5-3.4 3.3-0.7 11.5-1.3 18.2-1.4zm-123.5 9c3.8-0.1 7.1 0.6 9.8 1.9 2.2 1.1 4.7 3 5.7 4.3 1 1.3 2.3 5 3 8.3 0.6 3.2 2.3 29.5 3.7 58.4 1.5 28.9 2.6 55.8 2.6 59.8 0 5.2-0.6 8.3-2 11.2-1.5 2.9-3.3 4.6-6.3 6-2.3 1.1-6 2-8.2 2-2.2 0-5.6-0.6-7.5-1.4-2.1-0.8-6.3-4.5-10-8.7-3.6-4.1-19.8-22.2-36.1-40.4-16.2-18.1-29.9-33.3-30.5-33.6-0.6-0.4-0.3 10.3 0.7 28 0.9 15.7 1.7 33.9 1.9 52.1l-8.5 9h-7.3c-4 0-8.3-0.5-9.5-1-1.2-0.6-3.3-2.6-4.5-4.5-1.2-1.9-2.7-6.1-3.2-9.2-0.6-3.2-2.4-29.6-4.1-58.8-1.7-29.1-3.1-56-3-59.7 0-5.2 0.6-7.6 2.2-10 1.2-1.8 3.4-4.3 5-5.5 1.6-1.3 4.8-2.6 7.1-2.9 2.3-0.4 5.5-0.4 7 0 1.5 0.3 4.4 2.1 6.4 3.9 2 1.8 19.5 20.5 38.8 41.7 32.6 35.8 35.1 38.3 35.4 35.5 0.1-1.6-0.7-16-1.8-32-1.2-15.9-2.1-32.2-2.1-36.2 0-5.9 0.5-7.9 2.3-10.5 1.2-1.8 3.4-4.3 4.7-5.5 2-1.7 3.8-2.2 8.3-2.2zm-159.5 9c2.4 0 6 0.8 8.3 1.9 2.2 1.1 4.6 3.3 5.4 4.8 0.7 1.5 1.9 5.4 2.5 8.7 0.6 3.3 2.4 29.4 4.1 58 1.6 28.6 3 55.3 3 59.3 0 5.2-0.6 8.3-2 11.2-1.5 2.9-3.3 4.6-6.3 6-2.3 1.1-6.4 2-9 2-2.6 0-6.2-0.7-8-1.6-1.8-0.9-4.3-2.9-5.5-4.5-2.2-2.8-2.4-5-5.8-60.6-1.9-31.8-3.5-61.4-3.5-65.8-0.1-5.8 0.4-9 1.7-11.7 1-2.1 3-4.3 4.4-5 1.3-0.7 3.4-1.5 4.5-1.9 1.1-0.4 3.9-0.7 6.2-0.8zm-89 3c9.4-0.1 12.6 0.3 19.3 2.4 5.1 1.6 9.2 3.7 11.6 5.8 2 1.8 4.2 4.5 5 6 0.7 1.5 1.4 4.5 1.4 6.7 0 2.2-0.6 5.5-1.4 7.3-0.7 1.8-2.6 4.2-4.2 5.5-2.5 1.9-4.1 2.3-10.2 2.3-4-0.1-8.4-0.5-9.7-1.1-1.4-0.5-6.3-1.3-10.8-1.7-6.8-0.5-9.1-0.3-13.2 1.2-2.8 1.1-5.8 2.8-6.8 4-0.9 1.1-1.7 3.1-1.7 4.5 0 1.4 0.5 3.9 1 5.5 0.6 1.7 2.5 3.8 4.3 4.7 1.7 1 8.6 3.1 15.2 4.9 6.6 1.7 14.7 4.2 18 5.4 3.3 1.2 9.1 3.8 13 5.8 3.8 1.9 8.3 5 10 6.8 1.6 1.9 3.9 5 5.1 6.9 1.2 1.9 2.9 6.8 3.7 10.8 0.9 4 1.7 10 1.7 13.5 0 3.4-0.9 9.5-2 13.5-1.1 4-2.9 8.9-3.9 11-1.1 2-4.8 6.4-8.3 9.6-3.5 3.3-9.3 7.4-12.8 9.1-3.9 2-10.2 3.9-15.5 4.9-5 0.9-12.9 1.6-17.5 1.6-4.7 0-13-0.8-18.5-1.8-5.5-1.1-12.3-3-15-4.3-2.7-1.3-6.2-3.7-7.8-5.4-1.6-1.6-3.4-4.1-4-5.5-0.5-1.4-0.9-4.4-0.9-6.7 0.1-2.4 1-6 2-8 1.1-2.1 2.8-4.6 3.8-5.5 1.2-1.2 4.1-2 7.9-2.4 4.5-0.4 8.3 0.1 16 2 7.6 2 12.4 2.6 30.7 2.6l4.3-4.2c3.6-3.5 4.4-5 4.4-8 0-2.1-0.6-5.1-1.4-6.8-0.9-1.6-3.2-3.8-5.3-4.9-2.1-1-10-3.7-17.7-6-7.7-2.2-15.8-4.6-18-5.3-2.2-0.7-7.2-3.1-11-5.3-3.8-2.2-8.2-5.6-9.7-7.5-1.6-1.9-3.9-5.7-5.2-8.5-1.7-3.6-2.6-7.7-3.2-14.5-0.6-7.8-0.4-10.5 1.2-15.5 1-3.3 2.9-8 4.3-10.6 1.4-2.5 3.9-6.1 5.6-8 1.6-1.8 4.8-4.5 7-6 2.2-1.4 6-3.7 8.5-5 2.4-1.3 7.8-3.1 12-4 4.2-0.9 12.4-1.7 18.7-1.8zm-126.2 7.1c5.4-0.1 10.4 0.5 15.5 1.9 4.1 1.2 8.7 2.8 10.2 3.5 1.5 0.8 4.3 3.6 6.3 6.2 2.8 3.8 3.5 5.6 3.5 9.2-0.1 2.8-1 6.1-2.3 8.5-1.3 2.2-3.8 4.8-5.8 5.8-2.8 1.5-4.9 1.8-10.9 1.3-4.2-0.3-9.8-1.3-12.5-2.1-3.5-1.1-7-1.4-11.3-1-3.4 0.3-7.5 1.3-9 2.3-1.5 0.9-3.4 2.6-4.2 3.7-0.9 1.1-1.8 3.1-2.1 4.5-0.3 1.4-0.1 3.7 0.5 5.2 0.6 1.5 2.4 3.5 4.1 4.5 1.6 1 11.7 4.3 22.5 7.3 16.2 4.7 20.5 6.3 25.5 9.7 3.3 2.3 7.4 5.6 9.2 7.5 1.7 1.8 4.4 6 6 9.3 2.6 5.7 2.8 6.8 2.8 34.1l-3.7 7.5c-2 4.1-5.8 9.6-8.5 12.4-2.7 2.8-7.5 6.5-10.8 8.2-3.3 1.7-9.4 4.1-13.5 5.3-6.1 1.6-10.4 2-22 2-9.7 0-16.5-0.5-20.5-1.6-3.3-0.8-8.1-2.2-10.5-3.1-2.5-0.9-5.9-2.6-7.5-3.7-1.7-1.1-4-3.2-5.2-4.6q-2.2-2.5-2.9-8.5c-0.5-4.6-0.2-6.8 1.1-9.5 0.9-1.9 2.9-4.5 4.5-5.7 1.7-1.3 5.1-2.6 8.2-2.9 4-0.6 6.6-0.2 11.3 1.4 3.3 1.1 8.7 2.6 12 3.3 3.3 0.6 9.6 0.9 14 0.7 4.6-0.3 9.3-1.1 11.2-2.1 1.8-0.9 4.2-3.1 5.3-4.9 1-1.8 1.9-4.6 1.9-6.3 0-1.6-0.8-4.3-1.8-6-0.9-1.6-3.3-3.9-5.2-5.1-1.9-1.2-10.6-4.3-19.4-6.9-8.8-2.6-17.4-5.1-19-5.6-1.7-0.5-5.7-2.4-9-4.1-3.8-2.1-7.3-5-9.5-8-2-2.5-4.3-6.8-5.2-9.5-1-2.6-2-8.8-2.4-13.8-0.6-7.5-0.3-10.1 1.3-15.5 1.1-3.6 2.9-8.3 4-10.5 1.2-2.2 3.6-5.4 5.4-7.1 1.9-1.6 5.2-4.4 7.4-6 2.2-1.6 5.8-3.8 8-4.8 2.2-1 5.8-2.5 8-3.3 2.2-0.8 6.9-1.9 10.5-2.3 3.5-0.4 10.1-0.8 14.5-0.8zm-103.5 8.9c2.2-0.1 4.7 0.7 6.9 2.1 1.8 1.3 4.2 3.4 5.3 4.8 1 1.4 2.2 4.8 2.5 7.5 0.3 3.6 0 6-1.1 8.3-0.9 1.8-3.3 4.4-5.4 5.8-3.5 2.3-4.9 2.6-44.7 4.8l2 27.6h5c2.7 0 11.1-0.4 18.7-1 12.9-0.9 14-0.8 17.8 1 2.8 1.4 4.5 3.3 5.9 6.3 1.1 2.3 2 6 2.1 8.2 0 2.6-0.8 5.2-2.3 7.4-1.2 1.9-3.4 4.3-4.7 5.3-2.1 1.6-5.6 2.1-41.5 4.2l2 27.8 21.5-0.7c21.4-0.7 21.5-0.7 24.9 1.7 1.8 1.3 4.2 3.4 5.3 4.8 1 1.4 2.2 4.8 2.5 7.5 0.3 3.6 0 6-1.1 8.3-1.2 2.3-3.3 4-7.4 5.9-5.3 2.5-7.5 2.8-26.7 4-11.6 0.7-25.4 1.2-30.8 1.3-8.6 0-10.2-0.3-13.5-2.3-2.1-1.4-4.5-3.3-5.5-4.3-1.5-1.6-2.2-9.2-5.3-58.9-1.9-31.3-3.5-60.7-3.5-65.2 0.1-7.1 0.4-8.7 2.3-11.1 1.2-1.5 3.6-3.9 5.3-5.2 2.8-2.2 4.2-2.4 31.5-4 15.6-0.9 30-1.8 32-1.9zm-144.3 8.1c2.3-0.1 7.5 0.5 11.5 1.4 4 0.8 9.7 2.9 12.8 4.5 3 1.6 7.7 4.9 10.5 7.3 3.3 2.8 5.9 6.3 7.7 10.2 1.4 3.3 3.4 8.8 4.3 12.4 1.3 4.9 1.5 8.5 1 14.5-0.5 6.3-1.4 9.7-4.3 15.9-2.5 5.2-5.3 9.3-8.2 12-2.9 2.7-7.2 5.2-19.5 9.9l16 15.2c8.8 8.4 17.3 16.7 19 18.6 2 2.2 3.4 5.1 3.9 7.9 0.5 3 0.3 6-0.6 9-1.1 3.5-2.3 5-5.8 7.2-2.5 1.6-5.9 3.1-7.5 3.4-1.7 0.3-5.2 0.3-12.5-0.6l-24.8-28.2c-13.7-15.6-25.2-28.6-25.8-28.9-0.6-0.4-0.5 5.5 0.2 16 0.7 9.1 1.3 20.7 1.3 25.6 0.1 8.4-0.1 9.3-2.7 13-1.8 2.5-4.4 4.7-7 5.8-2.4 0.9-6 1.7-8.2 1.7-2.2 0-5.5-0.7-7.3-1.7-1.8-0.9-4.2-2.8-5.4-4.2-1.2-1.4-2.6-5.1-3.2-8.1-0.6-3-2.2-29.3-3.7-58.5-1.4-29.1-2.6-56.1-2.6-60 0-4.8 0.6-8.2 1.8-10.7 1.4-2.9 3.1-4.3 6.9-6 4.2-1.9 8.1-2.3 26.5-3.3 11.8-0.7 23.4-1.2 25.7-1.3zm-150.2 9c4.9-0.1 9.5 0.6 15.5 2.3 4.8 1.4 11.9 4.5 16.4 7.3 4.4 2.6 10.4 7.2 13.5 10.3 3.1 3 7.7 9.1 10.3 13.5 2.6 4.3 5.9 11.7 7.4 16.4 1.9 6.5 2.6 11.5 3 21.5 0.4 10.4 0.1 15-1.4 23-1.2 6-3.3 12.6-5.3 16.5-1.8 3.6-4.9 9-7 12-2 3-5.9 7.6-8.6 10.1-2.6 2.5-7.3 5.9-10.3 7.7-3.1 1.7-8.2 4.1-11.5 5.2-3.3 1.2-10.1 2.8-15 3.6-5 0.7-18.9 1.7-31 2.1-16.4 0.5-22.8 0.4-25-0.5-1.7-0.7-4-2.7-5.1-4.5-1.2-1.7-2.6-5.4-3.3-8.2-0.6-2.7-2.5-28.8-4.2-58-1.7-29.1-3-56-3-59.7 0-5.3 0.6-7.5 2.3-10.2 1.2-1.9 3.6-4.1 5.3-4.9 1.6-0.8 3.9-1.8 5-2.2 1.1-0.5 11.6-1.3 23.5-2 11.8-0.6 24.6-1.2 28.5-1.3zm-146.3 8c5.9-0.1 13.1 0.3 16 0.9 2.9 0.6 8.2 2 11.8 3.2 5.1 1.7 7.8 3.4 12.9 8.2 4.7 4.5 7.4 8.1 14.2 22l-0.6 12c-0.5 10.8-0.9 12.7-3.8 18.9-2.1 4.4-5 8.5-8.2 11.5-3.5 3.3-7.3 5.5-20 10.3l19.1 19.2c17 16.9 19.3 19.6 19.9 23.1 0.4 2.2 0.4 5.5 0.1 7.3-0.4 1.8-2.4 5.1-8.5 11.7h-8.4c-7.9 0-8.6-0.2-11.8-3-1.9-1.6-12.7-13.5-24-26.3-11.2-12.8-21.6-24.3-25.4-28.1l1.1 16.2c0.7 8.9 1.3 20.2 1.3 25 0 6.8-0.4 9.6-1.9 12.7-1.1 2.2-3.5 4.9-5.3 6-2.4 1.4-5.1 2-10 2-3.7 0-7.8-0.5-9-1-1.2-0.6-3.3-2.6-4.5-4.5-1.2-1.9-2.7-6.1-3.2-9.2-0.6-3.2-2.2-29.2-3.6-57.8-1.4-28.6-2.5-55.4-2.5-59.5 0-5 0.5-8.5 1.6-10.5 0.9-1.6 3.3-4 5.3-5.3 3.2-2.1 5.7-2.6 20.2-3.7 9-0.7 21.3-1.3 27.2-1.3zm-101.5 4.9c2.3-0.1 6.1 0.8 8.3 1.9 2.2 1.1 4.9 3.5 6 5.3 1.8 2.9 2.3 8.6 5.4 59.7 2 31.1 3.5 60.2 3.5 64.8 0.1 6.2-0.4 9.2-1.9 12.2-1.1 2.2-3.3 4.9-4.8 6.1-2.1 1.5-4.2 2-9 2-4.2-0.1-7.1-0.7-9-1.8-1.5-1-3.7-2.9-4.9-4.3-1.2-1.4-2.6-5-3.2-8-0.6-3-2.5-29.8-4.2-59.5-1.7-29.7-3.1-56.9-3.1-60.5 0-4.2 0.6-7.8 1.8-10.2 1.4-2.8 3.1-4.3 6.4-5.8 2.4-1 6.4-1.9 8.7-1.9zm-109.7 4c2.4 0 6.3 0.3 8.5 0.7 2.4 0.4 5.9 2.2 8.5 4.3 3.2 2.6 5.6 6 8.7 12 2.3 4.6 12.8 28.2 23.3 52.4 10.6 24.2 20.7 48 22.6 52.8 2.3 5.9 3.4 10.4 3.4 14q-0.1 5.2-2 8.5c-1.1 1.8-3.4 3.9-5 4.7-1.7 0.8-5.5 1.5-8.5 1.5-3.1 0-7-0.7-8.8-1.5-2.2-1.1-4.3-3.4-6.4-7.3-1.7-3.1-4.1-8.7-5.2-12.4-2.1-6.5-2.3-6.8-5.4-6.8-1.8 0-14.5 0.7-53.2 3.4l-2.9 9.5c-1.6 5.3-3.7 11.3-4.8 13.4-1.3 2.6-3.2 4.3-6.1 5.7-2.3 1.1-6.3 2-8.7 2-2.5 0-6.1-0.6-8-1.4-2-0.7-4.3-2.2-5.2-3.2-1-1.1-2-4.5-2.4-7.9-0.6-5.8 0-8.1 17.4-64.5 9.9-32.2 19.5-61.6 21.3-65.4 1.9-3.8 4.6-8.1 6.1-9.5 1.6-1.4 4-3.1 5.5-3.7 1.5-0.7 4.8-1.2 7.3-1.3zm-104.3 8c2.4 0 6 0.8 8.3 1.9 2.2 1.1 4.8 3.5 5.9 5.3 1.8 2.9 2.4 8.9 5.5 60.2 2 31.4 3.6 60.5 3.6 64.8 0 5.7-0.6 8.8-2 11.7-1.1 2.2-3.3 4.9-4.8 6.1-2.1 1.5-4.2 2-9 2-3.7-0.1-7.6-0.7-9.5-1.7-1.8-0.9-4.3-2.9-5.5-4.5-2.1-2.6-2.4-4.9-5.7-53.9h-4.5c-2.5 0-16.9 0.5-59.5 2.4l1.1 17.1c0.7 9.3 1.3 21 1.3 25.8 0 6.8-0.4 9.6-1.9 12.7-1.5 2.9-3.3 4.6-6.3 6-2.3 1.1-6.4 2-9 2-2.6 0-6.2-0.7-8-1.5-1.8-0.9-4.3-3.2-5.5-5-2.1-3.3-2.4-6.1-5.8-60.7-1.9-31.5-3.5-60.9-3.6-65.3 0-5.8 0.4-8.9 1.7-11.5 1-1.9 3-4.5 4.4-5.7 2.1-1.8 3.8-2.2 9.1-2.2 4.9 0 7.4 0.5 10.4 2.2 2.1 1.2 4.7 3.3 5.7 4.7 1.5 2.1 2.1 6.7 5.4 50h3c1.6 0.1 15.7-0.7 59.7-3.5l-0.8-20c-0.4-11-0.7-21.9-0.6-24.2 0.1-2.4 0.9-5.5 1.9-7 1-1.5 2.8-3.7 4.2-4.8 1.3-1.1 3.4-2.3 4.5-2.6 1.1-0.4 4-0.7 6.3-0.8zm-259.7 13.4c9.3 0.2 14.2 0.8 19.2 2.4 4 1.3 8.2 3.4 10.4 5.4 2 1.8 4.2 4.5 5 6 0.7 1.5 1.4 4.5 1.4 6.7 0 2.2-0.6 5.5-1.4 7.3-0.7 1.8-2.6 4.2-4.2 5.5-2.4 1.9-4.2 2.3-9.4 2.3-3.6-0.1-9.7-0.7-13.5-1.6-3.9-0.8-9.3-1.5-12-1.5-2.8 0-7.1 0.7-9.5 1.6-2.5 0.9-5.3 2.6-6.2 3.8-0.9 1.2-1.7 3.5-1.9 5.1-0.1 1.7 0.1 4.1 0.4 5.5 0.4 1.6 2 3.1 4.4 4.2 2.1 1 8.7 3.1 14.8 4.8 6 1.6 14.3 4.1 18.5 5.5 4.1 1.4 10.2 4.1 13.5 5.9 3.3 1.9 7.3 4.9 9 6.8 1.6 1.8 3.9 4.9 5.1 6.8 1.2 1.9 3.1 6.7 4.3 10.5 1.2 4.1 2.1 9.7 2.1 13.5 0 3.6-0.9 9.8-2 13.8-1.1 4-2.9 8.9-3.9 11-1.1 2-4.8 6.4-8.3 9.6-3.5 3.3-9.3 7.4-12.8 9.1-3.9 2-10.2 3.9-15.5 4.9-5 0.9-12.9 1.6-17.5 1.6-4.7 0-13-0.8-18.5-1.8-5.5-1.1-12.3-3-15-4.3-2.7-1.3-6.2-3.7-7.8-5.4-1.6-1.6-3.4-4.1-4-5.5-0.5-1.4-0.9-4.4-0.9-6.7 0.1-2.4 1-6 2-8 1.1-2.1 2.8-4.6 3.8-5.5 1.1-1 4.2-2 7.4-2.4 4.2-0.5 7.7 0 15.2 2 7.8 2.1 12 2.6 32 2.6l4.3-4.2c3.6-3.5 4.4-5 4.4-8 0-2.1-0.6-5.1-1.4-6.8-0.9-1.6-3.2-3.8-5.3-4.9-2.1-1-10.9-4-19.7-6.6-8.8-2.6-16.9-5-18-5.3-1.1-0.3-4.8-2.2-8.1-4.1-3.3-2-7.2-4.5-8.6-5.6-1.4-1.1-4.2-5.1-6.1-9-3-5.9-3.7-8.4-4.3-16.5-0.6-7.8-0.4-10.5 1.2-15.5 1-3.3 2.9-8 4.3-10.6 1.4-2.5 3.9-6.1 5.6-8 1.6-1.8 4.8-4.5 7-6 2.2-1.4 6-3.7 8.5-5 2.4-1.3 7.8-3.1 12-4.1 5.4-1.2 10.9-1.6 20-1.3zm-103 7.6c2.9 0 5.8 0.7 8.4 2.2 2.1 1.2 4.7 3.3 5.7 4.7 1.7 2.2 2.3 8.9 5.4 60 1.9 31.6 3.5 61 3.5 65.3 0 5.7-0.6 8.8-2 11.7-1.5 2.9-3.3 4.6-6.3 6-2.3 1.1-6 2-8.2 2-2.2 0-5.6-0.6-7.5-1.4-2-0.8-6.5-4.5-10.1-8.3-3.7-3.7-20.1-21.8-36.5-40.2-29.3-32.8-30-33.4-30.3-30-0.1 1.9 0.4 15.3 1.3 29.9 0.8 14.6 1.5 30.3 1.5 35 0 7-0.4 9.2-2.2 12.4-1.2 2.2-3.5 4.9-5.1 6-1.9 1.4-4.7 2.2-8.5 2.5-3.8 0.2-6.8-0.2-9.1-1.3-2-0.9-4.6-3.2-5.8-5.1-2.1-3.3-2.4-6.1-5.8-61.2-1.9-31.8-3.5-61.2-3.6-65.3 0-5.3 0.5-8.5 1.7-11 1-1.9 3-4.4 4.4-5.6 1.7-1.4 4.5-2.4 8.3-2.8 4-0.4 6.6-0.2 8.5 0.8 1.5 0.8 8.2 7 14.8 13.8 6.7 6.8 23.5 25.1 37.5 40.8 23.6 26.3 25.5 28.2 25.8 25.5 0.2-1.7-0.4-15.6-1.3-31-0.9-15.4-1.6-31.6-1.7-36 0-5.8 0.5-9 1.8-11.7 1-2.1 3-4.3 4.4-5 1.3-0.7 3.4-1.5 4.5-1.9 1.1-0.4 4-0.7 6.5-0.8zm-166.3 10.1c9.5-0.2 11.9 0.1 15.3 1.8 2.8 1.4 4.5 3.3 5.9 6.3 1.1 2.3 2 6 2.1 8.2 0 2.6-0.8 5.2-2.3 7.4-1.2 1.9-3.4 4.3-4.7 5.3-2.2 1.7-5.6 2.1-44.5 4.2l2 26.7 19-0.7c15.9-0.6 19.4-0.4 22 0.8 1.6 0.9 4.2 3 5.7 4.7 2.4 2.7 2.8 4 2.8 9.9 0 6.6 0 6.8-4.3 10.8-3.7 3.5-5 4.2-10.2 4.7-3.3 0.4-12.1 1-33 2l0.5 27.7 21.2-0.6c16.8-0.4 22.1-0.3 25.3 0.8 3.1 1.1 4.5 2.4 6.2 5.9 1.3 2.4 2.3 6.1 2.3 8.2 0 2-0.9 5.5-2 7.7-1.5 3-3.2 4.6-6.8 6.2-4 1.8-8.1 2.4-26.2 3.4-11.9 0.7-25.7 1.3-30.8 1.4-6.8 0-10.1-0.4-12.5-1.7-1.8-0.9-4.2-2.8-5.4-4.2-1.2-1.4-2.6-4.8-3.2-7.6-0.6-2.7-2.5-29.3-4.2-59-1.7-29.7-3.1-56.8-3-60.2 0-4.7 0.6-7.1 2.3-9.7 1.2-1.9 3.6-4.1 5.3-4.9 1.6-0.8 3.9-1.8 5-2.2 1.1-0.5 10.3-1.3 20.5-2 10.1-0.6 23.5-1.2 29.7-1.3zm-136 8c2.3-0.1 7.3 0.5 11 1.2 3.7 0.8 9.5 2.5 12.8 3.7 4.3 1.6 7.5 3.8 11.5 7.8 3.4 3.4 7 8.4 9 12.6 3.3 6.6 3.5 7.6 4.2 32l-3.8 7.5c-2.1 4.1-5.8 9.7-8.4 12.3-3.3 3.5-6.6 5.7-19.5 11l17.8 17.6c9.8 9.7 18.5 19.1 19.3 20.9 0.7 1.8 1.4 5.2 1.4 7.7 0 3.9-0.6 5.1-8.5 13.8l-8.5 0.4c-8.5 0.4-8.5 0.4-12-2.9-2-1.8-13.7-14.7-26-28.7-12.4-13.9-22.8-25.5-23-25.6-0.3-0.2 0 7.2 0.6 16.4 0.7 9.1 1.3 20.4 1.3 25.1 0 7-0.4 9.2-2.2 12.4-1.2 2.2-3.5 4.9-5.1 6-1.9 1.4-4.7 2.2-8.5 2.5-3.8 0.2-6.8-0.2-9.1-1.3-2-0.9-4.6-3.2-5.8-5.1-2.1-3.3-2.4-6.1-5.8-61.2-1.9-31.8-3.5-60.9-3.6-64.8-0.1-5.7 0.4-7.6 2.3-10.7 1.3-2.1 4.3-4.6 6.9-6 4-2 6.9-2.4 26-3.4 11.8-0.6 23.4-1.1 25.7-1.2zm-156.7 8.9c11.8-0.1 14.6 0.2 22.5 2.5 4.9 1.5 11.9 4.1 15.5 5.9 4.7 2.4 8.6 5.5 14.3 11.6 5.3 5.7 9.2 10.9 11.7 15.9 2 4.1 4.7 10.7 6 14.5 1.7 5.6 2.3 10.3 2.7 22.5 0.5 14.3 0.3 16.2-2 25-1.4 5.2-3.7 12-5 15-1.5 3.4-5.3 8.6-9.9 13.5-4.2 4.4-10.4 9.9-13.9 12.2-3.6 2.4-9.4 5.4-12.9 6.9-3.6 1.5-10.1 3.2-14.5 4-4.4 0.7-18.2 1.6-30.5 1.9-20 0.7-22.9 0.5-26-1-2-0.9-4.6-3-5.8-4.6-2.2-2.8-2.4-5-5.8-59.6-1.9-31.2-3.5-60.4-3.5-64.8 0-5.6 0.4-8.9 1.6-11 0.9-1.6 3.3-4 5.3-5.3 3.2-2.1 5.7-2.6 20.2-3.7 9-0.7 22.5-1.3 30-1.4zm-152.5 8c4.4 0 7 0.5 9.9 2.2 2.1 1.2 4.7 3.3 5.7 4.7 1.7 2.2 2.3 8.5 8.4 111h6.5c3.5 0 13.1-0.5 21.2-1 13.9-0.9 15-0.9 18.8 1 2.8 1.4 4.5 3.3 5.9 6.3 1.1 2.3 2 6 2.1 8.2 0 2.6-0.8 5.2-2.3 7.4-1.2 1.9-3.4 4.3-4.7 5.3-2.2 1.6-6.2 2.1-27 3.3-13.5 0.8-28.7 1.5-33.8 1.5-5.1 0-10.3-0.5-11.5-1-1.2-0.6-3.2-2.5-4.3-4.3-1.2-1.7-2.6-5.4-3.3-8.2-0.6-2.7-2.5-29.1-4.2-58.5-1.7-29.4-3.1-56.4-3.1-60 0-3.9 0.7-7.9 1.6-10 0.9-1.9 3.1-4.5 4.9-5.7 2.3-1.6 4.7-2.2 9.2-2.2zm-61.5 3c2.7 0 5.6 0.6 7.5 1.7 1.6 1 3.9 3.4 5.1 5.3 1.2 1.9 2.7 6.1 3.3 9.4 0.6 3.3 2.4 29.2 4.1 57.5 1.6 28.3 3 54.8 3 58.8 0 5.2-0.6 8.3-2 11.2-1.1 2.2-3.5 4.9-5.3 6-2.3 1.4-5.1 2-9.7 2-4.6 0-7.3-0.5-9-1.7-1.4-1-3.5-2.9-4.7-4.3-1.2-1.3-2.6-5-3.2-8-0.6-3-2.2-29.3-3.7-58.5-1.4-29.1-2.6-56.2-2.5-60.2 0-4.7 0.6-8.4 1.7-10.5 0.9-1.8 2.8-4.2 4.2-5.3 1.4-1.1 3.5-2.3 4.6-2.6 1.1-0.4 4.1-0.7 6.6-0.8zm-64 4c2.8 0 5.9 0.8 8.4 2.2 2.1 1.2 4.7 3.3 5.7 4.7 1.7 2.2 2.3 8.9 5.4 60 1.9 31.6 3.5 61 3.5 65.3 0 5.7-0.6 8.8-2 11.7-1.5 2.9-3.3 4.6-6.3 6-2.3 1.1-6.4 2-9 2-2.6 0-6.2-0.7-8-1.5-1.8-0.9-4-3-4.9-4.8-1-1.7-2.2-5-2.7-7.2-0.5-2.2-1.6-13.8-3.6-47.5h-2.5c-1.4 0-15.6 0.7-60.5 3.4l0.6 13.1c0.4 7.1 0.7 18.5 0.8 25.3 0 10.4-0.2 12.8-1.9 16.2-1.1 2.2-3.3 4.9-4.8 6.1-2.1 1.5-4.2 2-9.5 2-3.7-0.1-7.8-0.6-9-1.1-1.2-0.6-3.3-2.6-4.5-4.5-1.2-1.9-2.7-6.1-3.2-9.2-0.6-3.2-2.4-29.6-4.1-58.8-1.7-29.1-3.1-55.9-3.1-59.5 0-3.9 0.7-7.9 1.6-10 0.9-1.9 3.1-4.4 4.9-5.6 1.7-1.2 5.6-2.5 8.7-2.9 4.5-0.6 6.2-0.3 9.7 1.4 2.3 1.2 5.1 3.6 6.2 5.4 1.6 2.6 2.3 7.3 5.6 49.7h4.5c2.4 0.1 16.7-0.5 59-2.5l-0.1-4.5c0-2.5-0.4-9.9-1-16.5-0.5-6.6-1-15.4-1.1-19.5 0-5.3 0.5-8.6 1.8-11.2 1.4-2.8 3.1-4.3 6.4-5.8 2.4-1 6.5-1.9 9-1.9zm-182 8.1c5.6-0.1 12.9 0.6 18 1.7 4.6 1 10.3 2.7 12.5 3.9 2.2 1.1 4.9 3.1 6.1 4.4 1.3 1.3 2.9 4 3.8 6.1 0.9 2 1.6 5.1 1.6 6.7 0 1.7-0.7 4.3-1.5 5.8-0.7 1.5-2.6 4-4.2 5.5-1.7 1.7-4.4 3-6.8 3.4-2.8 0.4-7.3-0.3-14.5-2.2-8.7-2.2-11.9-2.6-18-2.2-4.2 0.4-9.7 1.4-12.3 2.4-2.6 1-6.9 4-9.8 6.8-2.8 2.8-6.1 6.8-7.3 9-1.3 2.2-2.8 6-3.4 8.5-0.6 2.5-1.2 8.6-1.3 13.5-0.1 5 0.4 12.2 1 16 0.7 3.9 1.9 8.8 2.8 11 0.9 2.2 3.4 6.4 5.5 9.3 2.1 2.9 5.9 6.7 13.3 11.7h14.5c14.3 0 14.6 0 21.5-3.3 5.7-2.7 8.1-3.2 13.5-3.2 6.1 0.1 6.7 0.3 10.2 3.8 3.4 3.4 3.7 4.2 3.7 9.5q0.1 5.7-1.9 9.7c-1.1 2.2-4.2 5.6-6.8 7.5-2.6 1.9-8.8 4.8-13.7 6.4-5 1.7-11.4 3.5-14.3 4.1-2.9 0.5-9.3 1-14.2 1-6.4 0-11.6-0.7-17.8-2.4-4.8-1.3-11.4-3.6-14.8-5.2-3.3-1.6-8.7-4.9-12.1-7.4-4.2-3-7.5-6.7-10.6-11.5-2.5-3.8-5.9-9.7-7.6-13-1.7-3.3-4.2-9.1-5.5-13-1.4-3.8-2.8-9.7-3.2-13-0.3-3.3-0.6-9.8-0.5-14.5 0-4.7 0.8-12.3 1.7-17 0.8-4.7 2.7-11.6 4.2-15.5 1.4-3.8 4.7-10.1 7.3-14 2.5-3.8 6.6-8.8 9-11.1 2.4-2.2 7.3-5.8 10.9-8 3.5-2.2 9.4-5 13-6.3 3.5-1.3 9.2-2.9 12.5-3.6 3.3-0.7 10.2-1.3 15.5-1.3z"/><path fill-rule="evenodd" class="d" d="m1857.5 41.3l-41 2-0.8 23.1c-0.5 12.7-0.9 23.2-1 23.3-0.1 0.1-76.5 1.2-339.2 4.7l38 633.6h3.5c1.9 0 62.9-4.5 135.5-10 72.6-5.5 133.7-10 139.5-10l-0.6 23.2c-0.4 12.8-0.7 23.4-0.8 23.6 0 0.2-69.6 5.7-154.6 12.2-85 6.6-156.3 12-162.5 12l-44-730.5 199-3.6c109.5-2 205.7-3.6 229-3.6zm-65.5 96.7v4.2c0 2.4-1 29.9-4.5 118l-136.5-1.2v66.5l47.7 2.4c26.3 1.3 48.1 2.7 48.5 3 0.3 0.3 0.9 24.8 1.8 108.1h-92v2.2c-0.1 1.3 1.6 26.5 7.5 109.8h6.5c3.6 0 33.4-0.7 66.2-1.7 32.8-1 59.9-1.6 60.2-1.3 0.4 0.3-0.3 25.2-1.4 55.5-1.1 30.2-2.2 55.1-2.3 55.2-0.1 0.1-52.9 4.3-117.2 9.3-64.3 4.9-118.3 9-123 9l-32-535.5 102-1.6c56.1-0.9 117-1.6 168.5-1.9zm-2 171h17l-0.5 9.7c-0.3 5.4-1.9 48.3-3.6 95.3-1.7 47-3.1 85.6-3.2 85.8-0.1 0.1-14.8 0.7-32.7 1.2-17.9 0.5-39.6 0.9-64 1v-15h90v-14.3c0-7.8-0.7-41.4-1.5-74.7-0.8-33.3-1.5-66.9-1.5-74.8zm170 628.2c7.4-0.1 18 0.5 23.5 1.3 5.5 0.8 12.9 2.1 16.5 2.9 3.6 0.8 12.4 4.3 19.5 7.7 7.2 3.4 17.1 8.9 22 12.3 5 3.3 11.7 8.8 15 12.1 3.3 3.3 9.4 10.6 13.6 16.1 4.2 5.6 10 15 13.2 21.4 3.1 6.4 7.7 17.6 10.2 25 2.6 7.5 5.8 18.3 7.1 24 1.4 5.8 4.5 23.1 7 38.5 4.2 27 4.4 28.9 4.4 50 0 12.1-0.7 29.2-1.5 38-1.1 12-2.5 20-5.5 31.5-2.7 10.6-5.6 18.9-9.1 26-2.8 5.8-7.5 14.1-10.6 18.5-3.1 4.5-9.9 12.5-15.2 17.9-5.3 5.4-13 12.4-17.1 15.6-4.1 3.2-11.6 7.9-16.7 10.4-5.1 2.6-14.3 6.4-20.5 8.5-6.2 2.2-16.9 5.1-23.8 6.5-6.9 1.4-17.2 3.2-23 4.1-5.8 0.8-11.6 1.5-15.5 1.6l8.2 88.2c4.6 48.5 8.3 89.8 8.3 95.2l-59.4 6.5c-32.7 3.6-59.6 6.3-59.8 6-0.3-0.2-8.7-124.9-37.3-553.6l16.5-5.8c9.1-3.1 23.7-7.7 32.5-10.2 8.8-2.4 23.4-6 32.5-8 9.1-1.9 24.4-4.5 34-5.8 10-1.3 23.4-2.3 31-2.4z"/><path fill-rule="evenodd" class="e" d="m1967.5 35.9l-151 7.6-26 712c244.1 25.3 315.6 32.6 316.3 32.5 0.9 0 1.2-4.1 1.2-17.3v-17.2c205.8-17.6 267.5-22.9 270-23.2l4.5-0.5c11.3-71.5 14.7-92.8 14.8-93.3 0.1-0.6-34.9-52.6-77.8-115.5l-78-114.5c42.9-71.3 55.3-92.2 55.1-92.5-0.2-0.3-5.6-10-12.1-21.5-6.4-11.6-12-21.3-12.4-21.7-0.3-0.4-19.3 30.2-42.1 68l-41.5 68.7c145.3 213.5 187.4 275.6 187.2 275.8-0.1 0.2-56.5 5-125.2 10.6-68.8 5.6-126 10.2-127.3 10.1-1.8 0-6.8-7.2-28.5-40.7l-26.2-40.8c-1.9 106.1-2.2 113.5-3.5 113.5-0.8 0.1-53-5.2-116-11.7l-114.5-11.8 24-623.1c180.1-9.2 232.7-11.5 233.2-11.1 0.4 0.5-0.3 16.5-1.7 35.7-1.4 19.2-2.3 35.1-2 35.4 0.3 0.2 8.9-13.2 19.3-30 17.2-27.9 18.9-30.4 21.5-30.4 1.5 0 7.9 0.6 14.2 1.4 6.3 0.8 13.1 2 15 2.7 1.9 0.7 10.5 2.7 19 4.5l15.5 3.2c89.1-16.9 115.8-22.2 116.8-22.6 1-0.4-25.2-6.3-67-15-37.9-7.9-73.1-15.4-78.3-16.7-5.2-1.3-13.3-2.7-18-3.1l-8.5-0.6 0.5-14.8c-15.1 0.2-87.4 3.7-170.5 7.9zm-5 95.4l-63 3.1-20 535.2c110 11.2 142.7 14.5 143.5 14.4 1.3 0 1.7-12.7 3-102.2l1.5-102.3c110 167.7 114.7 174.5 117.3 174.5 1.5 0 35.5-2.5 75.7-5.6 40.2-3.2 73.1-5.9 73.3-6.1 0.1-0.1-35.5-52.6-79-116.6l-79.3-116.2 111.5-183.5c-31.2-56.2-40.8-73-41.4-73.7-0.6-0.7-13-3.7-27.6-6.7-14.6-3.1-27.5-5.8-28.7-6.1-2.1-0.5-7.4 7.8-58 90-48.4 78.4-55.8 90-56.1 87.2-0.1-1.8 2.2-43.1 5.3-92 3-48.8 5.5-90.5 5.5-92.7v-4c-15.9 0.2-48.8 1.7-83.5 3.3z"/><path fill-rule="evenodd" class="f" d="m938 30.6c-61.9 16.1-113 29.4-113.5 29.4-0.5 0-2.1-6.7-3.5-15-1.4-8.3-3-15-3.5-15-0.5-0.1-67.4 11.3-148.5 25.2l-147.5 25.3c85.9 565 111 729.2 111.2 729.5 0.2 0.3 21.2-2.6 46.6-6.4l46.2-6.8c135.2-50.2 174.8-64.8 175.3-64.8 0.4 0 2.1 4.3 3.7 9.6 2.6 8.4 3.3 9.5 5 9.2 1.1-0.3 31.8-9.7 68.2-20.9l66.2-20.4c0.8-6.2 1.4-17.5 1.8-29.2l0.8-21.2c-29.5 9.2-54.1 16.9-73.7 23.1-19.7 6.2-35.9 11.1-36.2 10.8-0.2-0.3-11.1-42.6-24.1-94-13-51.4-23.9-93.7-24.1-94-0.3-0.3-10 1.5-21.7 3.9l-21.2 4.5c8.1 62.1 13.1 101.5 16.4 127.6 3.4 26.1 6.1 48.6 6.1 50 0 2.4-2.9 3.6-76.2 30.6l-76.3 28.1c-36.7 5.3-47.6 6.6-47.8 6.3-0.2-0.3-22-143.4-48.3-318l-47.9-317.5c163.8-28.7 211.6-36.8 211.8-36.5 0.2 0.3 8 44.8 17.2 99 9.2 54.2 16.8 98.6 16.9 98.8 0 0.2 5.4-0.9 11.9-2.5 8.6-2 11.7-3.2 11.7-4.3 0-0.8-6.5-31.6-14.3-68.4l-14.2-67 22.9-34.1c144.2-36.9 186.3-47.6 186.6-47.6 0.3 0.1 10 38.8 21.5 86.1 11.5 47.3 21.1 85.3 21.2 84.3 0.1-1 1.6-36.2 3.4-78.3l3.2-76.5c-15.8-64.2-18.1-72.5-19.3-72.4-0.8 0-52.1 13.3-114 29.5zm-14 101.2c-35.5 9.1-64.7 16.9-65 17.4-0.3 0.4 1.9 11.9 4.8 25.5 2.9 13.6 9 42.1 13.6 63.3 4.7 21.2 10.1 46.8 12.1 57 1.9 10.2 3.4 18.6 3.3 18.6-0.2 0.1-24.7 5.7-54.5 12.5-29.8 6.8-54.4 12.2-54.6 11.9-0.2-0.3-4.8-25.7-10.2-56.5-5.3-30.8-12.1-69.5-15.2-86-3-16.5-6.3-36.1-7.4-43.5-1-7.4-2.1-13.7-2.5-14-0.3-0.3-29.2 4.4-64.2 10.5l-63.7 11c80.8 528.9 83.1 543.5 85 543.5 1.1 0 27.3-9.3 58.3-20.7l56.3-20.8c-0.2-5.4-5.5-47.3-11.9-96.5l-11.7-89.5c94.1-20.1 121.6-25.8 121.8-25.5 0.3 0.3 11.2 41.7 24.2 92 13 50.3 23.9 91.7 24.1 92 0.3 0.3 18.5-5.1 40.5-12 22.1-6.9 40.4-12.7 40.8-13 0.4-0.3 2.9-50.7 5.5-112l4.7-111.5c-59.4-241.1-66.9-270.5-68.1-270.4-0.8 0-30.5 7.5-66 16.7z"/><path fill-rule="evenodd" class="g" d="m416.5 46.2c18.1-0.1 26.7 0.4 48.5 2.8 15.1 1.6 34.1 4.4 44 6.5 9.6 1.9 25.1 6 34.5 9.1 9.4 3 18.4 6 20 6.7 2.9 1.3 2.8 1.4-6 3-5 0.9-15.1 2.6-36 6l2.7 17.6c1.5 9.7 2.8 18.2 2.8 18.8 0 1-1.4 0.8-5.3-0.6-2.8-1-12.4-3.5-21.2-5.5-9.1-2.2-24.8-4.8-36.5-6.2-11.3-1.3-29.7-2.7-41-3-17.5-0.6-23-0.3-38 1.5-9.6 1.2-25.1 3.5-34.5 5.2-9.4 1.7-24.6 5.3-34 7.9-9.4 2.6-24.6 7.9-34 11.6-12.1 4.8-21.9 9.7-34.1 16.9-9.3 5.5-20.6 12.7-25 15.9-4.3 3.3-11.2 8.9-15.3 12.5-4.1 3.6-10.4 9.8-14.1 13.6-3.7 3.8-9.8 10.6-13.7 15-3.8 4.4-11.9 15.4-18 24.5-6.4 9.6-14.6 23.6-19.5 33.5-6.4 12.7-10.2 22.1-15.1 37-3.6 11-8.6 29-11.1 40-2.6 11.4-5.6 28.8-7 40.5-2.4 19-2.6 23.5-2.6 63-0.1 30.8 0.4 47.4 1.5 60.5 1.3 14.2 2.7 22.5 6.7 39.5 3.1 13.2 7.8 29.6 12.3 42.5 4.7 13.4 10.8 28.2 16.9 41 5.3 11 12 23.6 14.8 28 2.9 4.4 7.9 11.6 11.2 16 3.3 4.4 8.9 11.6 12.5 16 3.5 4.4 8.5 10.2 11 12.9 2.5 2.6 9.8 9.2 16.1 14.5 6.3 5.3 16.2 12.6 22 16.2 5.8 3.7 14.6 8.8 19.5 11.5 4.9 2.7 13.5 6.6 19 8.7 5.5 2.2 16.3 5.7 24 7.8 8.5 2.4 23.9 5.5 39 7.9 24.4 3.9 25.7 4 50.5 4 18.3 0 30.8-0.6 44.5-2 10.4-1.1 25.5-3.1 33.5-4.5 8-1.4 19.7-3.7 26-5.1 6.3-1.4 21.9-6 34.5-10.1 12.6-4.1 31.9-11.2 42.8-15.7 13.3-5.4 19.8-8.6 19.8-9.6 0-0.8-7.6-58.4-16.7-128-9.2-69.6-16.9-126.7-17.1-127-0.2-0.3-12.4 1.7-27.1 4.3-14.7 2.6-38.8 7.4-53.7 10.7-14.9 3.3-35.1 7.4-45 9.1-15.7 2.7-19.7 3-31.5 2.7-9.6-0.3-14.6-0.9-17.5-2.2-3.7-1.5-4.2-2.3-6.9-9.4-2.4-6.3-2.9-9.3-3-16.7 0-4.9 0.8-18 1.8-29 1.7-19 2-20.5 5.9-30.5 3.4-8.8 5.3-11.9 11.3-19 6.4-7.5 8-8.8 13.6-11 4.8-1.8 8.7-2.5 16.3-2.8 8.7-0.3 12.8 0.2 32 4.2 12.1 2.4 24.3 5.3 27 6.3 4.9 1.8 5.8 2.9 35 41 16.5 21.6 30.5 39.7 31 40.2 0.7 0.7 4.2-19 10.5-59.4 5.2-33.2 9.8-60.1 10.1-59.7 0.4 0.4 14.9 94.8 32.3 209.7 17.5 115 31.9 209.7 32.1 210.5 0.4 1.2-7.6 4.6-34.3 14.8-19.1 7.2-41.9 15.7-50.7 18.8-8.8 3-24.9 7.7-35.7 10.5-10.9 2.7-26.9 6.1-35.5 7.5-8.7 1.4-25 3.4-36.3 4.4-14.7 1.4-28.5 2-49 2-27.8 0-29.2-0.1-56.5-4-22.5-3.1-31.1-4.8-44-8.5-8.8-2.5-22.1-6.9-29.5-9.8-7.4-2.8-19.3-8.4-26.5-12.2-7.1-3.9-17.9-10.2-24-14-7.4-4.7-16-11.5-26.4-21-8.5-7.7-20.7-19.9-27.1-27-6.4-7.1-15-17.5-19.1-23-4.1-5.5-10.4-14.7-13.9-20.5-3.6-5.8-11.4-20.6-17.3-33-8-16.6-13-28.7-19.2-46.5-6.1-17.8-9.7-30.4-13.8-48.5-4.8-21-5.9-28.3-8.3-51.5-2.6-26.3-2.6-28.1-2-69.5 0.7-39.1 1-44.4 3.7-65.5 1.7-13.1 5.2-32.9 8-46 4-17.9 6.8-27.9 12.9-45 4.3-12.1 9.5-25.6 11.5-30 2-4.4 6.4-13.4 9.7-20 3.3-6.6 9-16.9 12.6-23 3.6-6.1 10.5-16.2 15.2-22.5 4.7-6.3 12-15.8 16.2-21 4.2-5.2 10.7-12.5 14.5-16.1 3.7-3.6 10.9-10.1 15.8-14.5 4.9-4.4 13.3-11.1 18.5-14.9 5.2-3.9 18.7-12.4 30-19 16.7-9.8 24.3-13.6 41-20.2 11.3-4.5 28.1-10.5 37.5-13.4 9.4-2.8 24.6-6.7 34-8.6 10.1-2 25.1-4.2 37-5.2 11.1-1 29.8-1.9 42-1.9zm5.3 387.2c1.5-0.4 6.3-1.4 10.7-2.3l8-1.7c-13.9-1.8-18.8-2.4-19.7-2.4-1.4 0-1.8 0.8-1.8 3.5 0 3.3 0.2 3.5 2.8 2.9z"/><path class="a" d="m1143 393.3l-11.5 268.2c217.8 10.6 282.3 13.6 284 13.6l3-0.1c2-42.2 2.8-64.4 3-76.5 0.3-12.1 0.8-24.3 1-27l0.5-5-168.5-16c4-112.2 4-113.5 6-113.5 1.1 0 20.9 2.7 44 6 23.1 3.3 42.9 6 44 6 1.9 0 2.2-2.1 6.3-52.2 2.4-28.8 4.3-53.2 4.3-54.3-0.1-1.9-3.5-2.6-46.8-10l-46.8-7.9c5.7-63.2 6.2-66.6 7.7-66.6 1 0 30.6 4.3 65.8 9.5 35.2 5.2 64.8 9.5 65.8 9.5 1.5 0 2.8-7.1 11.2-60.9 5.2-33.6 9.3-61.2 9-61.4-0.3-0.2-60.3-7-133.5-15.1-73.2-8-133.9-14.6-135-14.6-2 0-2.2 3.3-13.5 268.3z"/><path class="b" d="m2562 155.4l-17.5 78.6c-30.2-60.1-46.7-91.1-56-107.8-9.4-16.7-17.4-30.3-18-30.3-0.6 0-50.7 9.6-111.5 21.3l-110.5 21.3c107.5 192.2 149.7 267.8 163 292 13.3 24.2 29.5 54.1 35.8 66.5 8.6 16.5 11.6 23.4 11.6 26 0 1.9-6.2 42.4-13.7 90l-13.7 86.5c152.7 32.1 197.7 41.5 198.5 41.5 1.2 0 3.7-9.7 11.4-43.7 5.4-24.1 30.2-124.3 55.1-222.8 24.9-98.4 49.6-195.4 54.9-215.5 5.3-20.1 16.5-58.6 24.9-85.7 8.4-27.1 15-49.4 14.7-49.6-0.3-0.2-46.6-10.7-103-23.2-56.4-12.5-103.8-22.9-105.5-23.2l-3-0.5zm-631.5 895.9l-8 2 14 172.5c9.3 1.7 14.9 2.2 18.5 2.2 4 0 8.8-0.7 12.5-2 3.3-1.1 8.2-3.5 10.9-5.3 2.8-1.7 7.2-5.9 9.9-9.2 2.7-3.3 6.3-8.7 8-12 1.6-3.3 3.8-8.2 4.9-11 1.1-2.7 2.9-9.3 4-14.5 1.3-6.1 2.2-15.1 2.5-25 0.4-11.8 0.1-18.1-1.2-26.5-0.9-6-2.8-15.1-4.1-20.2-1.3-5.1-3.8-12.1-5.5-15.5-1.8-3.5-4.9-9-7-12.3-2-3.3-6.1-8.3-9.1-11.1-2.9-2.8-7.8-6.3-10.8-7.9-3-1.5-8.7-3.6-12.5-4.6-3.8-1-9.7-1.8-13-1.8-3.3 0.1-9.6 1-14 2.2z"/><path class="c" d="m2042.5 1758.7l-11 0.4 2 32.9c15.7 0 22.4-0.7 25.5-1.5 3-0.8 6.6-2.5 7.8-3.8 1.3-1.2 3.1-3.5 3.9-5.2 1-1.9 1.4-4.8 1.2-8.2-0.3-3.1-1.2-6.2-2.5-8-1.1-1.5-3.8-3.8-6-5-2.1-1.3-5.2-2.2-6.9-2.1-1.7 0.1-7.9 0.4-14 0.5zm-154.5 9l-9.5 0.4 4 86.9c13.5 0 20.1-0.7 24.5-1.9 4.1-1 9.1-2.7 11-3.6 1.9-1 5.5-3.7 8-6 2.7-2.5 5.7-6.8 7.5-10.6 2.5-5.4 3-7.9 3.3-15.9 0.3-5.2-0.1-13.1-0.7-17.5-0.9-6-2-9.5-4.7-14-1.9-3.3-4.7-7.3-6.2-8.8-1.5-1.6-4.5-3.8-6.7-4.9-2.2-1.2-6.2-2.7-9-3.4-2.7-0.8-6.6-1.3-8.5-1.2-1.9 0.1-7.8 0.4-13 0.5zm-141 8l-5.5 0.4 2 33.1c14.7-1 21.5-1.6 24.6-2 3.5-0.4 6.5-1.5 7.9-2.7 1.2-1.1 3.1-3.8 4.2-6 1.6-3.1 1.9-5.2 1.5-9-0.3-2.8-1.4-6.1-2.5-7.5-1-1.4-3.6-3.5-5.8-4.7-3.3-1.9-5.2-2.2-12.4-2.1-4.7 0.1-11 0.3-14 0.5zm-200.8 41.1c-4 15.2-7.1 27.8-7 28 0.2 0.2 8.1-0.1 17.6-0.5 9.4-0.4 17.2-1.1 17.2-1.6 0-0.4-4.3-12.3-9.6-26.5-5.2-14.1-9.8-26-10.2-26.4-0.4-0.4-4 11.8-8 27zm-785.7 14.9l-6 0.4 2 32.9c16.8 0 23-0.6 26-1.4 2.8-0.8 6-2.5 7.1-3.8 1.2-1.3 3-3.9 3.9-5.8 1.3-2.5 1.6-4.9 1.2-8.5-0.3-2.8-1.4-6.1-2.5-7.5-1-1.4-3.4-3.5-5.3-4.8-3-2-4.5-2.2-11.9-2-4.7 0.1-11.2 0.3-14.5 0.5zm-156.5 51.8l2.5 43.8c21.4-1 26.6-1.8 30.5-3.2 3-1.1 7.1-3.1 9-4.4 1.9-1.2 5.2-4.5 7.3-7.2 2-2.8 4.2-6.6 4.8-8.5 0.5-1.9 1.5-8 2.1-13.5 1-8.7 0.9-11.1-0.6-18.5-1-4.7-2.8-10.7-4-13.4-1.1-2.7-4.1-6.8-6.6-9.1-2.5-2.3-6.5-5.2-9-6.5-4-2.1-6.2-2.4-21.5-2.8l-17-0.5z"/><path fill-rule="evenodd" class="e" d="m1551.5 1135.4c2.8 0.2 6.8 1.3 9 2.4 2.2 1.1 7.2 5.3 11 9.4 3.9 4 8.9 10.4 11.2 14.3 2.3 3.8 6 11.7 8.3 17.5 2.7 6.7 5.5 16.7 7.7 27.5 3.3 15.8 3.6 18.6 4 40 0.5 22.9 0.5 23-2.7 38.5-2.5 11.9-4.2 17.4-7.3 23.5-2.2 4.4-5.4 9.8-7.1 11.9-1.7 2.2-5.4 5.4-8.1 7.3-4.9 3.2-5.3 3.3-25.5 3.3l-5.8-4c-3.1-2.2-6.6-4.7-7.7-5.7-1.1-1-3.9-5-6.1-8.8-2.2-3.9-5.7-11.3-7.8-16.5-2.1-5.2-4.7-13.1-5.8-17.5-1-4.4-2.7-12.1-3.8-17-1-5-2.1-13.5-2.5-19-0.4-5.5-0.6-13.8-0.6-18.5 0-4.7 0.7-14.3 1.5-21.5 0.8-7.2 2.4-17.7 3.6-23.5 1.2-5.8 3.1-13 4.3-16 1.1-3 3.9-8.7 6.1-12.5 2.3-3.9 5.6-8.3 7.5-10 1.9-1.7 5.2-3.5 7.5-4.2 2.3-0.7 6.3-1.1 9.1-0.9zm4.2 100.6c0.7 8 1.9 17.9 2.7 22l1.4 7.5c0.2-27.4-0.3-36.1-1.3-42-0.9-5-2-10.3-2.4-12-0.7-2.6-0.9-2.1-1.2 3.5-0.2 3.6 0.1 13 0.8 21z"/><path class="f" d="m2330.5 970.4c-7.2 1.3-18.2 3.9-24.5 5.8-6.3 2-16 5.8-21.5 8.5-5.5 2.8-12.7 6.9-16 9.2-3.3 2.4-7.8 5.9-10 8-2.2 2-5.8 5.9-8.1 8.6-2.2 2.8-5.6 7.5-7.5 10.5-1.8 3-4.7 8.2-6.2 11.5-1.6 3.3-4 8.9-5.4 12.5-1.4 3.6-4.1 13.5-6 22-2.2 9.6-4 20.8-4.7 29.5-0.8 10.5-0.8 17.1 0.1 26.5 0.6 6.9 1.9 16.1 2.8 20.5 0.9 4.4 3.3 11.8 5.3 16.5 2 4.7 6.1 11.9 9 16 3 4.1 7.7 10 10.6 13 2.9 3 7.9 7.8 11.2 10.7 3.2 2.8 9.5 7.5 13.9 10.3 4.4 2.9 12.9 7.7 19 10.8 6.1 3 17.3 8.8 25 13 7.7 4.1 18.1 9.7 23 12.5 4.9 2.8 11.7 6.8 15 9 3.3 2.2 8.6 6.5 11.8 9.6 3.3 3.1 7.6 8.1 9.7 11.1 2 3 5.1 8.3 6.9 11.8 1.7 3.4 3.8 9.4 4.6 13.2 0.8 3.8 1.5 11.2 1.5 16.3 0 5.6-1 13.9-2.4 21.2-1.3 6.6-3.3 14.5-4.5 17.5-1.5 4.2-3.8 7.2-9.3 12.6-6.1 5.9-8.4 7.4-13.8 9.2-3.6 1.1-11.2 2.8-17 3.8-8.2 1.3-13.4 1.5-23.5 1-7.2-0.4-20-1.8-28.5-3.1-8.5-1.3-20.9-3.7-27.5-5.4-6.6-1.6-18.2-4.6-25.7-6.5-7.6-2-14.6-3.6-15.5-3.6-1.7 0-1.9 4.4-3.8 61.7l-2 61.8c24.8 7.4 40.6 11.1 51 13 13.7 2.4 23.6 3.6 35.5 4.1 10.6 0.4 21.5 0.2 30.5-0.6 8.4-0.7 20.9-2.7 31-5 11.2-2.5 21.4-5.6 30-9 7.2-2.8 18.8-8.2 26-12 8.1-4.3 17.3-10.2 24.5-15.8 6.3-4.9 15.4-13 20.3-18.1 4.8-5 11.9-13.9 15.8-19.8 3.9-6 8.1-12.8 9.4-15.3 1.3-2.5 4.5-9.9 7.3-16.5 3.3-7.9 5.9-16.5 7.7-25 2.7-12.6 2.7-13.7 2.2-35-0.5-19.1-0.9-23.4-3.2-32.5-1.4-5.8-4-14.8-5.7-20-1.7-5.2-5.3-13.9-7.9-19.2-2.7-5.4-7.7-14.4-11.2-20-3.4-5.7-9.8-15-14.2-20.8-4.4-5.8-14.5-17.1-22.5-25.1-8-8-20.3-19.4-27.5-25.4-7.2-5.9-18.2-14.2-24.5-18.4-6.3-4.2-14.7-10-18.5-12.9-3.8-2.9-10.7-9-15.3-13.5-4.6-4.5-9.2-10-10.1-12.2-1-2.2-2.1-6.9-2.5-10.5-0.5-4.8-0.2-8 1.2-12.5 0.9-3.3 2.8-7.6 4.1-9.5 1.3-1.9 4.2-4.8 6.5-6.5l4.1-3c26.9 0.2 29 0.5 41.5 3.9 7.4 2.1 20.3 5.9 28.5 8.6 8.3 2.6 18.9 5.8 23.7 7.1 4.8 1.3 8.9 2.2 9.1 1.9 0.2-0.3 2.7-23.9 5.6-52.5 2.8-28.6 5.1-52.9 5.1-54 0-1.7-1.6-2.4-11.7-4.7-6.5-1.5-17.4-3.9-24.3-5.3-6.9-1.5-19.9-3.5-29-4.6-10.9-1.4-24.8-2.2-41-2.4-22.2-0.4-25.7-0.2-37.5 1.9z"/><path class="g" d="m388 159c-5.2 0.4-16.5 1.9-25 3.3-8.5 1.4-22.7 4.3-31.5 6.5-8.8 2.2-19.8 5.5-24.5 7.2-4.7 1.7-14.6 6.2-22 9.9-8.4 4.3-19.3 11-29 17.9-12.5 8.9-17.7 13.4-27 23.3-6.4 6.8-14.3 15.8-17.6 19.9-3.3 4.1-8.8 11.6-12.1 16.5-3.4 4.9-7.7 12.3-9.7 16.3-2 3.9-5.5 11.8-7.7 17.5-2.3 5.6-5.7 14.7-7.6 20.2-1.8 5.5-4.7 16.3-6.3 24-1.5 7.7-3.8 19.9-4.9 27-1.1 7.1-2.7 23.6-3.6 36.5-0.9 12.9-1.6 31.1-1.6 40.5 0.1 9.4 1 25.3 2.1 35.5 1.1 10.2 2.8 24.6 4 32 1.1 7.4 3 18.9 4.4 25.5 1.3 6.6 3.8 17 5.5 23 1.8 6 5.3 16.4 7.8 23 2.5 6.6 6.4 15.8 8.8 20.5 2.3 4.7 7.1 12.6 10.6 17.5 3.5 5 10.1 13.5 14.6 19 4.4 5.5 10.5 12.3 13.5 15.1 2.9 2.8 8.5 7.7 12.3 11 3.8 3.3 11.1 8.8 16 12.1 4.9 3.4 12.1 7.7 16 9.6 3.9 1.9 11.7 5.3 17.5 7.5 5.8 2.2 15 5.2 20.5 6.6 5.5 1.4 14.3 3.5 19.5 4.5 6.8 1.4 16.2 2.1 33 2.7 15.2 0.4 30.4 0.2 43-0.5 14.5-0.9 25.9-2.4 44.5-5.7 19.5-3.5 30.8-6.2 51.3-12.2 19.2-5.6 26.2-8.1 26.2-9.2 0-0.8-4.5-35.7-10.1-77.5-5.6-41.8-10.4-76.2-10.6-76.5-0.2-0.3-5.7 0.5-12.1 1.8-6.4 1.3-19.6 4.3-29.2 6.7-9.6 2.4-25.1 5.5-34.5 6.9-9.4 1.4-24.2 2.8-33 3.2-11.1 0.5-17.8 0.3-22-0.6-3.3-0.6-9.4-2.1-13.5-3.3-4.8-1.3-10-3.8-14.5-6.8-3.9-2.6-9.1-6.9-11.6-9.6-2.6-2.6-6.4-7.9-8.5-11.8-2.1-3.9-5.1-10.8-6.7-15.5-2-5.9-3.3-12.8-4.2-22.5-0.8-7.7-1.4-18.9-1.5-25 0-7.4 1-17.3 2.9-30 1.6-10.4 4.4-24.9 6.2-32 2.3-9.4 4.7-16.1 8.7-24 3-6.1 7-13 8.9-15.5 1.9-2.5 4.9-6.1 6.6-8 1.8-1.9 6.8-6.2 11.2-9.5 5.1-3.9 11.3-7.4 17-9.7 4.9-2 13.4-4.8 18.8-6.2 6.2-1.7 12.3-2.6 17-2.6 3.9 0 13.5 0.7 21.2 1.5 7.7 0.8 18.3 2.3 23.5 3.4 5.2 1.1 18.9 5.2 30.5 9 11.6 3.9 21 7 21.1 6.8 0.1-0.1 5.4-34.8 11.8-77.2 6.4-42.4 11.6-77.8 11.6-78.8 0-1.2-2.4-2.6-8.8-5.1-4.8-1.8-13.7-4.7-19.7-6.4-6.1-1.7-15.5-3.8-21-4.7-5.5-0.9-18.1-2.5-28-3.5-12.5-1.4-24.3-1.9-38.5-1.8-11.3 0-24.8 0.4-30 0.8z"/><path class="h" d="m2586 247.3c-13.9 62.8-25.3 114.3-25.4 114.5 0 0.1-3.7-6-8-13.5-4.4-7.6-8.3-14.5-8.8-15.3-0.4-0.8-18.1-36.8-39.4-80-21.2-43.2-41.9-84.5-46-91.8-5.1-9.1-7.9-13.2-9.2-13.2-0.9 0-30.8 5.8-66.5 12.8-42.3 8.3-64.4 13-63.9 13.7 0.5 0.5 20.3 35.6 43.9 78 23.7 42.4 53.7 95.9 66.8 119 13 23.1 29.4 52.6 36.3 65.5 6.9 12.9 18.3 35.2 25.4 49.5 7.9 16.2 12.8 27.1 12.8 29 0 1.6-5.1 35.2-11.3 74.5l-11.2 71.5c91 19.4 117.6 24.8 117.8 24.5 0.2-0.3 3.7-13.8 7.6-30 4-16.2 11-44.8 15.6-63.5 4.6-18.7 19-76.3 32-128 13-51.7 28.1-111.6 33.6-133 5.5-21.5 13.6-52.7 18-69.5 4.4-16.8 10.4-39.1 13.4-49.5 2.9-10.5 7.4-26.7 10-36 2.6-9.4 4.5-17.1 4.3-17.1-0.2-0.1-27.3-6.1-60.3-13.3-33-7.2-60.5-13.1-61.1-13.1-0.6 0-12.1 49.9-26.4 114.2z"/></svg>