<svg version="1.2" xmlns="http://www.w3.org/2000/svg" viewBox="0 0 2953 152" width="2953" height="152"><style>.a{fill:#d83425}.b{fill:#00a6db}.c{fill:#00a63d}.d{fill:#fff}.e{fill:#6c2f94}.f{fill:#ef9c48}.g{fill:#dd4a70}</style><path fill-rule="evenodd" class="a" d="m2492.8 1.1c2.2-0.1 2.2-0.1 7.7 68.9h2.5c1.4-0.1 5.8-0.6 9.7-1.3 4-0.7 7.3-1.1 7.3-1 0 0.2-0.5 2.2-2.1 8.8l-11.2 1.7c-6.2 1-11.9 1.8-12.7 1.8-1.2 0-2-5.7-4.4-34.2-1.6-18.9-3.1-34.5-3.3-34.8-0.2-0.3-9.5 1.7-40.8 9.5l5 53.8c4.8 51.4 5.1 53.7 7 53.7 1.1 0 12.1-1.3 24.5-3 12.4-1.6 22.8-3 23.2-3 0.5 0 0.5 1.7 0.2 3.7-0.3 2.1-0.9 4.1-1.2 4.5-0.4 0.5-12.2 2.1-26.2 3.8-14 1.6-26.6 3-30.5 3l-11-123.5 27-6.1c14.8-3.4 28-6.2 29.3-6.3zm-1989.6 2c3.2 0 9.1 0.4 13 1 4 0.5 9.5 1.7 12.3 2.6 2.7 0.8 10.4 4.3 16.9 7.7 6.5 3.3 12.1 6.5 12.3 7.1 0.2 0.5-1.9 6.6-4.7 13.5-4.1 10.3-4.7 12.7-3.6 13.5 0.8 0.5 2.3 4.6 3.3 9 1.4 6.4 1.8 12.1 1.8 28-0.1 13-0.5 21.6-1.3 24.5-0.7 2.5-2.3 7.8-3.5 11.9-2 6.8-2.5 7.5-6.2 9.4-2.2 1.1-6.9 3.1-10.5 4.4-5 1.9-9.2 2.6-18 3.1-9.9 0.4-12.8 0.2-21-1.9-5.2-1.2-12-3.7-15.1-5.4-3.1-1.6-9.1-6.2-13.5-10-4.7-4.1-9.6-9.7-12.1-13.5-2.2-3.6-5-8.3-6-10.5-1.1-2.2-2.5-6-3.1-8.5-0.7-2.5-1.9-7.5-2.7-11.3-0.8-3.7-1.5-9.1-1.5-12 0-2.8 0.6-9 1.4-13.7 0.7-4.7 2.2-10.5 3.3-13 1.1-2.5 4.1-7.4 6.8-11 2.7-3.6 7.6-8.8 10.9-11.6 3.5-2.9 9.1-6.3 13.1-7.9 3.8-1.6 10.4-3.4 14.5-4.1 4.1-0.6 10.1-1.2 13.2-1.3zm2395 0c3.2 0 9.1 0.4 13 1 4 0.5 9.5 1.7 12.3 2.6 2.7 0.9 8.1 3.2 12 5.1 3.8 1.9 9.4 5.1 12.3 7.1 2.9 2 5.3 3.9 5.2 4.3 0 0.5-2.3 6.1-5 12.5-4.2 9.9-4.8 12-3.6 12.8 0.9 0.6 2.4 5.7 3.7 12.5 1.8 9.8 2.1 14 1.7 28.5-0.4 15.8-0.7 17.8-3.9 28.4-3.3 11.1-3.5 11.4-7.4 13.4-2.2 1.1-6.9 3.1-10.5 4.4-5 1.9-9.2 2.6-18 3.1-9.9 0.4-12.8 0.2-21-1.9-5.2-1.2-12-3.7-15.1-5.4-3.1-1.6-9.1-6.2-13.5-10-4.6-4-9.7-9.8-12.1-13.5-2.3-3.6-5.6-9.7-7.4-13.5-1.9-4.2-3.8-10.4-4.5-15.5-0.8-4.7-1.4-12.3-1.4-17 0-6.2 0.7-10.7 2.5-16.5 1.3-4.4 3.7-9.8 5.2-12.1 1.5-2.2 4.1-5.8 5.7-8 1.6-2.1 5.6-6.2 8.9-8.9 3.4-2.8 9-6.3 12.6-7.9 3.6-1.6 10.2-3.4 14.6-4.1 4.4-0.7 10.6-1.3 13.7-1.4zm-1645.8 8.9h6c3.4 0 13.9 0.3 40.9 1.5l2.6 6c1.4 3.3 3.7 8.5 7.7 17l13.9-18.4 47-0.1 2.5 16-6.5 11.5-3-19.5-36 0.1-19.9 26.4-1.7-4c-1-2.2-4.3-9.3-12.9-27.5h-32.5l-4 113h41.5v-16l21.5 1.3 10.9-18.8 3.6 17.8c2.7 13.6 3.8 17.7 5 17.7 0.8-0.1 10.4-2 41-8.5l4.2 3.7c2.4 2 4.1 3.7 3.8 3.8-0.3 0-12.9 2.5-28 5.5-15.1 3-28 5.5-28.5 5.5-0.6 0-1.8-5-2.9-11.2-1.5-9.1-2.1-11-3-9.6-0.9 1.4-2.7 1.7-19.6 1.8v16h-7.3c-3.9 0-16.9-0.3-50.2-1.3zm1225.4 9.1c2.3-0.1 2.3 0 5 33.9 2.6 32.5 2.8 34 4.7 34 1.1 0 6.1-0.7 11-1.5 5-0.8 10-1.5 11.3-1.5 2 0 2.3 0.6 2.7 5.2 0.4 3.7-0.1 7.9-4 22.2l-20 2.7c-11 1.5-21.3 2.8-26 2.9l-8-92.5 10.5-2.6c5.8-1.5 11.6-2.7 12.8-2.8zm-1209.4 7.9h19.1l6.7 13.7c3.6 7.6 7.4 16 8.5 18.7 1 2.7 2.4 5.1 3.1 5.3 0.7 0.1 6.7-7.1 25.7-32.7l25 0.5 2.2 13c1.8 10.1 2.1 15.1 1.7 22.5-0.5 7.5-0.2 11.5 1.5 19 1.1 5.2 3.4 13.5 5.1 18.5 1.7 4.9 3.1 10.1 3.1 11.5 0 2.4-0.5 2.6-13 5-7.1 1.4-13.2 2.3-13.4 2-0.2-0.3-2.3-11.1-4.7-24-2.3-12.9-4.4-23.6-4.6-23.8-0.2-0.1-4.4 7-18.4 31.8h-14l-11.5-22.5-0.5 38.5h-24.5z"/><path fill-rule="evenodd" class="b" d="m866.5 3.1c2.8-0.1 9.3 0.9 14.5 2.3 5.2 1.3 11.5 3.3 14 4.6 2.5 1.2 6.7 3.9 9.4 5.9 2.7 2 6.2 5.5 10.6 12.1l-2.5 2.8c-1.4 1.5-2.5 3.2-2.5 3.7 0 0.5-1.5-1.2-3.3-4-1.9-2.7-5.4-6.6-7.8-8.5-2.4-1.9-7.8-4.8-11.9-6.3-6.8-2.7-9-3-23.5-3.5-13.4-0.4-17.1-0.3-22.5 1.2-3.6 1-8.3 2.7-14.5 5.7l4.4 61.7c2.4 33.9 4.6 61.9 4.8 62.2 0.3 0.3 8.5-0.4 36.3-3.5l0.2-6 1.5 3.5c0.8 1.9 1.7 3.7 2 4 0.2 0.3 9.2-0.6 19.9-2 10.7-1.4 19.4-2.8 19.4-3.3 0-0.4-4.2-11.7-9.2-25.1-8.5-22.4-9.2-24.5-7.5-25.5 0.9-0.6 1.9-0.8 2.2-0.4 0.3 0.5 0.5 2.1 0.5 3.8 0 1.7 1.2 6.6 2.7 11 1.4 4.4 4.4 10.7 6.7 14 2.2 3.3 5.3 7.1 6.7 8.5 1.6 1.4 4.2 6.3 6.1 11.2 1.8 4.9 3.1 8.9 2.8 9.1-0.3 0.2-12.4 2.1-27 4.1-16.1 2.3-27.7 3.5-29.5 3-1.6-0.3-11.6 0.2-22.2 1.2-10.5 1.1-19.3 1.7-19.6 1.4-0.2-0.3-2.4-31.4-9.2-137.8l7.5-3.8c4.1-2 9.1-4.1 11-4.7 1.9-0.5 8.2-1.2 14-1.6 5.8-0.4 12.8-0.9 15.5-1zm1503.5 2.9h6.8c3.7 0 21.8 0.7 40.2 1.5 18.4 0.9 34.4 1.6 35.5 1.8 1.1 0.1-2.1 1.1-7.1 2.2-7.6 1.7-9.1 2.3-8.8 3.8 0.4 1.5-0.3 1.6-5.3 1.2-3.2-0.3-13.8-1-23.5-1.5-9.8-0.6-20.3-1-28.8-1v121h34c26.5 0 34 0.3 34 1.3 0 0.9 1.6 1 14-0.3v7h-91zm-2062.6 2h59.6v6c0 3.3-0.3 6.2-0.8 6.4-0.4 0.2-2.4 0.6-4.5 1-3.5 0.6-3.7 0.4-3.7-4.4h-42.5l-1.8 54.7c-1 30.2-1.7 56.9-1.7 64.3l39-1v7.5l-7.2 0.7c-4 0.4-14.6 1.1-39.8 2.3v-6c-0.1-3.3 0.7-34.2 1.7-68.7zm553.3 12.1c4.5-0.1 11.4 0.5 15.3 1.4 3.8 0.8 8.9 2.4 11.2 3.6 2.3 1.2 6 3.5 8.2 5.2 2.1 1.7 4.9 5.4 8.8 13.2l-2.1 6.5c-1.1 3.5-2.4 9.6-2.8 13.5-0.4 3.8-0.6 7.4-0.5 8 0.1 0.5-1.2 2.4-3.1 4.2-1.8 1.8-4.8 4-10.2 6.4l8.7 22.9c4.8 12.6 8.8 23.3 8.8 23.7 0 0.4-4.9 1.4-11 2.3-6 0.8-11.2 1.2-11.4 1-0.3-0.3-4.4-9.3-9.2-20-4.7-10.8-8.9-19.8-9.1-20-0.3-0.3-0.2 8.7 0.9 40.5l-9.9 0.7c-5.4 0.5-9.9 0.7-9.9 0.5-0.1-0.1-1.9-24.9-4-55.1-2.6-35.9-3.6-55.1-2.9-55.5 0.5-0.3 4.3-1.1 8.5-1.8 4.1-0.6 11.2-1.2 15.7-1.2zm1526.6 2.5l14.1 0.7c7.7 0.4 19.1 1 36.3 2.2l0.7 10c0.4 5.5 0.9 10.7 1.1 11.7 0.4 1.6-0.6 1.7-27.5 0.8l-0.5 12.8 18.5 1.2v21h-19v22h34v22h-58zm-2064 2.3h23.6l0.6 24.2c0.4 15 0.1 34.4-2.1 77.3l-24.5 0.5v-6.8c0-3.7 0.5-26.7 1.2-51zm2116 33.3c0.7 0.2 1.6 5.6 2.3 13.3 0.6 7.1 1.4 15.7 2.3 25.4h-25v-2.5c0-2.5 0.1-2.5 19-2.5l0.1-17.1c0.1-12.2 0.5-16.9 1.3-16.6z"/><path fill-rule="evenodd" class="c" d="m581.5 4h58.5v2.5c0 2.2 0.4 2.5 3.3 2.5 1.7 0 11.3-0.9 21.2-2 9.9-1.1 19.4-2 24-2l6.4 53.5-5.5 23-4-33.8c-3.7-31.7-4-33.7-5.9-33.7-1.1 0-9.9 0.7-19.5 1.6-15.6 1.5-17.8 1.9-22.5 6.3l1.2 10.8c0.7 5.9 1.2 12.3 1.3 14.1 0 2.9-0.3 3.2-6 3.2l-1-38h-42.5l3 124h6c3.3 0 12.4-1.5 34.5-6.5v-35.5h9.5l2.5 18.5c2.3 17 2.7 18.5 4.5 18.5 1.1 0 7.6-0.9 14.5-2 6.9-1 12.6-1.8 12.8-1.7 0.1 0.1-0.2 2-1.7 8.2l-16.3 2.3c-9 1.2-16.9 2.2-17.6 2.2-0.6 0-1.2-0.7-1.2-1.5 0-0.8-0.5-1.5-1-1.5-0.5 0-8.2 1.6-17 3.5-12.8 2.8-18.2 3.5-37.5 3.5zm476 0h91.5v4.5c0 2.5-0.3 4.5-0.7 4.5-0.5 0-2.5 1.1-8.3 5v-5h-74.5l0.5 42 16.5 0.5 0.5 78.5h41l-0.1-10.2c0-5.7-0.6-23-2.4-66.9l2.4 0.3c2 0.3 2.8 1.4 4.6 6.8 1.7 5.2 2.3 10.1 2.8 25 0.4 10.2 1 26.3 2.2 53h-58.5l-0.5-78.5-16.5-0.5zm-788.3 2.1c3.2 0 5.8 0.3 5.8 0.8 0 0.5 1.2 1.1 2.7 1.4 1.6 0.3 7.7 1.4 13.8 2.6 6 1.1 12 2.3 13.2 2.6 1.9 0.4 2.3 1.2 2.3 4.5 0 2.2-0.3 4-0.8 4-0.4 0-6.8-1.1-14.2-2.5-7.4-1.4-14.5-2.5-15.8-2.5-1.7 0-3 1.5-9.2 12.5v-7.2c0-6.3-0.2-7.3-1.8-7.3-0.9 0-11.5 0.8-45.2 3.5l-0.5 120.1 20 1.2c11 0.7 21.2 1.2 25.5 1.2l0.5-22.5 11 15.8 8-0.7c4.4-0.4 10.6-1 19.5-2.1v4c0 3.8-0.1 4-3.7 4.7-2.1 0.4-9.1 1.3-27.3 3.3v3.3c0 2.4-0.4 3.2-1.8 3.2-0.9 0.1-14.8-0.9-59.7-4.4v-135.2l26-2.1c14.3-1.1 28.6-2.1 31.7-2.2zm1154.8 1.2c9 0.2 10 0.4 18 4.4 4.7 2.3 9.9 5.4 11.7 7 2.7 2.4 3.3 3.7 4.5 15.8l-3.9-4.5c-2.2-2.5-6.2-5.9-8.9-7.7-2.7-1.7-7.6-3.8-10.9-4.7-3.3-0.9-8.2-1.6-11-1.6-2.7 0-8.8 0.8-13.5 1.7-7.7 1.5-9.3 2.2-16.5 7.7-6.4 4.8-9.1 7.7-13.5 14.5-3 4.7-6.4 10.8-7.6 13.6-1.3 3.1-2.4 8.7-2.8 14.5-0.5 6.1-0.4 12.4 0.4 17.5 0.7 4.4 2.4 11.2 3.8 15 1.5 3.9 4.5 9.9 6.8 13.5 2.3 3.6 6 8.1 8.1 10.1 2.1 2 6.5 5 9.8 6.7 3.3 1.7 7.8 3.6 10 4.1 2.2 0.6 8.5 1.1 14 1.1 7.5 0 11.5-0.5 16-2 3.3-1.1 8.3-3.5 11-5.3 2.8-1.8 7-5.9 14-14.8l0.5 5.8c0.4 4.7 0.1 6.4-1.5 8.7-1.1 1.7-4.2 4.7-7 6.8-2.7 2-8.4 4.9-12.5 6.3-6.4 2.2-9.2 2.5-19.5 2.5-8.8 0-13.6-0.5-18-1.9-3.3-1-8.5-3.1-11.5-4.6-3-1.5-7.7-4.6-10.4-6.9-2.6-2.2-7.2-7.5-10-11.6-3.3-4.7-6.2-10.5-7.8-15.5-1.5-4.4-3.3-11.4-4.2-15.5-0.9-4.1-1.6-9.5-1.6-12 0-2.5 0.7-8.1 1.4-12.5 0.8-4.4 2.2-10.2 3.2-13 1-2.7 4.1-8.8 6.8-13.4 2.8-4.6 6.9-10.3 9.2-12.5 2.3-2.3 6.1-5.5 8.5-7.1 2.4-1.7 8-4.5 12.4-6.2 4.4-1.8 9.1-3.4 10.5-3.7 1.4-0.2 6.8-0.3 12-0.3zm1278.4 1.7h59.6v5.5c0 4.4-0.3 5.6-1.8 5.9-0.9 0.2-2.9 0.7-4.5 1-2.4 0.5-2.7 0.3-2.7-4.4h-42.5l-1.8 54.8c-1 30.1-1.7 56.8-1.7 64.2l39-1v7.5l-7.7 0.7c-4.3 0.4-15.1 1.1-40.3 2.3v-4.5c-0.1-2.5 0.9-33.2 2.2-68.2zm-2104 11l25-0.1 0.8 4.8c0.4 2.6 1 11.4 2.2 34.3h22.5l-0.5-7.3c-0.3-4-0.9-11.6-2-26.5l13.2-1.4c7.3-0.7 13.4-1.1 13.6-0.8 0.3 0.2 2.7 18.7 5.5 41 5 40.2 5 40.5 3.4 47.3-1.3 5.2-2.1 6.9-3.7 7.2-1.1 0.2-6 1.1-11 1.9-4.9 0.9-9.6 1.6-10.5 1.6-1.2 0-1.8-3.6-5.5-36.1l-25.5 0.1 0.1 37.5-12 2c-6.6 1.1-12.1 1.7-12.4 1.5-0.2-0.3-1-24.5-1.8-53.8zm475.5 1h57v4c0 2.2-0.8 5.7-1.9 7.8-1 2-2.3 6.5-3.6 16.2h-12l0.8 19.3c0.4 10.5 1.1 27.9 2.2 57.7h-25.5l-0.5-78.5-16.5-0.5zm-816 3l0.5 35.9 10.3-16.9c5.9-9.9 10.9-17 11.7-17 0.9 0 6.9 1 13.6 2.3 6.7 1.2 11.8 2.6 11.6 3.2-0.2 0.6-6.4 11.4-27.3 47l12.8 17c12.6 16.7 12.8 17.1 12.8 22.3 0 4.6-0.2 5.3-2.2 5.6-1.3 0.3-6.5 0.8-21.3 1.9l-23-31.4-0.5 38.1h-3.7c-2.1 0-8.7-0.3-25.8-1.3l1.5-104.4 10.2-1c5.7-0.5 12.2-1.1 18.8-1.3zm1165 0.5c6 0.2 10 0.9 13.5 2.4 2.8 1.2 7.6 4.7 10.8 7.9 3.2 3.1 7.2 7.7 8.8 10.2 2.8 4.4 2.9 5 6.3 51.5l-3.7 8c-2.1 4.5-5.6 9.9-8 12.3-2.3 2.4-6.6 5.8-9.7 7.5-5.3 3.1-5.8 3.2-17 3.2-9.9-0.1-12.3-0.4-17.5-2.6-3.3-1.3-8.2-4.2-11-6.4-2.8-2.2-6.6-6.5-8.5-9.5-1.9-3-4.3-7.7-5.3-10.5-1-2.7-2.4-8.8-3.2-13.5-0.8-4.7-1.4-10.7-1.4-13.5 0-2.7 1-8.4 2.4-12.5 1.3-4.1 3.1-9.2 4-11.2 0.8-2.1 4.1-6.4 7.3-9.6 3.1-3.1 8.4-7.3 11.7-9.2 3.3-1.9 7.4-3.8 9-4.2 1.7-0.4 6.9-0.5 11.5-0.3zm-2 57c0.6 1.4 0.9-0.2 0.9-5 0-3.8-0.4-7.9-0.9-9-0.6-1.4-0.8 0.2-0.8 5 0 3.9 0.4 7.9 0.8 9zm1297.4-56.5h23.1l0.8 22.3c0.4 13.8 0.2 33-1.8 79.2l-12.5 0.8c-6.8 0.5-12.7 0.5-13 0.2-0.2-0.4 0.4-23.6 1.5-51.6zm-2412.9 23.4l0.3 8.1c0.2 7.7 0.1 8.3-7.4 21l3.3 4.5c3 4.1 3.4 5.2 3.4 11-0.1 4.2-0.4 6.2-1 5.5-0.5-0.5-4.3-5.5-15.7-21z"/><path fill-rule="evenodd" class="d" d="m2484.8 11.1c2.2-0.1 2.2-0.1 5 34.4 2.6 33 2.8 34.5 4.7 34.5 1.1 0 6-0.7 11-1.5 4.9-0.8 9.7-1.5 10.5-1.5 1.3 0 1.2 1.2-0.5 8.5-1.1 4.7-2.3 7.9-2.7 7.2-0.4-0.7-0.8-2.4-0.8-3.9 0-2.2-0.5-2.8-2.3-2.8-1.2 0-6.3 0.7-11.2 1.5-5 0.8-9.9 1.5-11 1.5-1.9 0-2.1-1.6-4.9-33.7-1.6-18.6-3.1-34-3.3-34.3-0.2-0.3-5.9 0.8-24.8 5.4l3.9 46.1c2.2 25.3 4.1 46.2 4.3 46.5 0.2 0.3 4.8-0.1 10.1-0.8 5.3-0.7 15.6-2.1 35.8-4.7l-1.1 4.3c-0.5 2.3-1.4 4.2-2 4.2-0.6 0-11.1 1.4-23.5 3-12.4 1.7-23.4 3-24.5 3-1.9 0-2.2-2.3-12-107.5l18.5-4.6c10.2-2.6 19.5-4.7 20.8-4.8zm159.9 0q2.3-0.1 5.3 3.7c1.6 2 4.2 6.1 5.7 9 1.6 3 3.2 5.5 3.6 5.5 0.5 0.1 2.8-3.5 5-8q4.2-8.1 6.7-9.2c2-0.9 5.6-0.6 16.5 1.4 7.7 1.4 14.1 2.5 14.2 2.5 0.2 0 0.3 1.8 0.3 4 0 3.2-0.4 4-1.8 3.9-0.9 0-7.1-1-25.7-4.5l-2.6 5c-1.4 2.8-4.7 9-7.3 13.9-2.5 4.8-4.7 8.7-4.9 8.7-0.1 0.1-3.1-5-6.7-11.2-3.6-6.2-7-12.4-9-16.3l-27.8 5 2 4c1.1 2.2 3 5.4 4.2 7 1.1 1.7 5.3 9.1 9.2 16.5 3.9 7.4 8.4 15.8 12.8 23.5l-27.9 52.3 3 0.6c1.6 0.3 8.3 0.6 26.5 0.6l6.5-12.5c3.6-6.9 6.7-12.5 7-12.5 0.3 0 3.4 5.6 13.5 25h25v8h-30l-4-7.5c-2.2-4.1-4.2-7.5-4.5-7.5-0.3 0-2.4 3.4-9 15.3l-18-0.5c-9.9-0.2-18.7-0.7-19.5-1.1-0.8-0.4-2.2-2.8-4.7-10.2l11.4-21c6.4-11.6 12.5-22.9 15.8-29.3l-9.6-16.9c-5.3-9.2-11.5-20.4-13.8-24.8-2.8-5.4-4.1-9.3-4.1-16l17.2-3.1c9.5-1.7 18.3-3.2 19.5-3.3zm-2444.7 0.9l1.5 4c0.8 2.2 3.4 12.7 5.7 23.3 4.1 18.6 4.2 19.8 4.4 39.7 0.2 11.3 0.1 20.1-0.1 19.5-0.2-0.5-2.5-11.1-5-23.5-2.5-12.4-6.2-29.2-8.2-37.5-1.9-8.2-3.8-15.4-4.2-15.8-0.3-0.5-8.5-0.5-35.6 0.5l-12.4 49.7c-6.9 27.3-12.6 50.4-12.8 51.4-0.3 1.5 0.7 1.7 24.1 1.2l3.5-14.5c1.9-8 3.5-14.6 3.6-14.7 0 0 5.4-0.4 24-1.5l3 16.6c2.3 12.8 3.3 16.6 4.5 16.6 0.8 0 4.8-0.7 16-3v4c0 3.3-0.4 4.1-2.3 4.5-1.2 0.2-6 1.1-10.7 2-4.7 0.8-9.2 1.5-10 1.5-1.2 0-2.2-3.8-7.5-33h-10l-7 29.5-21 0.8c-11.6 0.5-21.2 0.6-21.5 0.2-0.3-0.3 6.2-27.3 29.5-119.3l16-0.9c8.8-0.5 19.7-1 32.5-1.3zm390.5 0h42.5l1 38h3c2.7 0 3-0.3 3-3.3-0.1-1.7-0.6-8.1-2.5-24.8l2.5-2.3c2.2-2.1 4.4-2.5 20-4 9.6-0.9 18.4-1.6 19.5-1.6 1.9 0 2.2 2 9.9 66.5l-2.5 10.4c-1.3 5.7-2.6 10.5-2.9 10.6-0.3 0.2-2.8-17.4-10.5-78.5h-2.5c-1.4 0-7.5 0.5-24.5 2.3l0.7 9.6c0.4 5.3 0.9 12.9 1.8 24.1h-22.5l-0.8-14.7c-0.4-8.2-1.1-16.9-2.2-24.3h-25l1.4 53.2c0.8 29.3 1.6 53.5 1.8 53.8 0.2 0.3 5.8-0.4 24.3-3.5v-37.5h25.5l2 18c1.6 14.5 2.3 18 3.5 18 0.8 0 6.4-0.8 23.1-3.5l-0.6 3.5c-0.4 1.9-1 3.8-1.3 4.3-0.4 0.4-6.3 1.6-13.2 2.7-6.9 1.1-13.4 2-14.5 2-1.8 0-2.2-1.5-7-37h-9.5v35.5l-14.2 3.3c-7.9 1.7-17 3.2-26.3 3.2zm164.2 0.2c6.1-0.1 8.3 0.1 8.3 1.1 0 0.6 0.7 2.6 1.6 4.2 0.8 1.7 2.8 9.3 4.4 17 1.6 7.7 3.8 18.2 4.9 23.3 1.5 6.5 2.1 12.5 2 20.5 0 6.1-0.4 13.5-0.7 16.2-0.7 4.7-1 3.4-5.5-18.5-2.6-12.9-6.4-30.2-8.4-38.5-1.9-8.2-3.8-15.4-4.2-15.8-0.3-0.4-8.7-0.5-36.6 0.6l-12 49.4c-6.6 27.2-12.1 50.3-12.3 51.4-0.2 1.8 0.5 1.9 24.2 1.4l3.5-14.5c1.9-8 3.5-14.6 3.6-14.6 0-0.1 5.4-0.5 24-1.6l6 33.4 3.5-0.5c1.9-0.3 5.7-0.9 13.2-2.2l-0.7 7.9-9.5 1.8c-5.2 0.9-10.4 1.7-11.5 1.8-1.8 0-2.3-1.6-8-33h-11l-7 29.5-20.5 0.8c-11.3 0.5-20.7 0.6-21 0.2-0.3-0.3 6.2-27.2 29.5-119.3l16-0.9c8.8-0.5 19.7-1 24.2-1.1zm107.3 0.2c16.5 0.3 17.9 0.5 25 3.2 4.1 1.6 9.5 4.5 11.9 6.4 2.4 1.9 5.7 5.4 7.3 7.8 1.5 2.3 2.6 4.8 2.2 5.5-0.3 0.6-1.3 2.8-4.2 8.2l-2.4-5c-1.4-2.7-4.3-6.4-6.4-8.1-2.1-1.7-5.8-4.1-8.2-5.3-2.3-1.1-7.4-2.8-11.2-3.6-3.9-0.8-10-1.5-13.8-1.5-3.7 0-10.5 0.5-15.2 1.1-4.7 0.6-9.2 1.5-10 1.9-1.3 0.7-1 7.4 2.4 55.7 2.2 30.1 4 54.9 4 55.1 0.1 0.2 4.5-0.1 19.9-1.3l-0.8-20.5c-0.4-11.3-0.5-20.3-0.2-20 0.3 0.3 4.4 9.3 9.2 20 4.7 10.7 8.9 19.7 9.1 20 0.3 0.3 5.4-0.2 11.5-1 6-0.8 10.9-1.8 10.9-2.2 0-0.5-3.9-11.1-17.5-46.7l3-1.3c1.6-0.7 4.7-2.7 10.5-7.8l0.6 5.3c0.5 4.4 0.3 5.4-1.2 6.6-1.8 1.4-1.5 2.5 7.3 25.8 5.1 13.4 9.3 24.6 9.3 25.1 0 0.4-8.7 1.8-19.4 3.2-10.7 1.4-19.7 2.3-19.9 2-0.3-0.3-1.2-2.1-3.5-7.5l-0.2 6-17.9 2c-9.9 1.1-18.1 1.8-18.4 1.5-0.2-0.3-2.4-28.2-9.2-123.8l3-1.6c1.6-0.9 5.7-2.5 9-3.6 5.2-1.7 8.2-1.9 23.5-1.6zm638.5 0c15.9 0.3 17.5 0.6 24.5 3.3 4.1 1.6 9.2 4.2 11.3 5.8 3.8 3 3.8 3.1 3.7 17l-1.9-3c-1-1.6-3.1-4.2-4.7-5.7-1.6-1.5-5.2-3.6-7.9-4.8-2.8-1.2-8-2.8-11.8-3.6-3.7-0.8-9.7-1.4-13.5-1.4-3.7 0-10.5 0.5-15.2 1.1-4.7 0.6-9.2 1.5-10 1.9-1.3 0.7-1 7.4 2.4 55.7 2.2 30.1 4 54.9 4 55.1 0.1 0.2 4.8 0 21.1-1l-0.8-20.7c-0.4-11.9-0.4-20 0.1-19.1 0.5 0.8 4.5 10 16.7 39.3l6.5-0.7c3.6-0.4 8.4-1 15-2.1v4.3c0 4-0.2 4.2-3.3 4.7-1.7 0.3-6.7 0.9-11 1.5-4.2 0.6-8.7 1-10 1-1.6 0.1-2.6-0.9-5.5-7.5l-0.2 6-17.9 2c-9.9 1.1-18.2 1.8-18.4 1.5-0.2-0.3-2.1-28.2-8.2-123.7l2.2-1.6c1.3-1 5.3-2.6 9-3.7 5.9-1.7 9-1.9 23.8-1.6zm834.5 0.1c10.9 0.3 13.5 0.7 20 3.2 4.1 1.6 9.2 4.2 11.3 5.8 3.8 3 3.8 3.1 3.7 10 0 5.7-0.3 6.6-1.2 5-0.6-1.1-2.5-3.5-4.2-5.3-1.7-1.9-5.2-4.5-7.9-5.8-2.6-1.3-8.2-3.1-12.5-4-5.9-1.3-10.4-1.5-19.2-1-6.3 0.3-13.8 1.2-16.5 2-3.9 1-5 1.8-4.8 3.2 0.1 1.1 1.9 25.8 3.9 54.9 2 29.2 3.8 53.1 3.8 53.3 0.1 0.2 4.8 0 21.1-1l-0.8-20.7c-0.4-12.3-0.4-20 0.1-19.1 0.5 0.8 4.7 10 17.7 39.3l6.5-0.7c3.6-0.4 8.2-1 14-2.1v4.3c0 3.6-0.3 4.3-2.3 4.7-1.2 0.2-6 0.9-10.7 1.5-4.7 0.5-9.5 1-10.8 1-1.4 0-2.7-1-3.7-2.7-1.2-2.3-1.4-2.5-1.5-0.8 0 1.9-1.3 2.2-18.4 4-10.2 1.1-18.7 1.8-18.9 1.5-0.2-0.3-2.1-28.3-8.2-123.9l4.5-2.3c2.6-1.3 8.3-2.8 13.5-3.5 4.9-0.6 14.6-1 21.5-0.8zm247.7-0.3c7.9-0.2 8.3-0.1 8.8 2.1 0.3 1.2 1.9 7.6 3.6 14.2 1.7 6.6 5.9 25.3 9.5 41.5 3.5 16.2 6.4 30.4 6.4 31.5 0 1.1-1.3 4.2-5.5 11.8l-1.2-5.4c-0.7-3-4.2-18.2-7.7-33.9-3.5-15.7-6.7-30.7-7.1-33.5-0.3-2.7-1.4-8-2.3-11.6-0.9-3.7-1.9-7-2.2-7.3-0.3-0.4-8.6-0.4-36.5 0.6l-12 49.5c-6.6 27.2-12.1 50.3-12.3 51.4-0.2 1.8 0.5 1.9 24.3 1.4l2.9-14.5c1.6-8 3-14.6 3-14.6 0.1-0.1 5.5-0.5 24.1-1.7l3.5 16.7c2.9 13.9 3.8 16.6 5.2 16.6 1 0 4.2-0.5 7-1.1 2.9-0.5 5.4-0.9 5.4-0.7 0.1 0.2 0.4 1.9 1.4 7.3l-10.2 1.8c-5.7 1-10.8 1.7-11.3 1.7-0.6 0-2.4-7.4-7-33h-11l-7 29.5-20.5 0.8c-11.3 0.5-20.7 0.6-21 0.2-0.3-0.3 6.2-27.2 29.5-119.3l16-0.9c8.8-0.5 19.7-1 24.2-1.1zm-1517.2 0.8h74.5v2.8c0 1.7-1 3.7-2.6 5.2-1.5 1.4-3.5 3.9-6.4 8.5v-8.5h-57v26l16.5 0.5 0.5 78.5h25.5l-0.7-19.2c-0.4-10.6-1.1-28-2.3-57.8h12.5v4c0 3.5-0.3 4-4.5 4l1.2 28.3c0.6 15.5 1.2 32.8 1.3 48.7h-41l-0.5-78.5-16.5-0.5zm1313.5 1h4.7c2.7 0 13.8 0.5 24.8 1 11 0.6 21.9 1.3 28.5 2v8.5l-10.7-0.7c-6-0.4-17.2-1.1-39.3-2.3v104.5h58v-6.2c0-3.5 0.1-6.1 0.4-5.8 0.2 0.3 0.6 4.9 1.6 20h-68zm-2112 1v14.5l7.5-12.8 4.5 0.6c2.5 0.3 9.8 1.5 28 4.7v9.3c0 5-0.3 11-0.7 13.2-0.4 2.3-4.4 10.3-17.9 33l8.2 11c8.1 10.7 8.3 11.2 8.3 16.8 0.1 3.1-0.2 5.9-0.7 6.1-0.4 0.3-6.3-7-25.8-32.9l13.8-23.5c7.6-12.9 13.8-23.7 13.8-24 0-0.3-5.4-1.5-12-2.7-6.6-1.3-12.7-2.3-13.5-2.3-0.9 0-5.8 7.1-22 33.9l-0.3-17.9c-0.2-16.4-0.4-18-2-18-0.9 0-7.4 0.6-27 2.5l-1.7 104.5h3.5c1.9 0 8.6 0.4 26 1.5l0.5-38.6 23 31.4 9.5-0.7c5.2-0.4 10.5-0.9 11.7-1.2 2.1-0.4 2.3 0 2.3 8.1l-11.2 1.3c-6.2 0.6-12.5 1.2-14.1 1.2-2.3 0-3.5-1.2-13.2-15.5l-0.5 22.5h-2.8c-1.5 0-11.7-0.5-42.7-2.4l0.5-120.1 18.3-1.6c10-0.9 20.6-1.7 28.7-1.9zm1157.5 1.4c4.4 0.2 10.2 1.1 13 2 2.7 0.9 7.2 3.3 9.9 5.3 2.7 2.1 6.2 5.4 7.7 7.3 2.2 2.8 2.9 4.9 4.1 18.5l-2.8-4c-1.4-2.2-5.4-6.8-8.8-10.2-3.6-3.8-8.1-7.2-11.1-8.5-4.2-1.8-6.8-2.2-27-2.2l-6.5 4c-3.6 2.1-9.1 6.5-12.2 9.7-3.2 3.1-6.5 7.4-7.4 9.5-0.8 2-2.6 7.1-4 11.2-1.3 4.1-2.4 9.8-2.4 12.5 0 2.8 0.7 8.8 1.5 13.5 0.7 4.7 2.2 10.8 3.2 13.5 1 2.8 3.3 7.5 5.2 10.5 1.9 3 5.8 7.3 8.5 9.5 2.8 2.2 7.8 5.1 11.1 6.4 5.2 2.2 7.6 2.5 17.5 2.6 11.1 0 11.7-0.1 17-3.2 3-1.7 7.4-5.1 9.7-7.5 2.3-2.4 5.9-7.9 11.8-20.3l1.2 17-4.2 5.5c-2.3 3-6.6 7.2-9.6 9.3-3 2.1-8.1 4.6-11.4 5.7-4.4 1.5-8.7 2-16 2-5.5 0-11.8-0.5-14-1.1-2.2-0.5-6.7-2.4-10-4.1-3.3-1.7-7.7-4.7-9.8-6.7-2.1-2-5.8-6.5-8.1-10.1-2.3-3.6-5.3-9.6-6.8-13.5-1.4-3.8-3.1-10.6-3.8-15-0.8-5.1-0.9-11.4-0.4-17.5 0.4-5.8 1.5-11.4 2.8-14.5 1.2-2.8 4.6-8.9 7.6-13.6 4.4-6.9 7.1-9.7 13.4-14.5 6.7-5 9.2-6.2 15.5-7.6 4.8-1.1 10.5-1.6 15.6-1.4zm-1109.1 0.6h42.6v2.5c0 1.8-0.6 2.6-2.3 3-1.2 0.3-4.2 0.9-6.7 1.5-2.5 0.5-9.2 1-25.5 1l-1.3 44.3c-0.7 24.3-1.2 47.2-1.2 57.7l24.5-0.5 1.2-22c0.6-12.1 1.2-24.2 1.4-27 0.1-2.7 0.8 6.9 1.5 21.5 0.6 14.6 1.3 28.6 1.4 36l-19.3 0.6c-10.5 0.3-19.4 0.2-19.7-0.1-0.3-0.4 0.4-27.2 1.4-59.6zm471.1 0h32.6v8h-24.5l-2 51c-1.1 28-1.8 51.2-1.5 51.5 0.2 0.4 5.9 0.3 24.5-1l2.1-40.5c1.1-22.2 2.2-40.7 2.3-41 0.2-0.2 1.3 14.4 2.5 32.5 1.5 22.2 2.1 37 1.1 57l-20.5 0.8c-11.3 0.5-20.8 0.6-21 0.2-0.3-0.3 0.6-27.1 1.9-59.5zm1924 0h42.6v2.5c0 1.7-0.6 2.6-2.2 2.9-1.3 0.3-4.3 1-6.8 1.5-2.5 0.6-9.2 1-25.5 1l-2 51c-1.1 28-1.8 51.2-1.5 51.5 0.3 0.4 6.1 0.3 25.5-0.9l1-26.2c0.6-14.4 1.2-26.4 1.5-26.7 0.3-0.3 0.9 8.4 1.3 19.2 0.4 10.8 1.1 24.7 2.2 41.9l-19.5 0.7c-10.7 0.4-19.7 0.4-20 0-0.3-0.3 0.4-27.1 1.5-59.5zm-1750.2 1.1c4.3-0.1 9.8 0.4 12.3 1.1 4.3 1.2 4.5 1.4 4.5 5 0 3.7 0 3.8-3.3 3-1.7-0.4-7.3-0.6-12.2-0.5-5 0.1-11.9 1-15.5 2-3.6 0.9-8.8 3-11.5 4.7-2.7 1.7-6.8 5-9 7.4-2.2 2.4-4.6 5.4-5.2 6.5-0.7 1.2-1.9 4.4-2.7 7.2-0.8 2.7-1.7 8.4-2.1 12.5-0.5 5.9-0.1 9.8 1.8 18.5 1.3 6 3.3 13 4.5 15.5 1.1 2.5 3.4 5.8 4.9 7.3 1.5 1.6 4.6 4.1 6.8 5.7 2.3 1.5 6.8 3.2 10.5 4 5.1 1 8.5 1 15.5 0.2 4.9-0.7 12.1-2.1 16-3.2 3.8-1.2 7-2 7.1-1.8 0 0.1 0.8 1.7 3.4 6.8l-6.3 2.3c-3.4 1.3-10.7 3-16.2 3.7-6.1 0.7-12.7 1-17 0.5-5-0.5-8.9-1.7-13.5-4.1-3.6-1.8-7.6-4.4-9-5.6-1.4-1.3-4.1-4.8-6-7.8-1.9-3-4.7-8.6-6.2-12.5-1.6-4.1-3.2-11.2-3.9-17-0.9-7.2-0.9-12-0.2-17 0.6-3.9 2.3-9.9 3.9-13.5 1.6-3.6 4-8.3 5.3-10.5 1.3-2.2 5.1-6 8.5-8.5 3.3-2.4 9.5-5.8 13.6-7.6 4.1-1.8 8.8-3.4 10.5-3.7 1.6-0.2 6.5-0.5 10.7-0.6zm-947.7 1.7l16.5 0.7c9.1 0.3 16.8 1 17.2 1.3 0.3 0.4 3.7 7.3 7.5 15.4 4.4 9.6 7.1 14.4 7.8 13.8 0.5-0.5 5-6.3 19-24.9l35-0.1 9.9 59.5-2.4 10.5c-1.3 5.8-2.6 9.8-2.9 9-0.3-0.8-3-17-11.6-70.5l-24-0.5-12.3 16.5c-6.7 9.1-12.5 16.5-13 16.5-0.4 0-3.5-5.6-7-12.5-3.4-6.9-6.4-13.5-6.7-14.8-0.3-1.2-1.2-2.9-2-3.7-0.9-0.8-1.6-2.2-1.5-3 0-0.8-0.4-2.1-0.9-2.8-0.6-0.8-4-1.2-20.6-1.2l-3 97h24.5l0.5-38.5 11.5 22.5h14l9-16c4.9-8.8 9.2-15.9 9.4-15.8 0.2 0.2 2.6 11 5.2 24 4.4 21.6 5.1 23.8 6.9 23.8 1.1-0.1 4.9-0.7 8.5-1.5 3.6-0.8 7.1-1.5 7.7-1.5 0.9 0 1.1 1 0.7 3.2-0.4 1.8-1 3.7-1.4 4.3-0.4 0.5-6 2.1-12.4 3.5-6.3 1.4-11.7 2.3-11.9 2-0.2-0.3-2-8.4-7.3-35.5l-9.4 17.5h-23v16h-40.5zm1041.7 0.3c3.8-0.1 3.8-0.1 3.8 7.9l-22.5 2.3 1.2 10.6c0.6 5.8 1.6 15.6 2.2 21.6 0.6 6.1 1.1 17 1.1 24.3 0 11.9-0.2 13.4-2 15.2-1.1 1.1-3.2 2-4.8 2-1.5 0-3.6-0.3-4.7-0.6-1.1-0.3-3-1.9-4.1-3.7-1.3-1.9-3-8-4.4-15.2-1.6-8.5-2.4-17.8-3.5-51.5h-24.5l-0.6 21.8c-0.5 15-0.3 24.3 0.6 30.2 0.6 4.7 1.9 11.4 2.7 15 1 3.9 3.1 8.7 5.3 12 2.1 3 5.5 6.9 7.6 8.5 2.1 1.7 5.2 3.7 6.9 4.4 1.8 0.8 8 1.6 15.5 1.8 12.2 0.5 12.6 0.4 18-2.4 3.7-1.9 6.5-4.3 8.5-7.3 1.7-2.5 4.3-8.1 5.8-12.5 2.6-7.7 2.7-8.7 2.2-41.6l8 0.6 0.3 16c0.2 9.3-0.2 18.5-0.9 22-0.6 3.3-2.1 8.5-3.2 11.5-1.1 3-3.7 7.3-5.8 9.5-2 2.2-6.7 6-17.3 13h-13.6c-9.1 0-14.8-0.5-17.5-1.4-2.2-0.8-6.3-2.9-9-4.7-2.8-1.7-5.9-4.2-7.1-5.5-1.1-1.3-3.2-4.2-4.5-6.4-1.4-2.2-3.9-7.6-5.6-12-1.8-4.4-3.6-10.2-4.2-13-0.6-2.7-1.2-10.4-1.3-17-0.2-6.6 0.2-20.7 1.7-50.5h40.5v17.3c0 9.4 0.7 23.5 1.6 31.2 0.8 7.7 2 14.8 2.5 15.8 0.5 0.9 0.9 2.4 0.9 3.2 0 0.8 0.5 1.8 1.2 2.3 0.9 0.5 1-2.8 0.4-14.3-0.4-8.2-1.6-23.1-2.6-33-1.1-9.9-2.3-19.3-3.7-24l12.6-1.6c6.9-0.9 14.3-1.7 16.3-1.8zm206.2 0.9h32.6l5.5 11.8c3.1 6.4 6.4 13.5 9.1 19.7l19.9-26.4 36-0.1 1.2 7.7c0.7 4.3 1.3 9 1.3 10.6 0 1.5-0.9 5.1-2 8-1.1 2.8-2 6.6-2.1 8.2 0 1.7-0.3 2.6-0.5 2-0.2-0.5-1.5-7.1-5-28l-24.9-0.5-12.3 16.5c-6.7 9.1-12.8 16.4-13.5 16.2-0.6-0.2-2.1-2.6-3.1-5.3-1-2.7-4.9-11.1-15.1-32.4h-19l-3 97h24.5l0.5-38.5 11.5 22.5h14l9-16c4.9-8.8 9.2-15.9 9.4-15.7 0.2 0.1 2.3 10.8 4.6 23.7 2.3 12.9 4.4 23.7 4.7 24 0.2 0.3 6.3-0.6 26.5-4.5l-0.6-4.2c-0.3-2.4-0.5-4.3-0.4-4.3 0.2-0.1 2.4 3.1 5 7 2.7 3.8 4.7 7.2 4.5 7.4-0.1 0.2-9.3 2.3-20.4 4.7-11.1 2.4-20.4 4.2-20.6 3.9-0.2-0.3-2-8.4-7.3-35.5l-10.9 18.8-21.5-1.3v16h-41.5zm-867.4 2.3c2 0.2 3.8 2.1 8.5 9 3.3 4.9 6.1 8.5 6.3 8 0.1-0.4-0.1-2.6-1.5-8.8l20.8-1.5c11.4-0.8 21.1-1.1 21.6-0.7 0.4 0.4-0.1 2.2-1.1 4-1.1 1.8-2.8 5.2-5.5 12.2v-3.7c-0.1-3.6-0.3-3.8-3.3-3.8-1.8 0-7.6 0.3-22.3 1.3l1.7 15.1c0.9 8.3 1.7 16.2 1.8 17.6 0 1.7-4.4-4-28.7-40.5l-27.8 5.9 1.9 44.5c1.1 24.6 2.1 44.8 2.3 45.1 0.2 0.3 6.1-0.2 25.6-2.5l-0.8-23c-0.5-13.7-0.4-22.7 0.1-22.4 0.5 0.3 4.7 5.9 9.4 12.4 4.7 6.5 8.9 11.9 9.3 12.1 0.4 0.2 2.5 3 4.7 6.2 2.2 3.1 4.9 6.8 8.2 10.7l24.1-6-1.3-17 3.3 5.5c1.8 3 4 6.6 5 8 0.9 1.4 1.7 4.1 1.8 9.5l-15.8 4.2c-8.7 2.4-16.7 4.3-17.8 4.3-1.1 0-3-1-4.2-2.2-1.3-1.3-4.3-5-6.8-8.3-2.4-3.3-6-7.8-11.5-14l1.3 28-21.1 2c-11.6 1.1-21.2 1.8-21.5 1.5-0.2-0.3-1.5-23.9-5.2-104.5l18-4.2c9.9-2.2 19.1-4 20.5-4zm2394.3-0.2c2.4-0.1 3.5 1 14.8 18.4l-0.6-10.2 20.7-1.4c11.4-0.8 20.9-1.1 21.2-0.6 0.4 0.4-0.7 3.5-2.3 7-1.5 3.4-3.3 7.3-3.9 8.7-0.9 2.3-1.1 2-1.1-2.2-0.1-4.7-0.1-4.8-3.3-4.8-1.8 0-7.6 0.3-22.3 1.3l2.3 16.1c1.2 8.9 2.1 16.7 2 17.4-0.2 0.7-6.7-7.9-14.5-19.2-7.9-11.3-14.8-20.6-15.5-20.6-0.7 0-6.9 1.2-26.3 5.4l1.9 44c1.1 24.3 2.1 44.3 2.3 44.6 0.3 0.3 6.1-0.2 25.6-2.5l-0.7-12.5c-0.3-6.9-0.9-17.2-1.9-33.5l2.8 2.5c1.5 1.4 6.6 7.9 11.3 14.5 4.8 6.6 10.8 14.7 13.6 18 2.7 3.3 5.4 6.2 6 6.4 0.6 0.1 6.2-1 23.9-5.4l-1.4-17 3.3 5.5c1.9 3 4.1 6.6 5.1 8 0.9 1.4 1.7 4.1 1.8 9.5l-15.8 4.2c-8.7 2.4-16.7 4.3-17.8 4.3-1.1 0-3.3-1.2-4.9-2.7-1.6-1.6-6.1-7-17.1-21.6l-0.5 27.8-20.4 2c-11.3 1.1-20.6 1.8-20.9 1.5-0.2-0.3-1.5-23.9-5.2-104.5l17.5-4.1c9.6-2.3 18.8-4.2 20.3-4.3zm-85.5 4.2c0.3 0.7 0.2 4.8-0.2 9.2-0.6 7.7-0.9 8.5-18.1 39l7.7 14c7.7 13.8 7.8 14.1 7.8 21.3 0 3.9-0.3 7.2-0.7 7.2-0.4 0-2.8-3.5-5.3-7.7-2.5-4.2-7.7-13.8-18.6-34.8l3.7-6.5c2-3.6 6.7-12.1 10.4-19 3.8-6.9 8.2-15.1 9.8-18.2 1.7-3.2 3.2-5.2 3.5-4.5zm-289.3 20.4l10.5 0.7c5.8 0.3 12 0.6 13.8 0.6 3.1 0 3.2 0.1 3.2 4.5 0 2.5-0.4 4.5-1 4.5-0.6 0-1 6.3-1 34h-9.5c-9.5 0-9.5 0-9.5 5h25l0.5 8h-33.5v-22h19v-21l-18.5-1.2zm-1447 5.1c2.8 0.3 6 0.9 7.3 1.3 1.8 0.7 2.2 1.7 2.2 4.9 0 2.2-0.2 4.7-0.5 5.5-0.4 1.2-1 1-3.5-1-2.5-2.1-4-2.5-9.1-2.5-5.2 0-6.5 0.4-8.1 2.3-1.1 1.3-2.1 4.6-2.4 8.2-0.4 3.3-0.4 7.2 0 8.8 0.6 2.4 1.1 2.7 4.9 2.7 2.3 0 7-0.9 10.5-2 3.4-1.1 6.7-2 7.2-2 0.6 0 1 1.7 1 3.8 0.1 3.6 0 3.7-6.2 6-3.8 1.3-8.5 2.2-12 2.2-4 0-6.6-0.6-8.5-1.9-1.8-1.2-3.2-3.4-4-6.5-0.8-2.8-1-7.1-0.7-10.8 0.3-3.5 1.6-8.2 2.8-10.5 1.2-2.3 3.3-4.8 4.6-5.5 1.4-0.6 4.1-1.7 6-2.4 2-0.6 5.8-0.9 8.5-0.6zm573.2 16.5l0.7 6.1c0.7 5.9 0.6 6.2-4.9 11.1l2.8 7.3c2.4 6.5 2.7 8.3 2.2 28.5l-16-40.1 4-2c2.2-1 5.6-4 7.6-6.4zm830.1 0.9l0.7 5.6c0.6 5.4 0.5 5.8-5 10.7l2.7 7c2.4 6.1 2.8 8.4 2.8 29l-15.5-40 4.5-2.6c2.5-1.5 5.7-4.2 7.2-6.2z"/><path fill-rule="evenodd" class="e" d="m205.5 3l3.2 9.3c3.3 9.1 3.3 9.3 3.3 28.7 0 10.7-0.1 19.3-0.4 19-0.2-0.3-2.3-9.4-4.5-20.3-2.3-10.8-4.8-21.5-5.6-23.7-1.4-3.7-1.8-4-5.3-4-2 0-13.1 0.5-45.3 2.4l-14.7 59.3c-8.1 32.6-14.5 59.5-14.2 59.8 0.3 0.4 9.9 0.3 42.5-1l7-29.5h10l3 16.5c2.3 12.7 3.3 16.5 4.5 16.5 0.8 0 5.3-0.7 10-1.5 4.7-0.9 9.5-1.8 10.7-2 2.1-0.5 2.3-0.1 2.3 4 0 2.5-0.1 4.5-0.3 4.5-0.1 0-6.3 1.1-13.7 2.5-7.4 1.4-14.2 2.5-15 2.5-1.1 0-2.1-3.2-3.9-13.7-1.4-7.6-2.7-13.1-3-12.3-0.2 0.8-1.6 5.8-5.7 20.5l-28.9 0.8c-16 0.5-29.2 0.6-29.5 0.2-0.3-0.3 7.1-30.8 33.5-135.2l22.5-1.5c12.4-0.8 25.9-1.6 37.5-1.8zm2130 0.2c2.7-0.1 8.6 0.7 13 1.8 4.4 1.1 10.9 3.5 21 8.5l0.5 10.5-4.3-3c-2.3-1.6-7.2-4.1-11-5.5-4.4-1.7-9.8-2.7-16-3.1-5.3-0.4-14.3-0.1-21.2 0.6-8.7 0.9-13.4 1.9-22 6.1l3.9 61.7c2.2 33.9 4.1 61.9 4.3 62.2 0.2 0.3 8.7-0.4 18.9-1.5 17.1-1.9 18.4-2.1 18.4-4 0.1-1.7 0.3-1.6 1.5 0.7 1 1.9 2.3 2.8 4 2.8 1.4 0 6-0.5 10.2-1 4.3-0.6 9-1.2 10.5-1.5 2.4-0.4 2.8-0.2 2.8 4.5l25.5 0.2-25.5 3.4c-17.4 2.3-27.6 3.2-32 2.8-3.6-0.2-13 0.2-21 1.1-8 0.8-15.8 1.5-20.5 1.5l-10-137.9 8-3.7c4.4-2 9.3-4.1 11-4.7 1.7-0.5 7.9-1.3 14-1.7 6.1-0.4 13.2-0.8 16-0.8zm-1372.5 7c10.1-0.1 12.5 0.2 28.5 5.6l-7.3 0.1c-6.8 0.1-7.2 0.2-7.2 2.3 0 2.1-0.2 2.2-3.2 1.3-1.8-0.6-8.5-1-14.8-0.9-10.8 0.1-12 0.3-19.5 3.6-4.4 1.9-10.7 5.4-14.1 7.9-3.3 2.4-7.2 6.2-8.5 8.4-1.3 2.2-3.7 6.9-5.3 10.5-1.6 3.6-3.3 9.6-3.9 13.5-0.7 5-0.7 9.8 0.2 17 0.7 5.9 2.3 12.9 3.9 17 1.5 3.9 4.3 9.5 6.2 12.5 1.9 3 4.6 6.5 6 7.8 1.4 1.2 5.4 3.8 9 5.6 4.6 2.4 8.5 3.6 13.5 4.1 4.3 0.5 10.9 0.3 17-0.5 5.5-0.7 12.7-2.3 16-3.6 3.3-1.4 6.1-2.4 6.2-2.4 0.2 0 1 1.3 1.8 3 0.8 1.6 1.5 3.4 1.5 4 0 0.6-3.3 2.1-7.3 3.5-3.9 1.3-11 2.9-15.7 3.5-4.7 0.5-12.4 1-17.3 1-8.3 0-9.1-0.2-18-4.6-5-2.5-10.9-6.1-13-8-2-1.9-5.4-6-7.5-9.2-2.2-3.1-4.9-8.9-6.2-12.7-1.3-3.9-3.1-12.2-3.9-18.5-1.3-9.5-1.4-13-0.5-20 0.7-4.7 1.9-10.5 2.7-13 0.9-2.5 2.2-5.9 2.9-7.5 0.7-1.7 2.9-5.1 4.8-7.6 1.9-2.5 7.6-7.7 12.7-11.5 6-4.5 11.2-7.5 15-8.7 3.2-1 7.6-2.2 9.8-2.7 2.2-0.4 9.2-0.8 15.5-0.8zm1825.5 4.9c4.7-0.1 5.2 0.1 12.3 8.4l22.4-1.8c12.2-0.9 23.5-1.7 25-1.7 1.6 0 2.8 0.4 2.8 1 0 0.5-1.6 3-3.5 5.5-2.2 2.9-3.8 4.1-4.2 3.3-0.5-0.9-5.6-0.8-41.8 1.5l0.6 10.2-6-9.3c-3.9-5.8-6.7-9.2-7.9-9.2-0.9 0-10 1.9-38.7 8.5l2.4 52c1.3 28.6 2.6 52.2 2.8 52.5 0.2 0.3 9.6-0.4 41.3-3.5l0.5-27.8 7.1 9.4c3.8 5.2 8.3 10.6 10 12.2 1.6 1.5 3.8 2.7 4.9 2.7 1.1 0 9.1-1.9 17.8-4.3 15.5-4.1 15.7-4.2 15.7-7 0-1.5 0.3-2.7 0.8-2.7 0.4 0 2.4 1.7 4.5 3.8 2 2 3.7 4.6 3.7 5.7 0 1.8-2.6 2.7-21 7.7-11.5 3.2-21.8 5.8-22.8 5.8-0.9 0-3.7-1.4-6.2-3.2-2.5-1.8-4.8-3.7-5.2-4.3-0.4-0.5-0.8 1.5-0.8 10l-28.9 2.5c-15.9 1.4-29.1 2.3-29.4 2-0.2-0.3-1.5-27.5-5.2-120.5l21-4.6c11.6-2.6 23.3-4.7 26-4.8zm-459.3 5c4.9 0 12 0.6 15.8 1.4 3.8 0.8 8.9 2.4 11.3 3.6 2.3 1.2 5.7 3.5 7.5 5.3 1.9 1.7 4 4.3 4.8 5.8 1 2.1 1.4 6.9 1.4 33.8l-3.4 3.7c-1.8 2.1-5.3 4.9-12.1 8.6l7.8 20.3c4.2 11.2 7.7 21.9 7.7 23.6 0 3-0.3 3.4-3.7 4-2.1 0.4-6.7 1-16.8 2.1l-8.4-18.9c-4.6-10.4-8.8-19.6-9.3-20.4-0.5-0.9-0.5 6.8 0.7 39.8l-10.5 0.6c-5.8 0.4-10.5 0.6-10.6 0.4 0-0.2-1.8-24.2-3.8-53.3-2-29.2-3.8-53.9-3.9-54.9-0.2-1.5 0.7-2.2 3.3-2.8 1.9-0.5 5.8-1.2 8.5-1.7 2.8-0.5 8.9-0.9 13.8-1zm-2134.9 1.4l3.3 13.5c1.8 7.4 5.8 25.4 8.8 40 5.1 24.5 5.5 27.4 5 49.4l-6.5 1.2c-3.6 0.7-7.4 1.3-8.5 1.4-1.8 0-2.3-1.6-8-33.2l-12 0.7c-6.6 0.4-12 0.8-12 0.8-0.1 0.1-1.7 6.7-7.1 29.2l-12.2 0.2c-11.2 0.3-12.2 0.1-11.9-1.5 0.2-0.9 5.9-24.1 25.2-101.1l9-0.4c5-0.2 13-0.3 26.9-0.2zm770.6 4.7c1.9-0.1 5.3 0.3 11.5 2l-0.7 8.2c-0.5 4.4-0.8 10.5-0.8 13.3 0 3.9-0.3 5.1-1.2 4.6-0.7-0.3-4-1-7.3-1.4-3.5-0.4-7.2-0.3-9 0.3-1.6 0.5-4.3 1.6-6 2.5-1.7 0.8-3.9 3.3-5.2 5.6-1.1 2.3-2.4 7-2.7 10.4-0.4 3.8-0.1 8.1 0.7 10.9 0.8 3.1 2.1 5.3 4 6.5 1.9 1.3 4.5 1.9 8.7 1.9 3.6 0 8.1-0.8 11.3-2 2.8-1.1 5.5-2 6-2 0.4 0 1.2 3 1.8 6.7 0.7 3.8 1.9 8.8 2.9 11.3 1 2.5 2 5.3 2.4 6.2 0.5 1.5-0.6 2.1-6.1 3.8-3.8 1.1-10.8 2.6-15.8 3.2-7 0.9-10.4 0.8-15.5-0.2-3.7-0.7-8.2-2.5-10.5-4-2.2-1.5-5.3-4.1-6.8-5.6-1.5-1.6-3.7-4.9-4.9-7.4-1.1-2.5-3.2-9.5-4.5-15.5-1.9-8.7-2.3-12.6-1.8-18.5 0.4-4.1 1.3-9.8 2.1-12.5 0.8-2.8 2-6 2.7-7.1 0.7-1.2 3-4.1 5.2-6.5 2.2-2.4 6.3-5.8 9-7.5 2.8-1.6 7.9-3.8 11.5-4.7 3.6-0.9 8.5-1.8 11-2 2.5-0.2 6.1-0.4 8-0.5zm1818.8 6.9c1.8-0.1 4.8 3.7 16.5 20.5 7.8 11.3 14.3 19.9 14.5 19.2 0.1-0.7-0.8-8.6-4.3-33.6l12.5-0.6c6.9-0.4 12.6-0.6 12.7-0.4 0.1 0.2 0.2 2.8 0.2 5.8 0.1 3-0.2 9.3-0.5 14-0.4 5-0.1 12.6 0.6 18.5 0.7 5.6 2.3 12.2 3.5 15 1.5 3.2 2.5 8.2 3.7 23l-11.3 2.9c-6.3 1.5-11.9 2.6-12.5 2.5-0.6-0.2-3.3-3.1-6.1-6.4-2.7-3.3-8.8-11.4-13.5-18-4.7-6.6-9.8-13.1-14.1-17l0.6 10.5c0.4 5.8 1 16.1 2 35.5l-12.6 1.5c-6.9 0.8-12.8 1.3-13 1-0.2-0.3-1.3-20.3-4.2-88.5l11.5-2.7c6.3-1.4 12.5-2.7 13.8-2.7zm-1821.6 27.9c5 0 6.2 0.4 8.7 2.7 2.4 2.3 3 3.9 4.2 14.8l-7.6 2.2c-4.1 1.3-9.3 2.3-11.5 2.3-3.5 0-4.1-0.3-4.6-2.8-0.4-1.5-0.3-5.3 0.1-8.5 0.4-3.6 1.5-6.8 2.8-8.3 1.7-2 2.9-2.4 7.9-2.4zm-3.4 10.7c0.1 0.7 1.2 1.3 2.5 1.3 1.2 0 3.2-0.4 4.4-0.8 1.8-0.6 2-1 1-2-0.6-0.7-2.4-1.3-3.8-1.2-1.4 0-2.9 0.3-3.4 0.7-0.5 0.3-0.8 1.2-0.7 2zm1411 10.3c0.1 0 0.2 4.2 0.1 18.5l-5.4-14 2.5-2.2c1.4-1.2 2.6-2.3 2.8-2.3z"/><path fill-rule="evenodd" class="f" d="m2644.3 2.1c0.9 0 3.4 0.8 5.4 1.8 2.1 1 4.9 3.1 6.3 4.5 1.4 1.5 3.1 2.6 3.7 2.6 0.7 0 1.6-0.6 2-1.3 0.5-0.6 2.4-2.4 4.3-3.9 1.9-1.4 4.6-2.9 6-3.2 1.4-0.3 10.4 1 20 2.8 9.6 1.9 15.8 3.5 13.7 3.5-3.6 0.1-3.7 0.2-3.7 3.6 0 1.9-0.1 3.5-0.3 3.5-0.1 0-6.5-1.1-14.1-2.5-10.9-2-14.5-2.3-16.5-1.4-1.8 0.7-3.9 3.6-6.8 9.2-2.2 4.5-4.5 8.1-5 8-0.4 0-2-2.5-3.5-5.5-1.5-2.9-4.2-7-9.3-13l-38.5 6.7v4c0 2.7 1.3 6.6 4.1 12 2.3 4.4 8.5 15.6 23.4 41.7l-2.1 4.1c-1.2 2.3-7.3 13.6-25.1 46.2l1.6 4.7c0.9 2.7 2.3 5.1 3.1 5.5 0.8 0.4 9.6 0.9 37.5 1.6l4.2-7.7c2.4-4.2 4.5-7.6 4.8-7.6 0.3 0 2.3 3.4 8.5 15h30v8h-35l-1.5-3c-0.8-1.7-1.7-3-2-3-0.3 0-1.2 1.3-3.5 6h-21c-20.1 0-21.2-0.1-25.8-2.4-2.6-1.3-5.2-3-5.8-3.7-0.6-0.8-1.6-3.5-2.3-6.2-0.6-2.6-1.1-5.7-1.1-7 0-1.2 5.7-12.8 25.3-49.2l-4.4-8.9c-2.4-4.9-8.1-15.5-20.9-38.1v-19l21.3-4.1c11.6-2.3 22-4.2 22.9-4.3zm-1467.7 4c2.7 0 10.7 0.7 30.5 3.4v49.5l3.4 4.2c1.8 2.4 4.5 6.5 5.9 9.3 1.3 2.7 3.3 8.8 4.3 13.5 1.7 8.2 1.7 8.8 0 17-1 4.7-3.1 11.1-4.7 14.2-2.1 4.2-4.9 7.4-10.2 11.8-3.9 3.4-10.1 7.6-13.7 9.4-3.6 1.9-9.4 4.2-13 5.1-5.1 1.4-9.2 1.6-19 1.2-7.3-0.3-15.2-1.2-25.5-4l-1.8-25.1c-0.9-13.8-1.7-26.1-1.7-27.4 0-2.1 0.4-2.2 14.5-2.3l-3-2.1c-1.7-1.2-4.8-4-7-6.3-3.1-3.2-4.7-6.2-6.9-13.1-2.6-8.1-2.8-9.7-2.2-18.4 0.5-8.4 1-10.2 4-15.5 1.9-3.3 5.6-8.1 8.3-10.6 2.6-2.6 7.5-6 10.8-7.7 3.3-1.7 8.5-3.5 11.5-4.1 3-0.6 6.6-1.3 8-1.5 1.4-0.2 4.7-0.4 7.5-0.5zm363.5-0.1h4.2c2.4 0 22.6 0.7 45.1 1.7 34.7 1.5 40.7 2 40.7 3.3 0.1 0.8-1.4 13.8-6.5 56h-7.5l-0.5 22h15.5v54h-91zm-761.6 2h52.1l-6.2 3.3c-3.5 1.8-5.9 3.7-5.7 4.4 0.3 1-3.3 1.3-32.1 1.3l-2.5 58.9c-1.4 32.4-2.3 59.2-2 59.6 0.3 0.3 9.7 0.3 41.5-1l1-20 0.8 8c0.4 4.4 1 10.7 1.8 20l-11.3 0.7c-6.2 0.4-18.2 1.1-41.8 2.3v-4.5c-0.1-2.5 0.9-33.4 2.2-68.8zm-384.4 7.2c4.1-0.2 4.8 0.2 11.8 8.3l24.3-1.8c13.4-1.1 24.9-1.8 25.6-1.5 0.9 0.2 0.1 2.1-2.6 5.8-2.3 3.2-4.1 5-4.3 4.1-0.3-1.2-3.3-1.2-42.5 1.4l0.8 4c0.5 2.2 0.8 4.5 0.6 4.9-0.1 0.5-2.7-2.8-5.7-7.3-3.1-4.6-6.2-8.8-6.9-9.4-1-0.9-6.1-0.1-40.6 7.7l2.4 52.1c1.3 28.6 2.5 52.3 2.8 52.5 0.2 0.3 9.9-0.4 42.5-3.5l-1.3-28 3.6 4c1.9 2.2 5.5 6.7 8 10 2.4 3.3 5.5 7.1 6.7 8.3 1.2 1.2 3.2 2.3 4.3 2.2 1.1 0 9-1.9 17.7-4.2 15.6-4.2 15.8-4.3 15.8-7 0-1.5 0.3-2.7 0.7-2.7 0.4 0 2.4 1.7 4.5 3.7 2.1 2.1 3.8 4.6 3.8 5.7 0 1.8-2.6 2.8-20.3 7.8-11.1 3.1-20.9 5.7-21.7 5.8-0.9 0-4.2-1.8-13.5-8.1l-0.6 9.5-28.9 3c-15.9 1.7-29.1 2.8-29.3 2.5-0.2-0.2-1.5-27.5-5.2-120.5l21.5-4.6c11.8-2.5 23.5-4.7 26-4.7zm2250.5 5.8c0.7 0.9 1.4 1.8 1.4 2 0 0.3 3 5.6 6.5 11.8 3.6 6.2 6.9 11.3 7.3 11.3 0.4 0.1 2.7-3.6 5.1-8.2 2.5-4.6 5.6-10.6 9.7-18.5l13.5 2.5c7.4 1.3 13.6 2.6 13.7 2.8 0.1 0.2-1.3 3.2-3.1 6.6-1.9 3.4-6.7 12.3-10.7 19.7-4 7.5-8.7 16-13.6 24.5l6.7 13c3.7 7.2 9 16.9 11.8 21.5 4.5 7.4 5.1 9.3 5.2 19h-25l-6.5-12.5c-3.6-6.8-6.8-12.5-7-12.5-0.3 0-3.5 5.7-13.5 25l-11.8 0.1c-6.5 0-13.1-0.3-17.7-1.3l27.8-52.3-2.8-5c-1.6-2.7-6.2-11.3-10.2-19-4.1-7.7-7.9-14.4-8.3-15-0.5-0.5-2.3-3.4-7-12l13.5-2.5c12-2.2 13.7-2.3 15-1zm-1850.2 4h24.7l0.5 5.3c0.3 2.9-0.5 25.7-4 96.2l-12 0.9c-6.6 0.4-12.3 0.5-12.5 0.1-0.3-0.3 0.3-23.5 1.4-51.5zm-403.6 6.1c0.1-0.1 6.7 9.7 14.7 21.6 10.1 15.1 14.5 21 14.5 19.3-0.1-1.4-0.8-9.4-3.5-33h3c1.7 0 7.5-0.4 22.8-1.5l-0.6 8.5c-0.3 4.6-0.9 11.8-1.3 16-0.5 5.7-0.1 9.7 1.5 17.2 1.2 5.4 2.8 11.7 3.6 14 0.8 2.4 1.8 8.1 2.8 21.3l-24.1 6-2.1-2.5c-1.2-1.4-3.9-5.1-6.1-8.3-2.2-3.1-4.3-5.9-4.7-6.1-0.4-0.2-4.6-5.6-9.3-12.1-4.7-6.5-8.9-12.1-9.4-12.4-0.5-0.4-0.6 8.7 0.7 45.4l-12.6 1.5c-6.9 0.8-12.7 1.2-13 1-0.2-0.3-1.2-20.6-4.2-89.5l13.5-3.2c7.4-1.7 13.6-3.2 13.8-3.2zm2309.7 14.3l0.3 8.3c0.2 7.8 0 8.7-7.3 22.8l3.1 6c2.9 5.5 3.1 6.6 2.3 21l-15.4-28z"/><path fill-rule="evenodd" class="g" d="m1507.5 3.5c3.8 0.2 9.7 1.1 13 2 3.3 0.8 8.9 3 19 8l0.5 10.5-4.3-3c-2.3-1.6-7.4-4.1-11.2-5.6-6.1-2.3-8.9-2.7-23-3.1-14.3-0.5-16.8-0.3-23.8 1.6-4.2 1.1-8.7 2.8-12.2 5.4l3.9 61.6c2.2 33.9 4.1 61.8 4.3 62.1 0.2 0.3 8.5-0.4 36.3-3.5l0.2-6 1.6 3.8c1.3 2.8 2.3 3.8 4 3.7 1.2 0 5.7-0.5 10-1 4.2-0.6 9.2-1.2 11-1.5 2.9-0.5 3.2-0.3 3.2 2 0 2.5 0.1 2.5 18.5 2.7l-22.5 3.4c-15.3 2.3-24.3 3.2-28 2.8-3-0.3-12.2 0.2-20.5 1-8.2 0.9-16.3 1.6-21 1.6l-10-137.9 8-3.7c4.4-2 9.3-4.1 11-4.7 1.7-0.5 8-1.3 14-1.7 6-0.4 14.2-0.6 18-0.5zm-739 0.4l2.7 7.3c1.5 4 3.4 10.6 4.3 14.6 1 4.7 1.5 12.4 1.5 22 0 8.1-0.4 15.4-0.9 16.2-0.7 1.1-1 0.6-1.4-2-0.3-1.9-2.4-12-4.6-22.5-2.2-10.4-4.7-20.3-5.5-22-0.9-1.6-1.6-3.6-1.6-4.2 0-0.8-1.4-1.3-3.7-1.3-2.1 0-13.2 0.5-45.7 2.4l-14.5 59.3c-8 32.6-14.4 59.5-14.1 59.8 0.3 0.4 9.7 0.3 41.5-1l7-29.5h11l3 16.5c2.7 14.9 3.2 16.5 5 16.5 1.1-0.1 6.4-0.9 21.5-3.5v4.3c0 3.6-0.3 4.3-2.2 4.7-1.3 0.2-7.3 1.4-13.3 2.5-6 1.1-11.7 2-12.5 2-1.1 0-2.3-3.4-7.4-27.5l-5.1 22-29 0.8c-16 0.5-29.1 0.7-29.3 0.5-0.2-0.2 7-30.7 32.3-135.5l20.5-1c11.3-0.5 25-1 40.5-1.4zm1827 0.1l2.3 4.5c1.7 3.6 2.2 6.2 2.2 12.8 0 7.4 0.4 8.8 3.3 14.2 2.6 4.7 4.5 11.1 8.6 30 3.2 14.3 5.1 25 4.8 26.5-0.4 1.4-1.7 4.2-5.2 9.9l-5.4-25.2c-3-13.9-7.6-34-10.3-44.7-2.6-10.7-5.1-19.7-5.4-20-0.3-0.3-11.2 0.1-47.9 2.3l-15 59.3c-8.2 32.7-14.8 59.6-14.5 59.9 0.3 0.4 9.7 0.3 41.5-1l7-29.5h11l3 16.5c2.3 12.7 3.3 16.5 4.5 16.5 0.8 0 5.6-0.7 10.5-1.6 4.9-0.9 9.6-1.3 10.3-1 0.6 0.3 1.2 1.4 1.2 2.4-0.1 0.9 0.7 2.4 1.6 3.2 1.5 1.4 0.2 1.8-13.2 4.2-8.2 1.5-15.8 2.7-16.9 2.8-1.8 0-2.3-1.4-4.5-13.7-1.3-7.6-2.6-13.1-2.8-12.3-0.1 0.8-1.3 6-4.7 21.5l-29.8 0.3c-16.3 0.1-29.7-0.1-29.7-0.5 0-0.5 7.5-31 33.5-135.1l20-0.9c11-0.5 24.5-1 40-1.3zm-1537.8 7.1c0.2 0 0.3 1.8 0.3 8.4l-32.7 4 0.9 3c0.5 1.7 1.8 11.1 2.8 21 1.1 9.9 2.2 24.8 2.6 33 0.6 11.5 0.5 14.8-0.4 14.3-0.7-0.5-1.2-1.5-1.2-2.3 0-0.8-0.4-2.3-0.9-3.2-0.5-1-1.7-8.1-2.5-15.8-0.9-7.7-1.6-21.8-1.6-48.5h-40.5l-1 19.2c-0.5 10.6-0.9 24.7-0.7 31.3 0.1 6.6 0.7 14.3 1.3 17 0.6 2.8 2.5 8.6 4.2 13 1.7 4.4 4.2 9.8 5.6 12 1.4 2.2 3.4 5.1 4.5 6.4 1.2 1.3 4.3 3.8 7.1 5.5 2.7 1.8 6.8 3.9 9 4.7 2.7 0.9 8.4 1.4 31.1 1.4l6.8-4.5c3.8-2.5 8.5-6.3 10.6-8.5 2-2.2 4.6-6.5 5.7-9.5 1.2-3 2.6-8.2 3.3-11.5 0.7-3.6 1-12.6 0.8-22.3-0.2-10.5 0.1-16.1 0.7-15.9 0.6 0.2 1.1 10.8 1.5 56.2l-3.3 4.9c-1.7 2.7-4.6 6.1-6.2 7.5-1.7 1.4-7 4.6-20.8 11.6h-14.1c-11.9 0-14.9-0.3-18.6-2-2.5-1.1-6.8-3.3-9.6-5-2.8-1.6-7-4.7-9.2-6.7-2.8-2.5-5.9-7.2-9.2-13.8-2.8-5.5-5.7-12.6-6.6-15.7-0.8-3.2-1.9-11.4-2.4-18.3-0.5-6.9-0.7-16.8-0.4-22 0.2-5.2 1-17.3 2.9-44l22.5-0.1c17.8 0 26.2-0.5 40-2.3 9.6-1.3 17.6-2.4 17.7-2.5zm-1053.3 0.9h6c3.4 0 13.9 0.3 40.7 1.5l5.6 11c3 6.1 5.7 11.1 5.9 11.3 0.2 0.1 3.4-3.8 13.9-17.7l46-0.1 7.9 48.5-4.9 19.8-10-60.3-35 0.1-9 12c-5 6.6-9.5 12.4-10 12.9-0.7 0.7-3.4-4.1-7.8-13.8-3.8-8.1-7.2-15-7.5-15.4-0.4-0.3-8.1-0.9-33.7-2l-3 114.2h40.5v-16h23l9.4-17.5 3.6 17.8c2.7 13.6 3.9 17.7 5 17.7 0.8 0 6.3-1.1 12.2-2.3 5.9-1.2 10.8-2.1 10.8-1.9 0 0.1-0.5 2.1-2.1 8.7l-13.2 2.8c-7.3 1.5-13.7 2.7-14.2 2.7-0.6 0-2.1-5-3.4-11.2-1.9-9.1-2.6-11-3.5-9.6-0.9 1.4-2.7 1.7-19.6 1.8v16h-7.3c-3.9 0-16.9-0.3-50.2-1.3zm1494.4 8.1c4.5-0.1 11.3 0.5 15 1.3 3.7 0.8 9 2.4 11.7 3.6 2.8 1.2 6.5 3.6 8.4 5.3 1.8 1.8 3.9 4.4 4.7 5.9 1.1 2.1 1.4 6.8 1.4 32.8l-4.3 4.7c-2.4 2.7-6.2 5.6-12.2 8.4l8.3 20.7c4.5 11.4 8.3 22 8.3 26.7l-8.8 1.2c-4.8 0.7-9.7 1.3-10.8 1.3-1.6 0.1-3.3-3.1-9.9-18.7-4.3-10.3-8.3-19.5-8.7-20.3-0.6-0.9-0.6 7.2 0.6 39.8l-10.5 0.6c-5.7 0.4-10.5 0.6-10.6 0.4 0-0.2-1.8-25-4-55.1-2.5-35.9-3.5-55.1-2.9-55.5 0.6-0.4 4.4-1.2 8.5-1.8 4.2-0.7 11.2-1.2 15.8-1.3zm-741.3 1.4l3.3 13.5c1.8 7.4 5.7 25.4 8.7 40 3.4 16.4 5.5 29 5.5 33 0 3.6-0.2 8.7-1.2 16.5l-6.9 1.2c-3.8 0.7-7.4 1.3-8.1 1.3-0.8 0-2.3-5.5-7.3-33.2l-12 0.7c-6.6 0.4-12 0.8-12 0.8 0 0.1-1.6 6.7-7 29.2l-12.3 0.2c-11.5 0.3-12.2 0.2-11.9-1.6 0.1-1.1 5.6-24.2 24.2-101l9.5-0.4c5.3-0.2 13.6-0.3 27.5-0.2zm1827.8 0l1.8 7c1 3.8 2.1 9.2 2.5 12 0.3 2.7 3.2 16.5 6.4 30.5 3.2 14 6.6 29.3 9.3 42.5l-2.9 5.7c-2.8 5.5-3 5.7-8.4 6.7-3 0.6-6.1 1.1-7 1.1-1.1 0-2.3-4-8.5-33.3l-12 0.8c-6.6 0.4-12 0.8-12.1 0.8 0 0.1-1.4 6.7-5.9 29.2l-12.2 0.2c-11.6 0.3-12.3 0.2-12-1.6 0.1-1.1 5.6-24.2 24.2-101l9-0.4c5-0.2 13.3-0.3 27.8-0.2zm-1527.3 6.5v35h3c1.8 0 3.2 0.6 3.5 1.5 0.3 0.8 0.5 8.4 0.5 16.7 0 14-0.2 16-2.7 23.3-1.4 4.4-4 10-5.7 12.5-2.1 3-4.8 5.4-8.6 7.3-5.3 2.8-5.8 2.9-18 2.4-7.4-0.2-13.7-1-15.5-1.8-1.6-0.7-4.7-2.7-6.8-4.4-2.2-1.6-5.6-5.5-7.6-8.5-2.2-3.3-4.4-8.2-5.3-12-0.9-3.6-2.1-10.3-2.8-15-0.8-5.9-1-15.2 0-52h24.5l0.7 19.7c0.4 14 1.3 23.3 2.9 31.8 1.4 7.2 3.1 13.3 4.3 15.2 1.2 1.8 3 3.4 4.1 3.7 1.1 0.3 3.3 0.6 4.8 0.6 1.5 0 3.6-0.9 4.7-2 1.8-1.8 2-3.3 2-15.3 0-7.2-0.4-18.2-1-24.2-0.6-6.1-1.6-15.8-3.5-32.3l8-0.9c4.4-0.6 9.5-1.1 14.5-1.3zm-1037.6 1h9.6c6.4 0 10 0.4 10.8 1.2 0.7 0.7 1.2 2 1.2 2.8 0 0.8 0.6 2.2 1.5 3 0.9 0.8 1.8 2.5 2 3.7 0.3 1.3 3.3 7.9 6.8 14.8 3.4 6.9 6.6 12.6 7 12.5 0.4 0 6.2-7.4 25.2-33l24 0.5 11.7 72-3.7 16-7.5 1.7c-4.1 0.9-8.6 1.7-10 1.7-2.4 0.1-2.5-0.1-7.3-23.6-2.7-13.1-5-23.9-5.3-24.1-0.2-0.1-4.4 7-18.4 31.8h-14l-11.5-22.5-0.5 38.5h-24.5zm1519.4 53c0.2 0 0.3 4.2 0.2 18.5l-5.5-14 2.6-2.2c1.4-1.2 2.6-2.2 2.7-2.3z"/><path fill-rule="evenodd" class="b" d="m1696.5 10.4l-39 7.1c0.3 7 2.6 35.4 5.2 67.8l4.8 58.7c4.7 0 8.7-0.5 12-1 3.3-0.5 13.6-2.4 23-4.2l16.9-3.3c3.4-9 3.7-12.2 3.4-21.8l-0.3-11.7h10.5c0-34.3 0.4-42 1-42 0.5 0 1-1.8 1-4 0-3.2-0.4-4-1.7-4-1 0.1-7 0.9-13.3 1.9l-11.5 1.9 16.5 0.2v38h-10.5c0.5 20.5 0.2 28.1-0.2 30l-0.9 3.5c-23.2 5.2-31.9 6.9-34.4 7.2l-4.5 0.5c-6.8-85-9-109.9-9.2-110.2-0.2-0.3 16.1-3.5 36.4-7.2 20.2-3.7 38.1-6.7 39.8-6.5 2.3 0.1 3.1 0.7 3.3 2.5 0.2 1.9 0.8 2.2 4.2 2.2h4c-1-8.9-1.4-11.8-1.6-12.2-0.2-0.5-3.9-0.7-8.1-0.7-4.9 0.1-22.6 2.9-46.8 7.3zm8.9 15c-17 3.3-30.9 6-31 6-0.1 0.1 0.5 6.6 1.2 14.6 0.6 8 1.9 24.2 2.8 36 0.9 11.8 2.1 26.5 2.8 32.5l1.1 11c5.6-1.1 11.2-2.2 16-3.2l8.9-1.8c-1-14.7-1.5-22.3-1.7-26.2l-0.5-7.3h12v-23h-17v-15.5c26-3.7 33.8-5.1 34.3-5.4 0.4-0.3 1.2-5.3 1.8-11.1 0.6-5.8 0.8-11 0.6-11.5-0.3-0.7-11.8 1.1-31.3 4.9z"/><path fill-rule="evenodd" class="c" d="m1869.5 15.1c4.7-0.1 5.2 0.1 12 8.2l24.7-1.9c13.6-1 24.8-1.7 25.1-1.4 0.2 0.3 2.7 23.5 5.6 51.5 2.8 28 5.1 51.9 5.1 53 0 1.8-2.6 2.7-21.7 7.9-21 5.7-21.9 5.8-24.8 4.3-1.7-0.9-4.5-2.5-9.5-5.7v8.5l-28.9 3c-15.9 1.7-29.1 2.8-29.4 2.5-0.2-0.3-1.7-27.5-6.2-120.5l21.5-4.6c11.8-2.6 23.7-4.7 26.5-4.8zm239 0c4.7-0.1 5.2 0.1 12.3 8.4l15.6-1.3c8.6-0.6 16-1 16.6-0.7 0.6 0.3 1 2.1 1 4 0 3.4-0.1 3.5-4.3 4-2.3 0.2-9.6 0.7-28.2 1.8l0.6 10.2-6-9.3c-3.9-5.8-6.7-9.2-7.9-9.2-0.9 0-10 1.9-38.7 8.5l2.4 52c1.3 28.6 2.6 52.2 2.8 52.5 0.2 0.3 9.9-0.4 42.5-3.5l-0.6-13.8c-0.3-7.5-0.5-13.7-0.4-13.7 0.2-0.1 3.5 4.1 7.4 9.2 3.8 5.1 8.3 10.5 10 12.1 1.6 1.5 3.8 2.7 4.9 2.7 1.1 0 6.3-1.1 11.5-2.5 5.2-1.4 10.3-2.8 11.2-3 1.5-0.4 1.8 0.2 1.8 8l-12 3.3c-6.6 1.7-12.4 3.2-13 3.2-0.6 0-3.4-1.5-6.3-3.2-2.8-1.8-5.5-3.7-5.9-4.3-0.4-0.5-0.8 1.3-0.8 9l-28.9 3c-15.9 1.7-29.1 2.8-29.4 2.5-0.2-0.3-1.5-27.5-5.2-120.5l21-4.6c11.6-2.6 23.2-4.7 26-4.8zm-2.8 16c0.2 0 6.8 9.7 14.8 21.7 8 11.9 14.5 20.8 14.5 19.7 0-1.1-1.1-9-4.5-33.3l12-0.6c6.6-0.4 12.1-0.6 12.2-0.4 0.1 0.2 1.6 15.6 3.2 34.3 1.7 18.7 3.3 35.9 4.1 42.5l-11.4 2.8c-6.3 1.5-11.6 2.5-11.8 2.2-0.2-0.3-2.6-3.2-5.4-6.5-2.8-3.3-8.6-11-12.9-17-4.3-6-9.1-12.6-13.8-18l1.6 46-12.6 1.5c-6.9 0.8-12.8 1.3-13 1-0.2-0.3-1.3-20.3-4.2-88.5l13.5-3.6c7.4-2 13.6-3.7 13.7-3.8z"/><path fill-rule="evenodd" class="d" d="m503.5 11.1c2.8 0 8.6 0.5 13 1.3 4.4 0.8 11.4 2.9 15.5 4.6 4.1 1.7 9.4 4.2 11.8 5.5 2.3 1.4 4.2 3 4.2 3.5 0 0.6-2.8 7.7-12.5 30.8l9 0.7 1.2 7c0.6 3.8 1.2 12.6 1.2 19.5 0 6.9-0.5 16.8-1.3 22-0.7 5.2-2.1 11.2-3.2 13.3-1.6 3.3-3.1 4.4-9.4 7.3-7.3 3.3-7.9 3.4-20.5 3.4-9.7 0-14.6-0.5-19.5-1.9-3.6-1-8.6-2.9-11.2-4.2-2.5-1.3-7.9-5.6-11.9-9.4-3.9-3.8-8.4-8.8-9.8-11-1.5-2.2-3.7-6.3-4.9-9-1.2-2.8-3.3-9.3-4.7-14.5-1.4-5.2-2.5-11.5-2.5-14 0-2.5 0.5-7.4 1.1-11 0.6-3.6 2-9 3.1-12 1.2-3 4-7.8 6.2-10.5 2.3-2.8 5.2-5.9 6.5-7 1.3-1.1 4.9-3.9 8-6.2 3.4-2.5 7.6-4.6 10.6-5.3 2.8-0.6 7.3-1.5 10-2 2.8-0.4 7.3-0.8 10-0.9zm1237 0.3c3.4 0.1 4 0.5 4.3 2.4 0.2 2-0.2 2.2-3.8 2.2-3 0-4.1 0.4-4.3 1.8-0.3 1.4-5.5 2.7-31.5 7.7-29.1 5.6-31.1 6.1-30.7 8 0.2 1.1 0.9 8.3 1.5 16 0.5 7.7 1.7 22.8 2.5 33.5 0.8 10.7 2 24.7 3.8 42.5l3.6-0.7c2-0.4 7.6-1.5 21.3-4.3l-0.6-9.5c-0.4-5.2-0.9-12.8-1.6-24h12v-23h-17v-15.5l35-5v8l-26.5 4.3 16.5 0.2v38h-10.5l0.3 13.2c0.2 7.3-0.1 14.9-1.4 20.3l-15 3.4c-8.2 1.8-16.9 3.5-23.9 4.3l-4.4-54.9c-2.4-30.1-4.6-55-4.8-55.3-0.2-0.3 15.7-3.5 35.4-7.1 19.7-3.7 37.6-6.6 39.8-6.5zm1158-0.3c2.8 0 8.6 0.5 13 1.3 4.4 0.8 11.4 2.9 15.5 4.6 4.1 1.7 9.4 4.2 11.8 5.5 2.3 1.4 4.2 2.8 4.2 3.2 0 0.5-2.7 7.5-6 15.8-3.3 8.2-6 15.1-6 15.2 0 0.2 1.7 0.4 3.7 0.5 3.2 0.3 3.8 0.7 4.9 3.8 0.8 2.4 1.3 10.3 1.3 24.2 0.1 19.7 0 21.2-2.5 29-1.4 4.6-3.1 8.9-3.7 9.6-0.7 0.7-4.4 2.4-8.2 3.8-5.3 2-9.6 2.7-17.5 3.1-9.2 0.5-11.6 0.2-19-1.9-4.7-1.4-10.6-3.6-13.2-4.9-2.5-1.3-7.9-5.6-11.9-9.4-3.9-3.8-8.4-8.8-9.9-11-1.5-2.2-4.1-6.7-5.9-10-2.3-4.4-3.6-8.8-4.8-17-1.4-9.5-1.5-12.2-0.4-19.5 0.7-4.7 2.2-11 3.4-14 1.1-3 3.7-7.8 5.6-10.5 1.9-2.8 6.2-7 9.5-9.4 3.4-2.4 8.6-5.6 11.6-6.9 3-1.4 8.7-3.1 12.5-3.8 3.8-0.6 9.3-1.2 12-1.3zm-847.5 0.9l1.6 4.2c0.9 2.4 3.4 11.5 5.5 20.3 3 12 4.2 19.4 4.9 29.5 0.4 7.4 1.1 19.8 1.4 27.5 0.4 13.5 0.4 13.8-0.9 8.5-0.8-3-3.5-15.4-6-27.5-2.5-12.1-6.2-28.8-8.2-37-2-8.3-3.9-15.4-4.2-15.8-0.3-0.5-8.5-0.5-35.6 0.5l-12.4 49.7c-6.9 27.3-12.6 50.4-12.8 51.3-0.3 1.6 0.7 1.8 24.1 1.3l3.5-14.5c1.9-8 3.5-14.6 3.6-14.7 0 0 5.4-0.4 24-1.5l3 16.6c2.3 12.8 3.3 16.6 4.5 16.6 0.8 0 5.3-0.7 10-1.5 4.7-0.8 8.6-1.5 8.8-1.5 0.1 0 0.2 1.7 0.2 7.5l-12 2.2c-6.6 1.3-12.6 2.3-13.3 2.3-0.8 0-2.4-5.7-8.2-33h-10l-7 29.5-20.5 0.8c-11.3 0.5-20.6 0.7-20.8 0.5-0.2-0.2 6.1-27.1 28.3-119.5l16-1c8.8-0.5 19.7-1 32.5-1.3zm-874.8 2.1c2.1 0 8.1 0.5 22.8 2.4v38l-12.5-1.3 3 2.1c1.7 1.2 6.2 5.1 10 8.8 3.8 3.7 8.3 9.1 10 12 2.9 5.2 3 5.8 3 31.4l-3.5 5.4c-1.9 3-6.2 7.8-9.5 10.6-3.3 2.9-8.3 6.4-11 7.8-2.8 1.4-7.7 3.2-11 4.1-3.3 0.9-9.5 1.6-13.8 1.6-4.2 0-10.7-0.5-21.2-2.2l-1.3-17.2c-0.6-9.4-1.2-18.3-1.2-22.6l15.2 0.6c8.4 0.3 15.9 0.2 16.6-0.3q1.4-0.8 0.8-4.1c-0.5-2.4-1.4-3.5-3.9-4.6-1.7-0.7-6.6-2.6-10.7-4.1-4.1-1.6-9.1-3.9-11-5.3-1.9-1.4-5-4.3-6.8-6.6-1.8-2.3-3.9-5.9-4.5-8.1-0.7-2.2-1.2-8.1-1.1-13 0.1-5.9 0.6-10.2 1.7-12.5 0.9-1.9 3.7-6 6.4-9.1 3.2-3.8 6.6-6.5 10.3-8.3 3-1.4 7.3-3 9.5-3.6 2.2-0.5 5.3-1.1 7-1.3 1.7-0.2 4.7-0.5 6.7-0.6zm372.8-0.1h3.2c1.8 0 18.1 0.7 36.3 1.7 32.1 1.7 33 1.8 32.8 3.8-0.2 1.1-1.3 10.2-4.8 38.5h-8.5v34h-9.5c-9.5 0-9.5 0-9.5 5h34v38h-74zm273.7 5.1c3.9-0.1 4.3 0.1 4 2.1-0.1 1.6-1 2.4-2.7 2.6-2.4 0.3-2.5 0.5-2.2 14.7l-1.1-5.3c-1-4.2-1.6-5.2-3.2-5.2-1.1 0-6.5 0.5-22 2.3l1.2 10.6c0.6 5.8 1.7 15.5 2.2 21.6 0.6 6 1.1 17 1.1 24.2 0 12-0.2 13.5-2 15.3-1.1 1.1-3.2 2-4.8 2-1.5 0-3.6-0.3-4.7-0.6-1.1-0.3-2.9-1.9-4.1-3.7-1.3-1.9-3-8-4.3-15.2-1.6-8.5-2.5-17.8-3.6-51.5h-24.5l-0.6 21.7c-0.5 15.1-0.3 24.4 0.6 30.3 0.6 4.7 1.9 11.4 2.8 15 0.9 3.8 3 8.7 5.2 12 2.1 3 5.5 6.9 7.6 8.5 2.2 1.7 5.2 3.7 6.9 4.4 1.7 0.8 8.1 1.6 15 1.9 11.1 0.4 12.4 0.3 17.4-1.9 3.7-1.6 6.7-4 9.5-7.4 2.9-3.6 4.7-7.2 8.3-20l0.6 5.5c0.4 3 0.7 8 0.7 11 0.1 5.3-0.1 5.7-4.7 10-2.6 2.5-7.3 6.1-15.8 11.5h-13.5c-9.1 0-14.8-0.5-17.5-1.4-2.2-0.8-6.3-2.9-9-4.7-2.8-1.7-5.9-4.2-7.1-5.5-1.1-1.3-3.1-4.2-4.5-6.4-1.4-2.2-3.9-7.6-5.6-12-2.3-6-3.5-11.5-4.7-22-1.3-11.4-1.4-16.3-0.6-26.5 0.6-6.9 1.4-16.9 2.5-32h39.5v18.5c0 10.2 0.5 21.8 1 25.7 0.6 4 1.8 11.1 2.7 15.8 0.9 4.7 2 8.9 2.6 9.5 0.6 0.6 0.7-4.3 0.3-14-0.4-8.3-1.6-23.1-2.6-33-1.1-9.9-2.3-19.4-3.6-24l16.5-2.1c9.1-1.2 18.5-2.2 20.8-2.3zm284.5 4c2.5-0.1 3.5 1 14.9 18.4l-0.6-10.2 16-1c8.8-0.6 16.1-1 16.2-1 0.1 0.1 0.5 2.1 1.8 8.5l-25 1.4 2.2 15.7c1.2 8.6 2.3 16.5 2.3 17.6 0 1.1-6.5-7.7-28.7-41l-27.8 6.9 1.9 44c1.1 24.3 2.1 44.3 2.3 44.6 0.2 0.3 6.1-0.2 25.6-2.5l-1.6-46 3 3.5c1.7 1.9 6.6 8.5 10.9 14.5 4.3 6.1 10.1 13.9 12.9 17.2 2.7 3.4 5.7 6.2 6.5 6.2 0.8 0 5.8-1 11-2.4 5.2-1.4 9.8-2.5 10.2-2.5 0.5 0 0.7 1.9 0.3 8.4l-10 2.7c-5.5 1.5-11.1 2.8-12.5 2.8-1.4 0.1-3.8-1.1-5.4-2.6-1.7-1.6-6.2-7-10-12.1-3.9-5.1-7.2-9.3-7.4-9.2-0.1 0 0.1 6.2 1 27.5l-21 2c-11.6 1.1-21.3 1.8-21.5 1.5-0.2-0.3-1.5-23.9-5.2-104.5l17.5-4.1c9.6-2.3 18.7-4.2 20.2-4.3zm-1934.7 14.8l7 0.6 2.2 15c1.2 8.2 2.2 16.2 2.3 20.5h-8c-5.7 0-8-0.4-8-1.3 0-0.6 1-8.8 2.2-18zm563 0l6 0.6 2.2 15c1.2 8.2 2.2 16.2 2.3 20.5h-7.5c-5.3 0-7.5-0.4-7.5-1.3 0-0.6 1-8.8 2.3-18zm1828 0l5.9 0.6 2.2 15c1.2 8.2 2.2 16.2 2.4 20.5h-7.5c-5.4 0-7.5-0.4-7.6-1.3 0-0.6 1-8.8 2.3-18zm-1698 1.2c1.1-0.1 4.7 0.8 8 1.9 3.3 1.1 7.2 3.3 8.8 4.8 1.5 1.5 3 4.2 3.3 6.2 0.4 2.3 0 4.2-1 5.7-0.9 1.3-3.5 3.2-5.9 4.3-2.9 1.3-6.4 1.9-18.2 2l-2.9-23.9 2.9-0.4c1.7-0.2 3.9-0.5 5-0.6zm639.5 0.4c1.9 0.1 6.1 1.2 9.2 2.4 3.2 1.1 6.5 3.1 7.3 4.3 0.8 1.3 1.7 3.9 2.1 5.8 0.4 2.7 0.1 4.1-1.8 6.4-1.3 1.6-3.8 3.5-5.6 4.3-1.7 0.7-6.5 1.3-17.7 1.3l-2.9-23.9 2.9-0.5c1.7-0.2 4.6-0.3 6.5-0.1zm830.5 0c1.6 0.2 5.6 1.2 8.7 2.4 3.2 1.1 6.5 3.1 7.3 4.3 0.8 1.3 1.7 3.9 2.1 5.8 0.4 2.7 0.1 4.1-1.8 6.4-1.3 1.6-3.8 3.5-5.6 4.3-1.7 0.7-6.2 1.3-16.7 1.3l-2.9-23.9 2.9-0.5c1.7-0.2 4.3-0.3 6-0.1zm-917.5 5.5c0.3 0 2.2 0.4 4.2 1 2.1 0.5 5.2 2.2 6.9 3.7 1.8 1.5 4.4 5.3 6 8.3 2.1 4.2 2.9 7.6 3.4 14.5 0.6 7.1 0.4 10.2-1 15-1.3 4.7-2.7 6.9-11 14.8l-6-0.6c-4.3-0.5-6.7-1.3-8.4-2.9-1.2-1.3-3.2-4.1-4.4-6.3-1.1-2.2-2.6-6.5-3.3-9.5-0.7-3-1.3-7.3-1.3-9.5 0-2.2 0.6-6.5 1.3-9.5 0.7-3 2.1-7.1 3.1-9 0.9-1.9 3.5-5 5.8-6.8 2.3-1.7 4.4-3.2 4.7-3.2zm3 36.5c0.6 1.4 0.9-0.2 0.9-5 0-3.9-0.4-7.9-0.9-9-0.6-1.4-0.9 0.2-0.9 5 0 3.8 0.4 7.9 0.9 9z"/><path fill-rule="evenodd" class="e" d="m1804 13.1c-18 2.3-25.2 2.8-44 2.8l-22.5 0.1c-2.1 26-2.7 42.3-2.7 53 0 14.1 0.5 21.6 1.7 27 0.8 4.1 3 10.7 4.7 14.5 1.8 3.8 4.9 9.5 6.9 12.5 2 3 5 6.7 6.5 8.1 1.6 1.4 5.1 3.9 7.9 5.5 2.7 1.6 7 3.9 9.5 4.9 3.8 1.7 6.7 2 20.5 2h16c12.4-7.2 16.6-9.9 17.3-10.7 0.9-0.9 1.2-3 0.8-7.1l-0.6-5.7c-7.4 6.6-12 10.1-15 12l-5.5 3.5c-22.6 0-28.3-0.5-31-1.4-2.2-0.8-6.3-2.9-9-4.7-2.8-1.7-5.9-4.2-7.1-5.5-1.1-1.3-3.1-4.2-4.5-6.4-1.4-2.2-3.9-7.6-5.6-12-2.3-6-3.5-11.5-4.7-22-1.3-11.4-1.4-16.3-0.6-26.5 0.6-6.9 1.4-16.9 1.8-22.3l0.7-9.7h39.5c0 28.7 0.5 40.3 1 44.3 0.6 3.9 1.8 11 2.7 15.7 0.9 4.7 2 9 2.6 9.5 0.6 0.6 0.7-4.3 0.3-14-0.4-8.3-1.6-23.1-2.6-33-1.1-9.9-2.3-19.4-2.8-21l-0.8-3c27.2-3.4 36.6-4.4 38.3-4.4 2.7-0.1 3.3 0.3 3.3 1.9 0 1.8 0.5 1.9 4.3 1.4 2.3-0.4 4.3-0.7 4.3-0.8 0.1 0-0.3-2.7-1-5.9l-1.1-5.7c-6.2 0.2-17.7 1.5-29.5 3.1zm-0.5 16.2l-8 0.9c1.8 16.5 2.9 26.3 3.4 32.3 0.6 6.1 1.1 17 1.1 24.3 0 11.9-0.2 13.4-2 15.2-1.1 1.1-3.2 2-4.7 2-1.6 0-3.7-0.3-4.8-0.6-1.1-0.3-2.9-1.9-4.1-3.7-1.3-1.9-3-8-4.3-15.2-1.6-8.5-2.5-17.8-3-31.8l-0.6-19.7h-24.5c-1.1 36.8-0.9 46.1 0 52 0.6 4.7 1.9 11.4 2.8 15 0.9 3.8 3 8.7 5.2 12 2.1 3 5.5 6.9 7.6 8.5 2.2 1.7 5.2 3.7 6.9 4.4 1.7 0.8 8.1 1.6 15 1.9 11.1 0.4 12.4 0.3 17.4-1.9 3.8-1.7 6.7-4 9.5-7.4 3.2-3.8 4.7-7 6.4-13.5l2.3-8.5c-2.4-42.6-3.6-57.8-4.3-61.3l-1.3-6.2c-6.2 0.2-11.6 0.7-16 1.3z"/><path class="f" d="m2173 4c-1.4 0.4-6.6 2-11.5 3.5l-9 2.7 12 135.5c12.4 1.8 19.7 2.3 24.3 2.3 4.5 0 11.4-0.7 15.2-1.5 3.8-0.8 10.3-3.1 14.3-5.1 3.9-2 9.9-5.8 13.2-8.4 3.3-2.6 8.5-7.4 11.5-10.7 3-3.2 6.7-8.1 8.2-10.9 1.5-2.7 3.9-8.3 5.4-12.4 2.2-6.2 2.7-9.8 3.1-21 0.4-10.3 0.1-14.9-1-19.5-0.9-3.3-3.4-10.1-5.7-15-2.3-5-5.6-11.2-7.3-13.9-1.8-2.8-6.1-7.4-9.7-10.4-3.6-2.9-10.1-7.1-14.5-9.3-5.1-2.5-11-4.4-16.5-5.4-4.7-0.8-13.2-1.5-19-1.4-5.8 0-11.6 0.4-13 0.9z"/><path fill-rule="evenodd" class="g" d="m2016.5 5.3l-20 0.9c-26 104.1-33.5 134.6-33.5 135 0 0.5 13.2 0.7 29.3 0.5l29.2-0.2c4-15.5 5.4-20.7 5.7-21.5 0.2-0.8 1.5 4.7 2.9 12.3 2.2 12.3 2.6 13.7 4.4 13.7 1.1-0.1 8.5-1.3 16.5-2.8l14.5-2.7c0.4-7.1 0.1-8.5-0.8-8.5-0.6 0-5.9 0.9-11.7 2-5.8 1.1-11.2 2-12 2-1.1 0-2.4-4-5-16.5l-3.5-16.5h-10l-7 29.5c-31.8 1.3-41.1 1.5-41.3 1.3-0.2-0.2 5.9-27.1 13.5-59.9l13.9-59.6c45.7-2.6 48.6-2.6 49.5-1.3 0.5 0.8 1.8 4.4 2.9 8 1.1 3.6 3.5 13 5.4 21l3.4 14.5c-0.7-21.7-1-29-1.1-30.2-0.1-1.3 0.1-2.3 0.5-2.3 0.5 0 0.5-1.2 0.2-2.8-0.3-1.5-1.7-6-3.2-10l-2.7-7.3c-15.5 0.3-29 0.9-40 1.4zm2 16.4l-9 0.4c-19.3 77-25 100.2-25.2 101.1-0.3 1.6 0.7 1.8 11.9 1.5l12.2-0.2c5.4-22.5 7-29.1 7.1-29.2 0 0 5.4-0.4 12-0.8l12-0.7c5.3 29.4 6.3 33.2 7.5 33.2 0.8 0 5.3-0.7 10-1.5 4.7-0.9 8.6-1.7 8.6-1.8 0.1-0.1-0.2-4.5-0.6-9.7-0.4-5.2-1.5-12.2-2.3-15.5-0.9-3.3-3.7-15.9-6.1-28-2.5-12.1-6.1-28.1-7.9-35.5l-3.4-13.5c-13.8-0.1-21.8 0-26.8 0.2z"/><path fill-rule="evenodd" class="a" d="m502.8 20.1c4.5 0 11.5 0.6 15.4 1.5 4 0.9 10.1 2.7 13.5 4 3.5 1.3 6.3 2.7 6.3 3.1 0 0.5-2 5.8-4.6 11.8-2.5 6-4.6 11.1-4.7 11.3-0.1 0.1-2.5-0.9-5.2-2.3-3-1.6-8.2-3-13-3.6-4.4-0.6-9.8-0.8-12-0.5-2.2 0.4-5.1 1.7-6.5 2.9-1.4 1.2-3.5 3.5-4.6 5.2-1.2 1.6-2.6 4.8-3.1 7-0.6 2.8-0.5 6.2 0.4 11 0.7 3.8 1.8 8.3 2.5 10 0.7 1.7 2.4 4.6 3.7 6.5 1.2 1.9 3.9 4.6 6 6 2 1.4 5 3 6.6 3.7 1.6 0.6 5.8 1.2 9.2 1.2 4.8 0.1 6.4-0.3 6.8-1.4 0.3-0.8 0.2-3.3-0.3-5.5-0.7-4-0.7-4-9.7-4l-0.7-8.2c-0.5-4.6-0.8-9.8-0.8-14.8h14.5c10.6 0 14.7 0.3 15.2 1.2 0.4 0.7 0.6 9.4 0.6 19.3-0.2 14.1-0.6 19.5-2.1 25-1.8 7-1.8 7-6.8 8.8-2.7 1-9.1 2.1-14.4 2.4-6.1 0.4-12 0.1-16.5-0.7-4.3-0.8-9.3-2.7-13-4.8-3.3-2-8.1-5.6-10.8-8.1-2.6-2.5-6.4-7.5-8.5-11.1-2.1-3.6-5-10.1-6.6-14.5-2.7-7.5-2.8-8.7-2.3-18.5 0.4-5.8 1.3-12.8 2.2-15.5 0.9-2.8 2.8-7 4.2-9.5 1.4-2.5 4.8-6.3 7.7-8.5 2.8-2.2 7.3-5.1 10.1-6.4 2.7-1.3 6.8-2.7 9-3.1 2.2-0.4 7.7-0.8 12.2-0.9zm2394.8 0q9-0.1 16.5 1.9c4.1 1.1 9.9 2.9 12.7 4 2.9 1.1 5.3 2.3 5.3 2.7 0 0.5-1.8 5.7-4.1 11.8-2.2 6-4.3 11.1-4.5 11.2-0.2 0.2-2.7-0.8-5.4-2.2-2.8-1.4-7.9-3-11.5-3.5-3.6-0.6-8.9-0.7-11.8-0.3-2.8 0.3-6.6 1.6-8.4 2.7-1.8 1.2-3.7 3.2-4.4 4.6-0.6 1.4-1.6 3.8-2.1 5.5-0.5 1.6-0.9 5.9-0.9 9.5 0 3.6 0.8 8.3 1.7 10.5 0.9 2.2 3 6.1 4.7 8.6 1.8 2.6 4.8 5.7 6.7 7 1.9 1.3 4.8 2.9 6.5 3.6 1.6 0.6 5.8 1.2 15.5 1.3v-11h-9.5l-0.7-8.2c-0.5-4.6-0.8-9.8-0.8-14.8h29l0.6 5.7c0.4 3.2 0.4 12.8 0.1 21.3-0.4 8.5-1.2 17.7-2 20.5-1.3 4.9-1.5 5.1-7.3 7.2-4.6 1.7-8.2 2.2-16.2 2.2-5.6 0.1-12.6-0.4-15.5-1.1-2.8-0.7-7.9-2.8-11.3-4.8-3.4-1.9-8.4-5.6-11.3-8.3-3-2.8-6.5-7.4-8.6-11.5-1.9-3.7-4.6-9.9-5.9-13.7-2.1-5.8-2.6-8.9-2.6-18 0-6.7 0.5-12.7 1.3-15.5 0.8-2.5 2.1-5.9 3-7.5 0.8-1.7 4.3-5.7 7.6-9 4-3.9 8.3-6.8 11.9-8.4 3.1-1.3 7.3-2.7 9.2-3.1 1.9-0.4 7.5-0.8 12.5-0.9zm-2392.2 33.6c3.4 0.3 7.3 1 8.7 1.4 1.6 0.5-0.8 0.8-15.5 0.9l0.7 9.2c0.3 5.1 0.6 12 0.7 21.3l-2.2-2.7c-1.2-1.5-3-5.5-4-9-1.4-4.8-1.6-7.6-1-11.7 0.6-4.1 1.5-5.9 3.6-7.7 2.5-2.1 3.4-2.3 9-1.7zm2395 0c3.4 0.3 7.3 1 8.7 1.4 1.6 0.5-0.8 0.8-15.5 0.9l0.7 9.2c0.3 5.1 0.6 12 0.7 21.3l-2.2-2.7c-1.2-1.5-3-5.5-4-9-1.4-4.8-1.6-7.6-1-11.7 0.6-4.1 1.5-5.9 3.6-7.7 2.5-2.1 3.4-2.3 9-1.7z"/><path class="b" d="m867.7 52c0.3 3.8 0.4 4 3 3.4 1.6-0.3 3.6-0.8 4.5-1 1-0.2 1.9-1 2-1.8 0-0.8-1.7-2.1-4.3-3-2.5-0.9-4.7-1.6-4.9-1.6-0.3 0-0.4 1.8-0.3 4z"/><path fill-rule="evenodd" class="c" d="m1420.4 54.6c1.1 0.3 3 1.4 4 2.3 1 0.9 2.7 3.4 3.7 5.6 1.4 3.1 1.9 6.5 1.9 14.8 0 10.6 0 10.7-3 13.7q-3 3-6 3c-2.2 0-3.5-0.8-4.9-2.8-1-1.5-2.4-5.2-3.1-8.2-0.8-3.3-1.1-8.7-0.8-13.5 0.3-4.4 1-8.9 1.5-10 0.6-1.1 1.8-2.8 2.8-3.8 1.1-1.2 2.5-1.5 3.9-1.1zm0.6 26.9c0.6 1.4 0.9-0.2 0.9-5 0-3.8-0.4-7.9-0.9-9-0.6-1.4-0.9 0.2-0.9 5 0 3.8 0.4 7.9 0.9 9z"/><path class="d" d="m2170.5 13.3l-9 2 11 123.5c7 0.9 12 1.2 15.8 1.2 3.7 0 9.1-0.5 11.9-1.1 2.9-0.6 8.9-3 13.3-5.2 4.4-2.2 10.2-5.7 13-7.8 2.7-2 7.3-6.4 10.1-9.6 2.7-3.2 6-7.4 7.1-9.3 1.2-1.9 3.3-6.7 4.8-10.5 1.9-5 2.8-9.6 3.2-16 0.3-5.8 0-12.1-1-17.5-1-5.5-3.1-11.8-6-18-3.9-8.4-5.4-10.5-13.3-18.1-7-6.7-10.2-9-14.9-10.8-3.3-1.3-9.3-2.9-13.3-3.7-3.9-0.8-10.9-1.3-15.4-1.3-4.6 0.1-12.4 1.1-17.3 2.2zm-322.5 14.1l-17.5 4.1c3.7 80.6 5 104.2 5.2 104.5 0.2 0.3 9.6-0.4 20.8-1.5l20.5-2 0.5-27.8c10.9 14.6 15.4 20 17.1 21.6 1.6 1.5 3.8 2.7 4.9 2.7 1.1 0 9.1-1.9 17.8-4.3 13.7-3.6 15.7-4.5 15.8-6.2 0-1.1-1.9-21.6-4.2-45.5-2.3-23.9-4.4-43.7-4.6-44-0.3-0.3-9.7 0.1-21.1 0.9l-20.7 1.4 0.6 10.2c-11.4-17.4-12.4-18.5-14.9-18.4-1.5 0.1-10.6 2-20.2 4.3zm173.2 27.3c-1.2 9.2-2.2 17.4-2.2 18 0 0.9 2.3 1.3 8 1.3h8c-0.1-4.3-1.1-12.3-2.3-20.5l-2.2-15-7-0.6z"/><path class="e" d="m2335.8 52l0.2 4c5.8-1 7.8-1.4 8.2-1.6 0.5-0.2 0.8-1 0.8-1.6 0.1-0.7-1.2-1.8-2.7-2.5-1.5-0.6-3.7-1.4-4.8-1.7-1.8-0.5-2-0.1-1.8 3.4z"/><path class="f" d="m1164.9 24.4c-3.3 0.6-8 2.7-11.8 5.1-5.4 3.5-6.4 4.7-8.2 9.5-1.3 3.5-2.1 7.8-2 12 0 4.1 0.7 8.1 2 11 1 2.5 3.2 5.6 4.7 7 1.6 1.4 4.9 3.3 7.4 4.3 2.5 0.9 7.2 2.7 10.5 3.9 3.3 1.2 7.7 3.8 9.7 5.8 3.5 3.2 3.7 3.9 3.8 9.3 0 5.1-0.3 6-3.3 8.9l-3.2 3.2-26-0.9 2 24.4c10.1 1 16.1 0.9 20 0.5q7-0.8 13.5-4c4-2 8.6-5.4 12.2-9 3.1-3.3 6.4-7.7 7.2-9.9 1-2.5 1.6-6.9 1.6-11.5 0-5.9-0.6-8.6-2.5-12.7-1.4-2.9-4.6-7.6-7.3-10.4-2.8-3.1-8.4-7.2-14.2-10.5-5.2-3-10.4-6.1-11.5-7-1.5-1.1-1.9-2.5-1.8-5.2 0.1-2 0.5-3.9 0.9-4.2 0.3-0.3 4.2-0.5 8.7-0.4 4.5 0 9.4 0.4 10.9 0.7l2.8 0.7v-22c-15.9 0.2-23 0.8-26.1 1.4zm392.1 50.6v52h58v-22h-35v-22h20v-21l-19-1v-13l28.5 1.2c1.2-14.5 1.6-19.9 1.7-21.3l0.3-2.5c-36.4-1.9-48.7-2.4-50.8-2.4h-3.7z"/><path class="g" d="m1505.8 52c0.2 3.9 0.3 4 3.5 3.4 1.7-0.3 3.8-0.8 4.5-1 0.6-0.2 1.2-1 1.2-1.6 0.1-0.7-1.2-1.8-2.7-2.5-1.5-0.6-3.7-1.4-4.8-1.7-1.8-0.5-2-0.1-1.7 3.4z"/><path class="c" d="m1850.5 35.3l-12 3.2c2.9 68.2 4 88.2 4.2 88.5 0.2 0.3 6.1-0.2 13-1l12.6-1.5c-1.4-40.3-1.3-45.8-0.5-45.3 0.7 0.5 3.7 4.3 6.7 8.6 3.1 4.2 8.5 11.3 12 15.7 3.5 4.4 7.7 9.9 9.2 12.2 1.5 2.3 3.5 4.3 4.3 4.3 0.8 0 6.6-1.2 12.8-2.7 9.6-2.4 11.2-3.1 11.2-4.8 0-1.1-1.6-18.2-3.6-38-2.1-19.8-3.8-36.1-3.8-36.3-0.1-0.2-5.7 0-12.6 0.4l-12.5 0.6c3.5 25 4.4 32.9 4.3 33.6-0.2 0.8-6.7-8.1-14.5-19.7-11.8-17.3-14.7-21.1-16.6-21-1.2 0-7.6 1.5-14.2 3.2z"/><path class="f" d="m2176 20.3l-5.5 1 10 109.7c13.6 0 17.7-0.7 24.8-3 6.8-2.2 11-4.3 16.1-8.3 5.1-3.8 8.7-7.7 13.1-14.2 3.4-4.9 6.8-10.8 7.4-13 0.7-2.2 1.5-7.6 1.8-12 0.5-6.3 0.1-10-1.7-17.5-1.3-5.2-3.9-12.6-5.8-16.5-1.9-3.8-5.8-9.4-8.6-12.4-3.1-3.3-7.8-6.7-12.1-8.9-3.8-1.9-9.3-4.1-12-4.8-2.8-0.8-8.8-1.3-13.5-1.2-4.7 0-11 0.5-14 1.1z"/><path class="d" d="m2197 47.8c0 0.9 1 13.5 2.2 28 1.9 21.6 2.6 26.2 3.8 26.2 0.8 0.1 3.6-2.1 6.1-4.7 3.8-4 4.7-5.9 5.9-11.3 0.8-4.2 1.1-9.7 0.8-15.5-0.4-7-1.2-10.2-3.2-14.2-1.6-3.3-4-6.3-6.3-7.8-2.1-1.4-5-2.5-6.5-2.5-2 0-2.8 0.5-2.8 1.8z"/></svg>